<svg xmlns="http://www.w3.org/2000/svg" width="12" height="12" fill="none" viewBox="0 0 12 12"><path fill="#fff" fill-rule="evenodd" d="M11.5285 2.77718C11.3256 2.58013 11.0028 2.58013 10.7999 2.77718L4.64565 8.27147C4.57588 8.33507 4.48248 8.3662 4.38851 8.35718C4.29408 8.35718 4.20516 8.31273 4.14851 8.23718L1.25136 4.80861C1.06516 4.59395 0.741603 4.5673 0.522792 4.74861C0.30813 4.93481 0.281484 5.25837 0.462792 5.47718L3.36851 8.90576C3.5922 9.19544 3.92241 9.38369 4.28565 9.42861H4.37994C4.71901 9.4312 5.04656 9.30569 5.29708 9.07718L11.4857 3.50576C11.5884 3.41508 11.6507 3.28717 11.6587 3.15039C11.6668 3.01361 11.6199 2.87927 11.5285 2.77718Z" clip-rule="evenodd"/></svg>