<svg width="145" height="37" viewBox="0 0 145 37" fill="none" xmlns="http://www.w3.org/2000/svg">
<path d="M144.754 7.82556H137.516V19.9983H144.754V7.82556Z" fill="#B2ECD9"/>
<path d="M47.7689 9.85385C49.7955 12.1725 50.9535 15.3606 50.9535 19.708V36.518H38.7942V21.7368C38.7942 18.2589 37.6361 16.5199 35.6096 16.5199C34.4515 16.5199 33.583 16.8097 32.7145 17.6792C31.846 19.1283 31.5565 20.5775 31.5565 22.3164V36.8078H19.3971V22.0266C19.3971 18.5487 18.2391 16.8097 16.2125 16.8097C15.0545 16.8097 14.1859 17.0995 13.3174 17.969C12.7384 18.8385 12.1594 20.2877 12.1594 22.0266V36.518H0V7.2454H11.5803V10.1437C13.8964 7.82506 16.502 6.95557 19.9761 6.95557C22.0027 6.95557 23.7397 7.2454 25.1873 8.11488C26.6348 8.98437 28.0823 9.85385 28.9509 11.5928C30.1089 10.1437 31.5565 8.98436 33.2935 8.40471C35.0306 7.53522 36.7676 7.2454 38.7942 7.2454C42.8473 6.66574 45.7424 7.82505 47.7689 9.85385Z" fill="#B2ECD9"/>
<path d="M72.9564 7.24561H60.797V36.8081H72.9564V7.24561Z" fill="#B2ECD9"/>
<path d="M112.33 9.85388C114.646 12.1725 115.514 15.3606 115.514 19.708V36.5181H103.355V21.7368C103.355 18.2589 102.197 16.5199 99.5915 16.5199C98.1439 16.5199 96.9859 17.0996 96.4069 17.9691C95.5383 18.8385 95.2488 20.5775 95.2488 22.6063V36.5181H83.0895V7.24542H94.6698V10.1437C95.8279 8.9844 97.2754 8.11491 98.7229 7.53525C100.17 6.9556 101.908 6.66577 103.645 6.66577C107.119 6.66577 110.014 7.82508 112.33 9.85388Z" fill="#B2ECD9"/>
<path d="M137.517 0H125.358V24.9252C125.358 28.9828 126.516 31.8811 128.832 33.9099C130.858 35.6488 134.043 36.8082 137.517 36.8082V0Z" fill="#B2ECD9"/>
</svg>
