<svg height="100%" fill="none" aria-hidden="true" focusable="false" preserveAspectRatio="xMidYMid meet" viewBox="0 0 78 17"><path d="M0 1.06399C1.11181 0.872708 2.66596 0.729248 4.85373 0.729248C7.0654 0.729248 8.65541 1.14767 9.70745 2.00843C10.7236 2.80942 11.4051 4.13642 11.4051 5.69057C11.4051 7.24472 10.891 8.57173 9.94655 9.46835C8.71519 10.628 6.90999 11.142 4.782 11.142C4.31575 11.142 3.88537 11.1181 3.55063 11.0703V16.737H0V1.06399ZM3.56259 8.27285C3.87342 8.34458 4.24402 8.36849 4.77004 8.36849C6.68284 8.36849 7.85443 7.40014 7.85443 5.77426C7.85443 4.31575 6.83826 3.44303 5.04501 3.44303C4.31575 3.44303 3.81364 3.51476 3.56259 3.58649V8.27285Z" class="placera-text"/><path d="M13.2222 0H16.8087V16.737H13.2222V0Z" class="placera-text"/><path d="M25.6794 16.737L25.4642 15.5774H25.3924C24.6393 16.4979 23.4557 16.9881 22.0929 16.9881C19.7616 16.9881 18.3629 15.2905 18.3629 13.4494C18.3629 10.4606 21.0528 9.01409 25.1294 9.038V8.87063C25.1294 8.26093 24.7947 7.38821 23.0254 7.38821C21.8418 7.38821 20.5985 7.79468 19.8453 8.26093L19.1878 5.95361C19.9888 5.51128 21.5669 4.93744 23.6709 4.93744C27.5085 4.93744 28.7398 7.19693 28.7398 9.91072V13.9156C28.7398 15.0275 28.7877 16.0795 28.9072 16.7251H25.6794V16.737ZM25.249 11.2975C23.3601 11.2736 21.9016 11.7159 21.9016 13.1147C21.9016 14.0352 22.5113 14.4775 23.3123 14.4775C24.2089 14.4775 24.9382 13.8917 25.1773 13.1625C25.2251 12.9712 25.249 12.756 25.249 12.5528V11.2975Z" class="placera-text"/><path d="M39.6308 16.462C38.9972 16.7489 37.7897 16.9761 36.4269 16.9761C32.6969 16.9761 30.3179 14.7166 30.3179 11.0823C30.3179 7.71094 32.6252 4.94934 36.917 4.94934C37.8615 4.94934 38.9016 5.11671 39.6547 5.39168L39.0928 8.06959C38.6625 7.87831 38.0288 7.71094 37.0844 7.71094C35.1955 7.71094 33.9761 9.0499 34 10.9388C34 13.0668 35.4107 14.1666 37.1561 14.1666C38.0049 14.1666 38.6625 14.0232 39.2124 13.808L39.6308 16.462Z" class="placera-text"/><path d="M43.7792 12.1223C43.8988 13.6048 45.3573 14.3101 47.031 14.3101C48.2623 14.3101 49.2427 14.1427 50.211 13.8439L50.6772 16.2707C49.4937 16.737 48.0591 16.9761 46.505 16.9761C42.5957 16.9761 40.3481 14.7166 40.3481 11.1062C40.3481 8.17719 42.1653 4.94934 46.1702 4.94934C49.9002 4.94934 51.3109 7.8544 51.3109 10.6997C51.3109 11.3094 51.2391 11.8593 51.1913 12.1104H43.7792V12.1223ZM47.9993 9.67156C47.9993 8.79885 47.6168 7.34034 45.967 7.34034C44.4607 7.34034 43.839 8.70321 43.7553 9.67156H47.9993Z" class="placera-text"/><path d="M53.116 9.00214C53.116 7.30453 53.0682 6.19271 53.0204 5.20045H56.1048L56.2243 7.31648H56.32C56.9058 5.64278 58.3284 4.93744 59.4283 4.93744C59.763 4.93744 59.9184 4.93744 60.1814 4.98526V8.36852C59.9184 8.3207 59.6195 8.27288 59.2131 8.27288C57.898 8.27288 57.0014 8.97823 56.7623 10.09C56.7145 10.3291 56.6906 10.6041 56.6906 10.891V16.737H53.1041V9.00214H53.116Z" class="placera-text"/><path d="M68.0358 16.737L67.8206 15.5774H67.7489C66.9957 16.4979 65.8122 16.9881 64.4493 16.9881C62.1181 16.9881 60.7194 15.2905 60.7194 13.4494C60.7194 10.4606 63.4092 9.01409 67.4859 9.038V8.87063C67.4859 8.26093 67.1511 7.38821 65.3818 7.38821C64.1983 7.38821 62.9549 7.79468 62.2018 8.26093L61.5443 5.95361C62.3452 5.51128 63.9233 4.93744 66.0274 4.93744C69.8649 4.93744 71.0963 7.19693 71.0963 9.91072V13.9156C71.0963 15.0275 71.1441 16.0795 71.2636 16.7251H68.0358V16.737ZM67.6174 11.2975C65.7285 11.2736 64.27 11.7159 64.27 13.1147C64.27 14.0352 64.8797 14.4775 65.6807 14.4775C66.5773 14.4775 67.3065 13.8917 67.5456 13.1625C67.5935 12.9712 67.6174 12.756 67.6174 12.5528V11.2975Z" class="placera-text"/><path d="M73.3199 14.8362C73.3199 13.557 74.1927 12.6484 75.4479 12.6484C76.7032 12.6484 77.552 13.5451 77.552 14.8362C77.552 16.0915 76.7032 17.0001 75.424 17.0001C74.1927 17.0001 73.3199 16.0795 73.3199 14.8362Z" class="placera-dot"/></svg>