<svg xmlns="http://www.w3.org/2000/svg" width="312" height="128" fill="none" viewBox="0 0 312 128"><g clip-path="url(#clip0)"><path fill="#222" d="M63.3799 43.2466C62.1738 42.8999 61.2949 42.4751 60.7432 41.9722C60.1963 41.4644 59.9229 40.8394 59.9229 40.0972C59.9229 39.2573 60.2573 38.564 60.9263 38.0171C61.6001 37.4653 62.4741 37.1895 63.5483 37.1895C64.2808 37.1895 64.9326 37.3311 65.5039 37.6143C66.0801 37.8975 66.5244 38.2881 66.8369 38.7861C67.1543 39.2842 67.313 39.8286 67.313 40.4194H65.8994C65.8994 39.7749 65.6943 39.2695 65.2842 38.9033C64.874 38.5322 64.2954 38.3467 63.5483 38.3467C62.855 38.3467 62.313 38.5005 61.9224 38.8081C61.5366 39.1108 61.3438 39.5332 61.3438 40.0752C61.3438 40.5098 61.5269 40.8784 61.8931 41.1812C62.2642 41.479 62.8916 41.7524 63.7754 42.0015C64.6641 42.2505 65.3574 42.5264 65.8555 42.8291C66.3584 43.127 66.7295 43.4761 66.9688 43.8765C67.2129 44.2769 67.335 44.748 67.335 45.29C67.335 46.1543 66.998 46.8477 66.3242 47.3701C65.6504 47.8877 64.7495 48.1465 63.6216 48.1465C62.8892 48.1465 62.2056 48.0073 61.5708 47.729C60.936 47.4458 60.4453 47.0601 60.0986 46.5718C59.7568 46.0835 59.5859 45.5293 59.5859 44.9092H60.9995C60.9995 45.5537 61.2363 46.064 61.71 46.4399C62.1885 46.811 62.8257 46.9966 63.6216 46.9966C64.3638 46.9966 64.9326 46.8452 65.3281 46.5425C65.7236 46.2397 65.9214 45.8271 65.9214 45.3047C65.9214 44.7822 65.7383 44.3794 65.3721 44.0962C65.0059 43.8081 64.3418 43.5249 63.3799 43.2466ZM72.2202 48.1465C71.146 48.1465 70.272 47.7949 69.5981 47.0918C68.9243 46.3838 68.5874 45.439 68.5874 44.2573V44.0083C68.5874 43.2222 68.7363 42.5215 69.0342 41.9062C69.3369 41.2861 69.7568 40.8027 70.2939 40.4561C70.8359 40.1045 71.4219 39.9287 72.0518 39.9287C73.082 39.9287 73.8828 40.2681 74.4541 40.9468C75.0254 41.6255 75.311 42.5972 75.311 43.8618V44.4258H69.9424C69.9619 45.207 70.189 45.8394 70.6235 46.3228C71.063 46.8013 71.6196 47.0405 72.2935 47.0405C72.772 47.0405 73.1772 46.9429 73.5093 46.7476C73.8413 46.5522 74.1318 46.2935 74.3809 45.9712L75.2085 46.6157C74.5444 47.6362 73.5483 48.1465 72.2202 48.1465ZM72.0518 41.042C71.5049 41.042 71.0459 41.2422 70.6748 41.6426C70.3037 42.0381 70.0742 42.5947 69.9863 43.3125H73.9561V43.21C73.917 42.5215 73.7314 41.9893 73.3994 41.6133C73.0674 41.2324 72.6182 41.042 72.0518 41.042ZM82.4448 38.1562V40.0752H83.9243V41.1226H82.4448V46.0371C82.4448 46.3545 82.5107 46.5938 82.6426 46.7549C82.7744 46.9111 82.999 46.9893 83.3164 46.9893C83.4727 46.9893 83.6875 46.96 83.9609 46.9014V48C83.6045 48.0977 83.2578 48.1465 82.9209 48.1465C82.3154 48.1465 81.8589 47.9634 81.5513 47.5972C81.2437 47.231 81.0898 46.7109 81.0898 46.0371V41.1226H79.647V40.0752H81.0898V38.1562H82.4448ZM86.9858 48H85.6309V40.0752H86.9858V48ZM85.521 37.9731C85.521 37.7534 85.5869 37.5679 85.7188 37.4165C85.8555 37.2651 86.0557 37.1895 86.3193 37.1895C86.583 37.1895 86.7832 37.2651 86.9199 37.4165C87.0566 37.5679 87.125 37.7534 87.125 37.9731C87.125 38.1929 87.0566 38.376 86.9199 38.5225C86.7832 38.6689 86.583 38.7422 86.3193 38.7422C86.0557 38.7422 85.8555 38.6689 85.7188 38.5225C85.5869 38.376 85.521 38.1929 85.521 37.9731ZM90.6333 48H89.2783V36.75H90.6333V48ZM94.2808 48H92.9258V36.75H94.2808V48ZM105.069 48C104.991 47.8438 104.928 47.5654 104.879 47.165C104.249 47.8193 103.497 48.1465 102.623 48.1465C101.842 48.1465 101.2 47.9268 100.697 47.4873C100.199 47.043 99.9497 46.4814 99.9497 45.8027C99.9497 44.9775 100.262 44.3379 100.887 43.8838C101.517 43.4248 102.401 43.1953 103.539 43.1953H104.857V42.5728C104.857 42.0991 104.715 41.7231 104.432 41.4448C104.149 41.1616 103.731 41.02 103.18 41.02C102.696 41.02 102.291 41.1421 101.964 41.3862C101.637 41.6304 101.473 41.9258 101.473 42.2725H100.111C100.111 41.877 100.25 41.4961 100.528 41.1299C100.812 40.7588 101.192 40.4658 101.671 40.251C102.154 40.0361 102.684 39.9287 103.26 39.9287C104.173 39.9287 104.889 40.1582 105.406 40.6172C105.924 41.0713 106.192 41.6987 106.212 42.4995V46.147C106.212 46.8745 106.305 47.4531 106.49 47.8828V48H105.069ZM102.821 46.9673C103.246 46.9673 103.648 46.8574 104.029 46.6377C104.41 46.418 104.686 46.1323 104.857 45.7808V44.1548H103.795C102.135 44.1548 101.305 44.6406 101.305 45.6123C101.305 46.0371 101.446 46.3691 101.729 46.6084C102.013 46.8477 102.376 46.9673 102.821 46.9673ZM110.174 38.1562V40.0752H111.654V41.1226H110.174V46.0371C110.174 46.3545 110.24 46.5938 110.372 46.7549C110.504 46.9111 110.729 46.9893 111.046 46.9893C111.202 46.9893 111.417 46.96 111.69 46.9014V48C111.334 48.0977 110.987 48.1465 110.65 48.1465C110.045 48.1465 109.588 47.9634 109.281 47.5972C108.973 47.231 108.819 46.7109 108.819 46.0371V41.1226H107.376V40.0752H108.819V38.1562H110.174ZM115.082 38.1562V40.0752H116.561V41.1226H115.082V46.0371C115.082 46.3545 115.147 46.5938 115.279 46.7549C115.411 46.9111 115.636 46.9893 115.953 46.9893C116.109 46.9893 116.324 46.96 116.598 46.9014V48C116.241 48.0977 115.895 48.1465 115.558 48.1465C114.952 48.1465 114.496 47.9634 114.188 47.5972C113.88 47.231 113.727 46.7109 113.727 46.0371V41.1226H112.284V40.0752H113.727V38.1562H115.082ZM126.764 48C126.686 47.8438 126.622 47.5654 126.573 47.165C125.943 47.8193 125.191 48.1465 124.317 48.1465C123.536 48.1465 122.894 47.9268 122.391 47.4873C121.893 47.043 121.644 46.4814 121.644 45.8027C121.644 44.9775 121.957 44.3379 122.582 43.8838C123.211 43.4248 124.095 43.1953 125.233 43.1953H126.551V42.5728C126.551 42.0991 126.41 41.7231 126.126 41.4448C125.843 41.1616 125.426 41.02 124.874 41.02C124.391 41.02 123.985 41.1421 123.658 41.3862C123.331 41.6304 123.167 41.9258 123.167 42.2725H121.805C121.805 41.877 121.944 41.4961 122.223 41.1299C122.506 40.7588 122.887 40.4658 123.365 40.251C123.849 40.0361 124.378 39.9287 124.955 39.9287C125.868 39.9287 126.583 40.1582 127.101 40.6172C127.618 41.0713 127.887 41.6987 127.906 42.4995V46.147C127.906 46.8745 127.999 47.4531 128.185 47.8828V48H126.764ZM124.515 46.9673C124.94 46.9673 125.343 46.8574 125.724 46.6377C126.104 46.418 126.38 46.1323 126.551 45.7808V44.1548H125.489C123.829 44.1548 122.999 44.6406 122.999 45.6123C122.999 46.0371 123.141 46.3691 123.424 46.6084C123.707 46.8477 124.071 46.9673 124.515 46.9673ZM131.502 48H130.147V36.75H131.502V48ZM135.15 48H133.795V36.75H135.15V48ZM139.164 38.1562V40.0752H140.643V41.1226H139.164V46.0371C139.164 46.3545 139.229 46.5938 139.361 46.7549C139.493 46.9111 139.718 46.9893 140.035 46.9893C140.191 46.9893 140.406 46.96 140.68 46.9014V48C140.323 48.0977 139.977 48.1465 139.64 48.1465C139.034 48.1465 138.578 47.9634 138.27 47.5972C137.962 47.231 137.809 46.7109 137.809 46.0371V41.1226H136.366V40.0752H137.809V38.1562H139.164ZM143.705 48H142.35V40.0752H143.705V48ZM142.24 37.9731C142.24 37.7534 142.306 37.5679 142.438 37.4165C142.574 37.2651 142.774 37.1895 143.038 37.1895C143.302 37.1895 143.502 37.2651 143.639 37.4165C143.775 37.5679 143.844 37.7534 143.844 37.9731C143.844 38.1929 143.775 38.376 143.639 38.5225C143.502 38.6689 143.302 38.7422 143.038 38.7422C142.774 38.7422 142.574 38.6689 142.438 38.5225C142.306 38.376 142.24 38.1929 142.24 37.9731ZM145.55 43.9717C145.55 42.7559 145.838 41.7793 146.415 41.042C146.991 40.2998 147.745 39.9287 148.678 39.9287C149.605 39.9287 150.34 40.2461 150.882 40.8809V36.75H152.237V48H150.992L150.926 47.1504C150.384 47.8145 149.63 48.1465 148.663 48.1465C147.745 48.1465 146.996 47.7705 146.415 47.0186C145.838 46.2666 145.55 45.2852 145.55 44.0742V43.9717ZM146.905 44.1255C146.905 45.0239 147.091 45.7271 147.462 46.2349C147.833 46.7427 148.346 46.9966 149 46.9966C149.859 46.9966 150.487 46.6108 150.882 45.8394V42.1992C150.477 41.4521 149.854 41.0786 149.015 41.0786C148.351 41.0786 147.833 41.335 147.462 41.8477C147.091 42.3604 146.905 43.1196 146.905 44.1255ZM159.422 41.0347C160.023 40.2974 160.804 39.9287 161.766 39.9287C163.441 39.9287 164.286 40.8735 164.3 42.7632V48H162.945V42.7559C162.94 42.1846 162.809 41.7622 162.55 41.4888C162.296 41.2153 161.898 41.0786 161.356 41.0786C160.917 41.0786 160.531 41.1958 160.199 41.4302C159.867 41.6646 159.608 41.9722 159.422 42.353V48H158.067V36.75H159.422V41.0347ZM171.222 48C171.144 47.8438 171.08 47.5654 171.031 47.165C170.401 47.8193 169.649 48.1465 168.775 48.1465C167.994 48.1465 167.352 47.9268 166.849 47.4873C166.351 47.043 166.102 46.4814 166.102 45.8027C166.102 44.9775 166.415 44.3379 167.04 43.8838C167.669 43.4248 168.553 43.1953 169.691 43.1953H171.009V42.5728C171.009 42.0991 170.868 41.7231 170.584 41.4448C170.301 41.1616 169.884 41.02 169.332 41.02C168.849 41.02 168.443 41.1421 168.116 41.3862C167.789 41.6304 167.625 41.9258 167.625 42.2725H166.263C166.263 41.877 166.402 41.4961 166.681 41.1299C166.964 40.7588 167.345 40.4658 167.823 40.251C168.307 40.0361 168.836 39.9287 169.413 39.9287C170.326 39.9287 171.041 40.1582 171.559 40.6172C172.076 41.0713 172.345 41.6987 172.364 42.4995V46.147C172.364 46.8745 172.457 47.4531 172.643 47.8828V48H171.222ZM168.973 46.9673C169.398 46.9673 169.801 46.8574 170.182 46.6377C170.562 46.418 170.838 46.1323 171.009 45.7808V44.1548H169.947C168.287 44.1548 167.457 44.6406 167.457 45.6123C167.457 46.0371 167.599 46.3691 167.882 46.6084C168.165 46.8477 168.529 46.9673 168.973 46.9673ZM181.498 48.1465C180.423 48.1465 179.549 47.7949 178.875 47.0918C178.202 46.3838 177.865 45.439 177.865 44.2573V44.0083C177.865 43.2222 178.014 42.5215 178.312 41.9062C178.614 41.2861 179.034 40.8027 179.571 40.4561C180.113 40.1045 180.699 39.9287 181.329 39.9287C182.359 39.9287 183.16 40.2681 183.731 40.9468C184.303 41.6255 184.588 42.5972 184.588 43.8618V44.4258H179.22C179.239 45.207 179.466 45.8394 179.901 46.3228C180.34 46.8013 180.897 47.0405 181.571 47.0405C182.049 47.0405 182.455 46.9429 182.787 46.7476C183.119 46.5522 183.409 46.2935 183.658 45.9712L184.486 46.6157C183.822 47.6362 182.826 48.1465 181.498 48.1465ZM181.329 41.042C180.782 41.042 180.323 41.2422 179.952 41.6426C179.581 42.0381 179.352 42.5947 179.264 43.3125H183.233V43.21C183.194 42.5215 183.009 41.9893 182.677 41.6133C182.345 41.2324 181.896 41.042 181.329 41.042ZM187.445 40.0752L187.489 41.0713C188.094 40.3096 188.885 39.9287 189.862 39.9287C191.537 39.9287 192.381 40.8735 192.396 42.7632V48H191.041V42.7559C191.036 42.1846 190.904 41.7622 190.646 41.4888C190.392 41.2153 189.994 41.0786 189.452 41.0786C189.012 41.0786 188.626 41.1958 188.294 41.4302C187.962 41.6646 187.704 41.9722 187.518 42.353V48H186.163V40.0752H187.445ZM204.869 44.1255C204.869 45.3364 204.591 46.3105 204.034 47.0479C203.478 47.7803 202.73 48.1465 201.793 48.1465C200.792 48.1465 200.018 47.7925 199.471 47.0845L199.405 48H198.16V36.75H199.515V40.9468C200.062 40.2681 200.816 39.9287 201.778 39.9287C202.74 39.9287 203.495 40.2925 204.042 41.02C204.593 41.7476 204.869 42.7437 204.869 44.0083V44.1255ZM203.514 43.9717C203.514 43.0488 203.336 42.3359 202.979 41.833C202.623 41.3301 202.11 41.0786 201.441 41.0786C200.548 41.0786 199.906 41.4937 199.515 42.3237V45.7515C199.93 46.5815 200.577 46.9966 201.456 46.9966C202.105 46.9966 202.611 46.7451 202.972 46.2422C203.333 45.7393 203.514 44.9824 203.514 43.9717ZM211.476 47.2163C210.948 47.8364 210.174 48.1465 209.154 48.1465C208.309 48.1465 207.665 47.9023 207.22 47.4141C206.781 46.9209 206.559 46.1934 206.554 45.2314V40.0752H207.909V45.1948C207.909 46.396 208.397 46.9966 209.374 46.9966C210.409 46.9966 211.097 46.6108 211.439 45.8394V40.0752H212.794V48H211.505L211.476 47.2163ZM215.526 48V41.1226H214.273V40.0752H215.526V39.2622C215.526 38.4126 215.753 37.7559 216.207 37.292C216.661 36.8281 217.303 36.5962 218.133 36.5962C218.446 36.5962 218.756 36.6377 219.063 36.7207L218.99 37.8193C218.761 37.7754 218.517 37.7534 218.258 37.7534C217.818 37.7534 217.479 37.8828 217.24 38.1416C217 38.3955 216.881 38.7617 216.881 39.2402V40.0752H218.573V41.1226H216.881V48H215.526ZM220.741 48V41.1226H219.488V40.0752H220.741V39.2622C220.741 38.4126 220.968 37.7559 221.422 37.292C221.876 36.8281 222.518 36.5962 223.348 36.5962C223.661 36.5962 223.971 36.6377 224.278 36.7207L224.205 37.8193C223.976 37.7754 223.731 37.7534 223.473 37.7534C223.033 37.7534 222.694 37.8828 222.455 38.1416C222.215 38.3955 222.096 38.7617 222.096 39.2402V40.0752H223.788V41.1226H222.096V48H220.741ZM228.402 48.1465C227.328 48.1465 226.454 47.7949 225.78 47.0918C225.106 46.3838 224.769 45.439 224.769 44.2573V44.0083C224.769 43.2222 224.918 42.5215 225.216 41.9062C225.519 41.2861 225.938 40.8027 226.476 40.4561C227.018 40.1045 227.604 39.9287 228.233 39.9287C229.264 39.9287 230.064 40.2681 230.636 40.9468C231.207 41.6255 231.493 42.5972 231.493 43.8618V44.4258H226.124C226.144 45.207 226.371 45.8394 226.805 46.3228C227.245 46.8013 227.801 47.0405 228.475 47.0405C228.954 47.0405 229.359 46.9429 229.691 46.7476C230.023 46.5522 230.313 46.2935 230.562 45.9712L231.39 46.6157C230.726 47.6362 229.73 48.1465 228.402 48.1465ZM228.233 41.042C227.687 41.042 227.228 41.2422 226.856 41.6426C226.485 42.0381 226.256 42.5947 226.168 43.3125H230.138V43.21C230.099 42.5215 229.913 41.9893 229.581 41.6133C229.249 41.2324 228.8 41.042 228.233 41.042ZM236.898 41.291C236.693 41.2568 236.471 41.2397 236.231 41.2397C235.343 41.2397 234.74 41.6182 234.422 42.375V48H233.067V40.0752H234.386L234.408 40.9907C234.852 40.2827 235.482 39.9287 236.297 39.9287C236.561 39.9287 236.761 39.9629 236.898 40.0312V41.291ZM240.355 38.1562V40.0752H241.834V41.1226H240.355V46.0371C240.355 46.3545 240.421 46.5938 240.553 46.7549C240.685 46.9111 240.909 46.9893 241.227 46.9893C241.383 46.9893 241.598 46.96 241.871 46.9014V48C241.515 48.0977 241.168 48.1465 240.831 48.1465C240.226 48.1465 239.769 47.9634 239.461 47.5972C239.154 47.231 239 46.7109 239 46.0371V41.1226H237.557V40.0752H239V38.1562H240.355ZM247.811 48V41.1226H246.559V40.0752H247.811V39.2622C247.811 38.4126 248.038 37.7559 248.492 37.292C248.946 36.8281 249.588 36.5962 250.418 36.5962C250.731 36.5962 251.041 36.6377 251.349 36.7207L251.275 37.8193C251.046 37.7754 250.802 37.7534 250.543 37.7534C250.104 37.7534 249.764 37.8828 249.525 38.1416C249.286 38.3955 249.166 38.7617 249.166 39.2402V40.0752H250.858V41.1226H249.166V48H247.811ZM252 43.9644C252 43.188 252.152 42.4897 252.455 41.8696C252.762 41.2495 253.187 40.771 253.729 40.4341C254.276 40.0972 254.898 39.9287 255.597 39.9287C256.676 39.9287 257.547 40.3022 258.211 41.0493C258.88 41.7964 259.215 42.79 259.215 44.0303V44.1255C259.215 44.897 259.066 45.5903 258.768 46.2056C258.475 46.8159 258.053 47.292 257.501 47.6338C256.954 47.9756 256.324 48.1465 255.611 48.1465C254.537 48.1465 253.666 47.7729 252.997 47.0259C252.333 46.2788 252 45.29 252 44.0596V43.9644ZM253.363 44.1255C253.363 45.0044 253.565 45.71 253.971 46.2422C254.381 46.7744 254.928 47.0405 255.611 47.0405C256.3 47.0405 256.847 46.772 257.252 46.2349C257.657 45.6929 257.86 44.936 257.86 43.9644C257.86 43.0952 257.652 42.3921 257.237 41.855C256.827 41.313 256.28 41.042 255.597 41.042C254.928 41.042 254.388 41.3081 253.978 41.8403C253.568 42.3726 253.363 43.1343 253.363 44.1255ZM253.187 37.9585C253.187 37.7388 253.253 37.5557 253.385 37.4092C253.521 37.2578 253.722 37.1821 253.985 37.1821C254.249 37.1821 254.449 37.2578 254.586 37.4092C254.723 37.5557 254.791 37.7388 254.791 37.9585C254.791 38.1782 254.723 38.3613 254.586 38.5078C254.449 38.6543 254.249 38.7275 253.985 38.7275C253.722 38.7275 253.521 38.6543 253.385 38.5078C253.253 38.3613 253.187 38.1782 253.187 37.9585ZM256.336 37.9731C256.336 37.7534 256.402 37.5679 256.534 37.4165C256.671 37.2651 256.871 37.1895 257.135 37.1895C257.398 37.1895 257.599 37.2651 257.735 37.4165C257.872 37.5679 257.94 37.7534 257.94 37.9731C257.94 38.1929 257.872 38.376 257.735 38.5225C257.599 38.6689 257.398 38.7422 257.135 38.7422C256.871 38.7422 256.671 38.6689 256.534 38.5225C256.402 38.376 256.336 38.1929 256.336 37.9731ZM264.745 41.291C264.54 41.2568 264.317 41.2397 264.078 41.2397C263.189 41.2397 262.586 41.6182 262.269 42.375V48H260.914V40.0752H262.232L262.254 40.9907C262.699 40.2827 263.329 39.9287 264.144 39.9287C264.408 39.9287 264.608 39.9629 264.745 40.0312V41.291ZM59.6665 64.9644C59.6665 64.188 59.8179 63.4897 60.1206 62.8696C60.4282 62.2495 60.853 61.771 61.395 61.4341C61.9419 61.0972 62.5645 60.9287 63.2627 60.9287C64.3418 60.9287 65.2134 61.3022 65.8774 62.0493C66.5464 62.7964 66.8809 63.79 66.8809 65.0303V65.1255C66.8809 65.897 66.7319 66.5903 66.4341 67.2056C66.1411 67.8159 65.7188 68.292 65.167 68.6338C64.6201 68.9756 63.9902 69.1465 63.2773 69.1465C62.2031 69.1465 61.3315 68.7729 60.6626 68.0259C59.9985 67.2788 59.6665 66.29 59.6665 65.0596V64.9644ZM61.0288 65.1255C61.0288 66.0044 61.2314 66.71 61.6367 67.2422C62.0469 67.7744 62.5938 68.0405 63.2773 68.0405C63.9658 68.0405 64.5127 67.772 64.918 67.2349C65.3232 66.6929 65.5259 65.936 65.5259 64.9644C65.5259 64.0952 65.3184 63.3921 64.9033 62.855C64.4932 62.313 63.9463 62.042 63.2627 62.042C62.5938 62.042 62.0542 62.3081 61.644 62.8403C61.2339 63.3726 61.0288 64.1343 61.0288 65.1255ZM71.0776 67.1616L73.0405 61.0752H74.4248L71.583 69H70.5503L67.6792 61.0752H69.0635L71.0776 67.1616ZM80.5039 69C80.4258 68.8438 80.3623 68.5654 80.3135 68.165C79.6836 68.8193 78.9316 69.1465 78.0576 69.1465C77.2764 69.1465 76.6343 68.9268 76.1313 68.4873C75.6333 68.043 75.3843 67.4814 75.3843 66.8027C75.3843 65.9775 75.6968 65.3379 76.3218 64.8838C76.9517 64.4248 77.8354 64.1953 78.9731 64.1953H80.2915V63.5728C80.2915 63.0991 80.1499 62.7231 79.8667 62.4448C79.5835 62.1616 79.166 62.02 78.6143 62.02C78.1309 62.02 77.7256 62.1421 77.3984 62.3862C77.0713 62.6304 76.9077 62.9258 76.9077 63.2725H75.5454C75.5454 62.877 75.6846 62.4961 75.9629 62.1299C76.2461 61.7588 76.627 61.4658 77.1055 61.251C77.5889 61.0361 78.1187 60.9287 78.6948 60.9287C79.6079 60.9287 80.3232 61.1582 80.8408 61.6172C81.3584 62.0713 81.627 62.6987 81.6465 63.4995V67.147C81.6465 67.8745 81.7393 68.4531 81.9248 68.8828V69H80.5039ZM78.2554 67.9673C78.6802 67.9673 79.083 67.8574 79.4639 67.6377C79.8447 67.418 80.1206 67.1323 80.2915 66.7808V65.1548H79.2295C77.5693 65.1548 76.7393 65.6406 76.7393 66.6123C76.7393 67.0371 76.8809 67.3691 77.1641 67.6084C77.4473 67.8477 77.811 67.9673 78.2554 67.9673ZM76.4829 58.9585C76.4829 58.7388 76.5488 58.5557 76.6807 58.4092C76.8174 58.2578 77.0176 58.1821 77.2812 58.1821C77.5449 58.1821 77.7451 58.2578 77.8818 58.4092C78.0186 58.5557 78.0869 58.7388 78.0869 58.9585C78.0869 59.1782 78.0186 59.3613 77.8818 59.5078C77.7451 59.6543 77.5449 59.7275 77.2812 59.7275C77.0176 59.7275 76.8174 59.6543 76.6807 59.5078C76.5488 59.3613 76.4829 59.1782 76.4829 58.9585ZM79.6323 58.9731C79.6323 58.7534 79.6982 58.5679 79.8301 58.4165C79.9668 58.2651 80.167 58.1895 80.4307 58.1895C80.6943 58.1895 80.8945 58.2651 81.0312 58.4165C81.168 58.5679 81.2363 58.7534 81.2363 58.9731C81.2363 59.1929 81.168 59.376 81.0312 59.5225C80.8945 59.6689 80.6943 59.7422 80.4307 59.7422C80.167 59.7422 79.9668 59.6689 79.8301 59.5225C79.6982 59.376 79.6323 59.1929 79.6323 58.9731ZM85.0522 61.0752L85.0962 62.0713C85.7017 61.3096 86.4927 60.9287 87.4692 60.9287C89.144 60.9287 89.9888 61.8735 90.0034 63.7632V69H88.6484V63.7559C88.6436 63.1846 88.5117 62.7622 88.2529 62.4888C87.999 62.2153 87.6011 62.0786 87.0591 62.0786C86.6196 62.0786 86.2339 62.1958 85.9019 62.4302C85.5698 62.6646 85.311 62.9722 85.1255 63.353V69H83.7705V61.0752H85.0522ZM93.8853 59.1562V61.0752H95.3647V62.1226H93.8853V67.0371C93.8853 67.3545 93.9512 67.5938 94.083 67.7549C94.2148 67.9111 94.4395 67.9893 94.7568 67.9893C94.9131 67.9893 95.1279 67.96 95.4014 67.9014V69C95.0449 69.0977 94.6982 69.1465 94.3613 69.1465C93.7559 69.1465 93.2993 68.9634 92.9917 68.5972C92.6841 68.231 92.5303 67.7109 92.5303 67.0371V62.1226H91.0874V61.0752H92.5303V59.1562H93.8853ZM101.847 69C101.769 68.8438 101.705 68.5654 101.656 68.165C101.026 68.8193 100.274 69.1465 99.4004 69.1465C98.6191 69.1465 97.9771 68.9268 97.4741 68.4873C96.9761 68.043 96.7271 67.4814 96.7271 66.8027C96.7271 65.9775 97.0396 65.3379 97.6646 64.8838C98.2944 64.4248 99.1782 64.1953 100.316 64.1953H101.634V63.5728C101.634 63.0991 101.493 62.7231 101.209 62.4448C100.926 62.1616 100.509 62.02 99.957 62.02C99.4736 62.02 99.0684 62.1421 98.7412 62.3862C98.4141 62.6304 98.2505 62.9258 98.2505 63.2725H96.8882C96.8882 62.877 97.0273 62.4961 97.3057 62.1299C97.5889 61.7588 97.9697 61.4658 98.4482 61.251C98.9316 61.0361 99.4614 60.9287 100.038 60.9287C100.951 60.9287 101.666 61.1582 102.184 61.6172C102.701 62.0713 102.97 62.6987 102.989 63.4995V67.147C102.989 67.8745 103.082 68.4531 103.268 68.8828V69H101.847ZM99.5981 67.9673C100.023 67.9673 100.426 67.8574 100.807 67.6377C101.188 67.418 101.463 67.1323 101.634 66.7808V65.1548H100.572C98.9121 65.1548 98.082 65.6406 98.082 66.6123C98.082 67.0371 98.2236 67.3691 98.5068 67.6084C98.79 67.8477 99.1538 67.9673 99.5981 67.9673ZM104.784 64.9717C104.784 63.7559 105.072 62.7793 105.648 62.042C106.224 61.2998 106.979 60.9287 107.911 60.9287C108.839 60.9287 109.574 61.2461 110.116 61.8809V57.75H111.471V69H110.226L110.16 68.1504C109.618 68.8145 108.863 69.1465 107.896 69.1465C106.979 69.1465 106.229 68.7705 105.648 68.0186C105.072 67.2666 104.784 66.2852 104.784 65.0742V64.9717ZM106.139 65.1255C106.139 66.0239 106.324 66.7271 106.695 67.2349C107.066 67.7427 107.579 67.9966 108.233 67.9966C109.093 67.9966 109.72 67.6108 110.116 66.8394V63.1992C109.71 62.4521 109.088 62.0786 108.248 62.0786C107.584 62.0786 107.066 62.335 106.695 62.8477C106.324 63.3604 106.139 64.1196 106.139 65.1255ZM116.869 69.1465C115.794 69.1465 114.92 68.7949 114.247 68.0918C113.573 67.3838 113.236 66.439 113.236 65.2573V65.0083C113.236 64.2222 113.385 63.5215 113.683 62.9062C113.985 62.2861 114.405 61.8027 114.942 61.4561C115.484 61.1045 116.07 60.9287 116.7 60.9287C117.73 60.9287 118.531 61.2681 119.103 61.9468C119.674 62.6255 119.959 63.5972 119.959 64.8618V65.4258H114.591C114.61 66.207 114.837 66.8394 115.272 67.3228C115.711 67.8013 116.268 68.0405 116.942 68.0405C117.42 68.0405 117.826 67.9429 118.158 67.7476C118.49 67.5522 118.78 67.2935 119.029 66.9712L119.857 67.6157C119.193 68.6362 118.197 69.1465 116.869 69.1465ZM116.7 62.042C116.153 62.042 115.694 62.2422 115.323 62.6426C114.952 63.0381 114.723 63.5947 114.635 64.3125H118.604V64.21C118.565 63.5215 118.38 62.9893 118.048 62.6133C117.716 62.2324 117.267 62.042 116.7 62.042ZM127.467 65.3306L126.617 66.2168V69H125.262V57.75H126.617V64.5542L127.342 63.6826L129.811 61.0752H131.458L128.375 64.3857L131.817 69H130.228L127.467 65.3306ZM132.499 64.9644C132.499 64.188 132.65 63.4897 132.953 62.8696C133.26 62.2495 133.685 61.771 134.227 61.4341C134.774 61.0972 135.396 60.9287 136.095 60.9287C137.174 60.9287 138.045 61.3022 138.709 62.0493C139.378 62.7964 139.713 63.79 139.713 65.0303V65.1255C139.713 65.897 139.564 66.5903 139.266 67.2056C138.973 67.8159 138.551 68.292 137.999 68.6338C137.452 68.9756 136.822 69.1465 136.109 69.1465C135.035 69.1465 134.164 68.7729 133.495 68.0259C132.831 67.2788 132.499 66.29 132.499 65.0596V64.9644ZM133.861 65.1255C133.861 66.0044 134.063 66.71 134.469 67.2422C134.879 67.7744 135.426 68.0405 136.109 68.0405C136.798 68.0405 137.345 67.772 137.75 67.2349C138.155 66.6929 138.358 65.936 138.358 64.9644C138.358 64.0952 138.15 63.3921 137.735 62.855C137.325 62.313 136.778 62.042 136.095 62.042C135.426 62.042 134.886 62.3081 134.476 62.8403C134.066 63.3726 133.861 64.1343 133.861 65.1255ZM146.026 66.8979C146.026 66.5317 145.887 66.2485 145.609 66.0483C145.335 65.8433 144.854 65.6675 144.166 65.521C143.482 65.3745 142.938 65.1987 142.533 64.9937C142.132 64.7886 141.834 64.5444 141.639 64.2612C141.449 63.978 141.354 63.6411 141.354 63.2505C141.354 62.6011 141.627 62.0518 142.174 61.6025C142.726 61.1533 143.429 60.9287 144.283 60.9287C145.182 60.9287 145.909 61.1606 146.466 61.6245C147.027 62.0884 147.308 62.6816 147.308 63.4043H145.946C145.946 63.0332 145.787 62.7134 145.47 62.4448C145.157 62.1763 144.762 62.042 144.283 62.042C143.79 62.042 143.404 62.1494 143.126 62.3643C142.848 62.5791 142.708 62.8599 142.708 63.2065C142.708 63.5337 142.838 63.7803 143.097 63.9463C143.355 64.1123 143.822 64.271 144.496 64.4224C145.174 64.5737 145.724 64.7544 146.144 64.9644C146.563 65.1743 146.874 65.4282 147.074 65.7261C147.279 66.019 147.381 66.3779 147.381 66.8027C147.381 67.5107 147.098 68.0796 146.532 68.5093C145.965 68.9341 145.23 69.1465 144.327 69.1465C143.692 69.1465 143.131 69.0342 142.643 68.8096C142.154 68.585 141.771 68.2725 141.493 67.8721C141.219 67.4668 141.083 67.0298 141.083 66.561H142.438C142.462 67.0151 142.643 67.3765 142.979 67.645C143.321 67.9087 143.771 68.0405 144.327 68.0405C144.84 68.0405 145.25 67.938 145.558 67.7329C145.87 67.5229 146.026 67.2446 146.026 66.8979ZM150.985 59.1562V61.0752H152.464V62.1226H150.985V67.0371C150.985 67.3545 151.051 67.5938 151.183 67.7549C151.314 67.9111 151.539 67.9893 151.856 67.9893C152.013 67.9893 152.228 67.96 152.501 67.9014V69C152.145 69.0977 151.798 69.1465 151.461 69.1465C150.855 69.1465 150.399 68.9634 150.091 68.5972C149.784 68.231 149.63 67.7109 149.63 67.0371V62.1226H148.187V61.0752H149.63V59.1562H150.985ZM155.335 61.0752L155.379 62.0713C155.985 61.3096 156.776 60.9287 157.752 60.9287C159.427 60.9287 160.272 61.8735 160.287 63.7632V69H158.932V63.7559C158.927 63.1846 158.795 62.7622 158.536 62.4888C158.282 62.2153 157.884 62.0786 157.342 62.0786C156.903 62.0786 156.517 62.1958 156.185 62.4302C155.853 62.6646 155.594 62.9722 155.409 63.353V69H154.054V61.0752H155.335ZM167.223 69C167.145 68.8438 167.081 68.5654 167.032 68.165C166.402 68.8193 165.65 69.1465 164.776 69.1465C163.995 69.1465 163.353 68.9268 162.85 68.4873C162.352 68.043 162.103 67.4814 162.103 66.8027C162.103 65.9775 162.416 65.3379 163.041 64.8838C163.67 64.4248 164.554 64.1953 165.692 64.1953H167.01V63.5728C167.01 63.0991 166.869 62.7231 166.585 62.4448C166.302 62.1616 165.885 62.02 165.333 62.02C164.85 62.02 164.444 62.1421 164.117 62.3862C163.79 62.6304 163.626 62.9258 163.626 63.2725H162.264C162.264 62.877 162.403 62.4961 162.682 62.1299C162.965 61.7588 163.346 61.4658 163.824 61.251C164.308 61.0361 164.837 60.9287 165.414 60.9287C166.327 60.9287 167.042 61.1582 167.56 61.6172C168.077 62.0713 168.346 62.6987 168.365 63.4995V67.147C168.365 67.8745 168.458 68.4531 168.644 68.8828V69H167.223ZM164.974 67.9673C165.399 67.9673 165.802 67.8574 166.183 67.6377C166.563 67.418 166.839 67.1323 167.01 66.7808V65.1548H165.948C164.288 65.1548 163.458 65.6406 163.458 66.6123C163.458 67.0371 163.6 67.3691 163.883 67.6084C164.166 67.8477 164.53 67.9673 164.974 67.9673ZM170.16 64.9717C170.16 63.7559 170.448 62.7793 171.024 62.042C171.6 61.2998 172.354 60.9287 173.287 60.9287C174.215 60.9287 174.95 61.2461 175.492 61.8809V57.75H176.847V69H175.602L175.536 68.1504C174.994 68.8145 174.239 69.1465 173.272 69.1465C172.354 69.1465 171.605 68.7705 171.024 68.0186C170.448 67.2666 170.16 66.2852 170.16 65.0742V64.9717ZM171.515 65.1255C171.515 66.0239 171.7 66.7271 172.071 67.2349C172.442 67.7427 172.955 67.9966 173.609 67.9966C174.469 67.9966 175.096 67.6108 175.492 66.8394V63.1992C175.086 62.4521 174.464 62.0786 173.624 62.0786C172.96 62.0786 172.442 62.335 172.071 62.8477C171.7 63.3604 171.515 64.1196 171.515 65.1255ZM182.245 69.1465C181.17 69.1465 180.296 68.7949 179.623 68.0918C178.949 67.3838 178.612 66.439 178.612 65.2573V65.0083C178.612 64.2222 178.761 63.5215 179.059 62.9062C179.361 62.2861 179.781 61.8027 180.318 61.4561C180.86 61.1045 181.446 60.9287 182.076 60.9287C183.106 60.9287 183.907 61.2681 184.479 61.9468C185.05 62.6255 185.335 63.5972 185.335 64.8618V65.4258H179.967C179.986 66.207 180.213 66.8394 180.648 67.3228C181.087 67.8013 181.644 68.0405 182.318 68.0405C182.796 68.0405 183.202 67.9429 183.534 67.7476C183.866 67.5522 184.156 67.2935 184.405 66.9712L185.233 67.6157C184.569 68.6362 183.573 69.1465 182.245 69.1465ZM182.076 62.042C181.529 62.042 181.07 62.2422 180.699 62.6426C180.328 63.0381 180.099 63.5947 180.011 64.3125H183.98V64.21C183.941 63.5215 183.756 62.9893 183.424 62.6133C183.092 62.2324 182.643 62.042 182.076 62.042ZM190.741 62.291C190.536 62.2568 190.313 62.2397 190.074 62.2397C189.186 62.2397 188.583 62.6182 188.265 63.375V69H186.91V61.0752H188.229L188.25 61.9907C188.695 61.2827 189.325 60.9287 190.14 60.9287C190.404 60.9287 190.604 60.9629 190.741 61.0312V62.291ZM191.114 68.2896C191.114 68.0552 191.183 67.8599 191.319 67.7036C191.461 67.5474 191.671 67.4692 191.949 67.4692C192.228 67.4692 192.438 67.5474 192.579 67.7036C192.726 67.8599 192.799 68.0552 192.799 68.2896C192.799 68.5142 192.726 68.7021 192.579 68.8535C192.438 69.0049 192.228 69.0806 191.949 69.0806C191.671 69.0806 191.461 69.0049 191.319 68.8535C191.183 68.7021 191.114 68.5142 191.114 68.2896ZM198.973 69V58.3359H201.983C202.911 58.3359 203.731 58.541 204.444 58.9512C205.157 59.3613 205.707 59.9448 206.092 60.7017C206.483 61.4585 206.681 62.3276 206.686 63.3091V63.9902C206.686 64.9961 206.49 65.8774 206.1 66.6343C205.714 67.3911 205.16 67.9722 204.437 68.3774C203.719 68.7827 202.882 68.9902 201.925 69H198.973ZM200.379 59.4932V67.8501H201.859C202.943 67.8501 203.785 67.5132 204.386 66.8394C204.991 66.1655 205.294 65.2061 205.294 63.9609V63.3384C205.294 62.1274 205.008 61.1875 204.437 60.5186C203.871 59.8447 203.065 59.5029 202.02 59.4932H200.379ZM211.893 69.1465C210.819 69.1465 209.945 68.7949 209.271 68.0918C208.597 67.3838 208.26 66.439 208.26 65.2573V65.0083C208.26 64.2222 208.409 63.5215 208.707 62.9062C209.01 62.2861 209.43 61.8027 209.967 61.4561C210.509 61.1045 211.095 60.9287 211.725 60.9287C212.755 60.9287 213.556 61.2681 214.127 61.9468C214.698 62.6255 214.984 63.5972 214.984 64.8618V65.4258H209.615C209.635 66.207 209.862 66.8394 210.296 67.3228C210.736 67.8013 211.292 68.0405 211.966 68.0405C212.445 68.0405 212.85 67.9429 213.182 67.7476C213.514 67.5522 213.805 67.2935 214.054 66.9712L214.881 67.6157C214.217 68.6362 213.221 69.1465 211.893 69.1465ZM211.725 62.042C211.178 62.042 210.719 62.2422 210.348 62.6426C209.977 63.0381 209.747 63.5947 209.659 64.3125H213.629V64.21C213.59 63.5215 213.404 62.9893 213.072 62.6133C212.74 62.2324 212.291 62.042 211.725 62.042ZM218.397 59.1562V61.0752H219.876V62.1226H218.397V67.0371C218.397 67.3545 218.463 67.5938 218.595 67.7549C218.727 67.9111 218.951 67.9893 219.269 67.9893C219.425 67.9893 219.64 67.96 219.913 67.9014V69C219.557 69.0977 219.21 69.1465 218.873 69.1465C218.268 69.1465 217.811 68.9634 217.503 68.5972C217.196 68.231 217.042 67.7109 217.042 67.0371V62.1226H215.599V61.0752H217.042V59.1562H218.397ZM230.079 69C230.001 68.8438 229.938 68.5654 229.889 68.165C229.259 68.8193 228.507 69.1465 227.633 69.1465C226.852 69.1465 226.209 68.9268 225.707 68.4873C225.208 68.043 224.959 67.4814 224.959 66.8027C224.959 65.9775 225.272 65.3379 225.897 64.8838C226.527 64.4248 227.411 64.1953 228.548 64.1953H229.867V63.5728C229.867 63.0991 229.725 62.7231 229.442 62.4448C229.159 62.1616 228.741 62.02 228.189 62.02C227.706 62.02 227.301 62.1421 226.974 62.3862C226.646 62.6304 226.483 62.9258 226.483 63.2725H225.121C225.121 62.877 225.26 62.4961 225.538 62.1299C225.821 61.7588 226.202 61.4658 226.681 61.251C227.164 61.0361 227.694 60.9287 228.27 60.9287C229.183 60.9287 229.898 61.1582 230.416 61.6172C230.934 62.0713 231.202 62.6987 231.222 63.4995V67.147C231.222 67.8745 231.314 68.4531 231.5 68.8828V69H230.079ZM227.831 67.9673C228.255 67.9673 228.658 67.8574 229.039 67.6377C229.42 67.418 229.696 67.1323 229.867 66.7808V65.1548H228.805C227.145 65.1548 226.314 65.6406 226.314 66.6123C226.314 67.0371 226.456 67.3691 226.739 67.6084C227.022 67.8477 227.386 67.9673 227.831 67.9673ZM226.058 58.9585C226.058 58.7388 226.124 58.5557 226.256 58.4092C226.393 58.2578 226.593 58.1821 226.856 58.1821C227.12 58.1821 227.32 58.2578 227.457 58.4092C227.594 58.5557 227.662 58.7388 227.662 58.9585C227.662 59.1782 227.594 59.3613 227.457 59.5078C227.32 59.6543 227.12 59.7275 226.856 59.7275C226.593 59.7275 226.393 59.6543 226.256 59.5078C226.124 59.3613 226.058 59.1782 226.058 58.9585ZM229.208 58.9731C229.208 58.7534 229.273 58.5679 229.405 58.4165C229.542 58.2651 229.742 58.1895 230.006 58.1895C230.27 58.1895 230.47 58.2651 230.606 58.4165C230.743 58.5679 230.812 58.7534 230.812 58.9731C230.812 59.1929 230.743 59.376 230.606 59.5225C230.47 59.6689 230.27 59.7422 230.006 59.7422C229.742 59.7422 229.542 59.6689 229.405 59.5225C229.273 59.376 229.208 59.1929 229.208 58.9731ZM237.176 62.291C236.971 62.2568 236.749 62.2397 236.51 62.2397C235.621 62.2397 235.018 62.6182 234.701 63.375V69H233.346V61.0752H234.664L234.686 61.9907C235.13 61.2827 235.76 60.9287 236.576 60.9287C236.839 60.9287 237.04 60.9629 237.176 61.0312V62.291ZM62.6401 88.1616L64.603 82.0752H65.9873L63.1455 90H62.1128L59.2417 82.0752H60.626L62.6401 88.1616ZM72.0664 90C71.9883 89.8438 71.9248 89.5654 71.876 89.165C71.2461 89.8193 70.4941 90.1465 69.6201 90.1465C68.8389 90.1465 68.1968 89.9268 67.6938 89.4873C67.1958 89.043 66.9468 88.4814 66.9468 87.8027C66.9468 86.9775 67.2593 86.3379 67.8843 85.8838C68.5142 85.4248 69.3979 85.1953 70.5356 85.1953H71.854V84.5728C71.854 84.0991 71.7124 83.7231 71.4292 83.4448C71.146 83.1616 70.7285 83.02 70.1768 83.02C69.6934 83.02 69.2881 83.1421 68.9609 83.3862C68.6338 83.6304 68.4702 83.9258 68.4702 84.2725H67.1079C67.1079 83.877 67.2471 83.4961 67.5254 83.1299C67.8086 82.7588 68.1895 82.4658 68.668 82.251C69.1514 82.0361 69.6812 81.9287 70.2573 81.9287C71.1704 81.9287 71.8857 82.1582 72.4033 82.6172C72.9209 83.0713 73.1895 83.6987 73.209 84.4995V88.147C73.209 88.8745 73.3018 89.4531 73.4873 89.8828V90H72.0664ZM69.8179 88.9673C70.2427 88.9673 70.6455 88.8574 71.0264 88.6377C71.4072 88.418 71.6831 88.1323 71.854 87.7808V86.1548H70.792C69.1318 86.1548 68.3018 86.6406 68.3018 87.6123C68.3018 88.0371 68.4434 88.3691 68.7266 88.6084C69.0098 88.8477 69.3735 88.9673 69.8179 88.9673ZM68.0454 79.9585C68.0454 79.7388 68.1113 79.5557 68.2432 79.4092C68.3799 79.2578 68.5801 79.1821 68.8438 79.1821C69.1074 79.1821 69.3076 79.2578 69.4443 79.4092C69.5811 79.5557 69.6494 79.7388 69.6494 79.9585C69.6494 80.1782 69.5811 80.3613 69.4443 80.5078C69.3076 80.6543 69.1074 80.7275 68.8438 80.7275C68.5801 80.7275 68.3799 80.6543 68.2432 80.5078C68.1113 80.3613 68.0454 80.1782 68.0454 79.9585ZM71.1948 79.9731C71.1948 79.7534 71.2607 79.5679 71.3926 79.4165C71.5293 79.2651 71.7295 79.1895 71.9932 79.1895C72.2568 79.1895 72.457 79.2651 72.5938 79.4165C72.7305 79.5679 72.7988 79.7534 72.7988 79.9731C72.7988 80.1929 72.7305 80.376 72.5938 80.5225C72.457 80.6689 72.2568 80.7422 71.9932 80.7422C71.7295 80.7422 71.5293 80.6689 71.3926 80.5225C71.2607 80.376 71.1948 80.1929 71.1948 79.9731ZM76.8052 90H75.4502V78.75H76.8052V90ZM78.6509 85.9717C78.6509 84.7559 78.939 83.7793 79.5151 83.042C80.0913 82.2998 80.8457 81.9287 81.7783 81.9287C82.7061 81.9287 83.4409 82.2461 83.9829 82.8809V78.75H85.3379V90H84.0928L84.0269 89.1504C83.4849 89.8145 82.7305 90.1465 81.7637 90.1465C80.8457 90.1465 80.0962 89.7705 79.5151 89.0186C78.939 88.2666 78.6509 87.2852 78.6509 86.0742V85.9717ZM80.0059 86.1255C80.0059 87.0239 80.1914 87.7271 80.5625 88.2349C80.9336 88.7427 81.4463 88.9966 82.1006 88.9966C82.96 88.9966 83.5874 88.6108 83.9829 87.8394V84.1992C83.5776 83.4521 82.9551 83.0786 82.1152 83.0786C81.4512 83.0786 80.9336 83.335 80.5625 83.8477C80.1914 84.3604 80.0059 85.1196 80.0059 86.1255ZM88.9194 90H87.5645V82.0752H88.9194V90ZM87.4546 79.9731C87.4546 79.7534 87.5205 79.5679 87.6523 79.4165C87.7891 79.2651 87.9893 79.1895 88.2529 79.1895C88.5166 79.1895 88.7168 79.2651 88.8535 79.4165C88.9902 79.5679 89.0586 79.7534 89.0586 79.9731C89.0586 80.1929 88.9902 80.376 88.8535 80.5225C88.7168 80.6689 88.5166 80.7422 88.2529 80.7422C87.9893 80.7422 87.7891 80.6689 87.6523 80.5225C87.5205 80.376 87.4546 80.1929 87.4546 79.9731ZM90.7725 85.9717C90.7725 84.7363 91.0581 83.7549 91.6294 83.0273C92.2007 82.2949 92.9575 81.9287 93.8999 81.9287C94.8667 81.9287 95.6211 82.2705 96.1631 82.9541L96.229 82.0752H97.4668V89.8096C97.4668 90.835 97.1616 91.6431 96.5513 92.2339C95.9458 92.8247 95.1304 93.1201 94.105 93.1201C93.5337 93.1201 92.9746 92.998 92.4277 92.7539C91.8809 92.5098 91.4634 92.1753 91.1753 91.7505L91.8784 90.9375C92.4595 91.6553 93.1699 92.0142 94.0098 92.0142C94.6689 92.0142 95.1816 91.8286 95.5479 91.4575C95.9189 91.0864 96.1045 90.564 96.1045 89.8901V89.209C95.5625 89.834 94.8228 90.1465 93.8853 90.1465C92.9575 90.1465 92.2056 89.7729 91.6294 89.0259C91.0581 88.2788 90.7725 87.2607 90.7725 85.9717ZM92.1348 86.1255C92.1348 87.019 92.3179 87.7222 92.6841 88.2349C93.0503 88.7427 93.563 88.9966 94.2222 88.9966C95.0767 88.9966 95.7041 88.6084 96.1045 87.832V84.2139C95.6895 83.457 95.0669 83.0786 94.2368 83.0786C93.5776 83.0786 93.0625 83.335 92.6914 83.8477C92.3203 84.3604 92.1348 85.1196 92.1348 86.1255ZM101.356 80.1562V82.0752H102.835V83.1226H101.356V88.0371C101.356 88.3545 101.422 88.5938 101.554 88.7549C101.686 88.9111 101.91 88.9893 102.228 88.9893C102.384 88.9893 102.599 88.96 102.872 88.9014V90C102.516 90.0977 102.169 90.1465 101.832 90.1465C101.227 90.1465 100.77 89.9634 100.462 89.5972C100.155 89.231 100.001 88.7109 100.001 88.0371V83.1226H98.5581V82.0752H100.001V80.1562H101.356ZM114.854 86.1255C114.854 87.3364 114.576 88.3105 114.02 89.0479C113.463 89.7803 112.716 90.1465 111.778 90.1465C110.777 90.1465 110.003 89.7925 109.457 89.0845L109.391 90H108.146V78.75H109.5V82.9468C110.047 82.2681 110.802 81.9287 111.764 81.9287C112.726 81.9287 113.48 82.2925 114.027 83.02C114.579 83.7476 114.854 84.7437 114.854 86.0083V86.1255ZM113.5 85.9717C113.5 85.0488 113.321 84.3359 112.965 83.833C112.608 83.3301 112.096 83.0786 111.427 83.0786C110.533 83.0786 109.891 83.4937 109.5 84.3237V87.7515C109.916 88.5815 110.562 88.9966 111.441 88.9966C112.091 88.9966 112.596 88.7451 112.958 88.2422C113.319 87.7393 113.5 86.9824 113.5 85.9717ZM120.399 83.291C120.194 83.2568 119.972 83.2397 119.732 83.2397C118.844 83.2397 118.241 83.6182 117.923 84.375V90H116.568V82.0752H117.887L117.909 82.9907C118.353 82.2827 118.983 81.9287 119.798 81.9287C120.062 81.9287 120.262 81.9629 120.399 82.0312V83.291ZM126.251 90C126.173 89.8438 126.109 89.5654 126.061 89.165C125.431 89.8193 124.679 90.1465 123.805 90.1465C123.023 90.1465 122.381 89.9268 121.878 89.4873C121.38 89.043 121.131 88.4814 121.131 87.8027C121.131 86.9775 121.444 86.3379 122.069 85.8838C122.699 85.4248 123.583 85.1953 124.72 85.1953H126.039V84.5728C126.039 84.0991 125.897 83.7231 125.614 83.4448C125.331 83.1616 124.913 83.02 124.361 83.02C123.878 83.02 123.473 83.1421 123.146 83.3862C122.818 83.6304 122.655 83.9258 122.655 84.2725H121.292C121.292 83.877 121.432 83.4961 121.71 83.1299C121.993 82.7588 122.374 82.4658 122.853 82.251C123.336 82.0361 123.866 81.9287 124.442 81.9287C125.355 81.9287 126.07 82.1582 126.588 82.6172C127.105 83.0713 127.374 83.6987 127.394 84.4995V88.147C127.394 88.8745 127.486 89.4531 127.672 89.8828V90H126.251ZM124.002 88.9673C124.427 88.9673 124.83 88.8574 125.211 88.6377C125.592 88.418 125.868 88.1323 126.039 87.7808V86.1548H124.977C123.316 86.1548 122.486 86.6406 122.486 87.6123C122.486 88.0371 122.628 88.3691 122.911 88.6084C123.194 88.8477 123.558 88.9673 124.002 88.9673ZM129.547 89.2896C129.547 89.0552 129.615 88.8599 129.752 88.7036C129.894 88.5474 130.104 88.4692 130.382 88.4692C130.66 88.4692 130.87 88.5474 131.012 88.7036C131.158 88.8599 131.231 89.0552 131.231 89.2896C131.231 89.5142 131.158 89.7021 131.012 89.8535C130.87 90.0049 130.66 90.0806 130.382 90.0806C130.104 90.0806 129.894 90.0049 129.752 89.8535C129.615 89.7021 129.547 89.5142 129.547 89.2896Z"/><path fill="#222" d="M164.426 85.3931L163.218 86.6748V90H161.365V79.3359H163.218V84.3384L164.243 83.0713L167.363 79.3359H169.605L165.642 84.0601L169.832 90H167.634L164.426 85.3931ZM172.549 90H170.769V78.75H172.549V90ZM176.387 90H174.607V82.0752H176.387V90ZM174.497 80.0171C174.497 79.7437 174.583 79.5166 174.753 79.3359C174.929 79.1553 175.178 79.0649 175.501 79.0649C175.823 79.0649 176.072 79.1553 176.248 79.3359C176.423 79.5166 176.511 79.7437 176.511 80.0171C176.511 80.2856 176.423 80.5103 176.248 80.6909C176.072 80.8667 175.823 80.9546 175.501 80.9546C175.178 80.9546 174.929 80.8667 174.753 80.6909C174.583 80.5103 174.497 80.2856 174.497 80.0171ZM181.587 88.7256C182.031 88.7256 182.4 88.5962 182.693 88.3374C182.986 88.0786 183.142 87.7588 183.162 87.3779H184.839C184.819 87.8711 184.666 88.3325 184.378 88.7622C184.089 89.187 183.699 89.5239 183.206 89.7729C182.712 90.022 182.18 90.1465 181.609 90.1465C180.501 90.1465 179.622 89.7876 178.972 89.0698C178.323 88.3521 177.998 87.3608 177.998 86.0962V85.9131C177.998 84.707 178.32 83.7427 178.965 83.02C179.609 82.2925 180.488 81.9287 181.602 81.9287C182.544 81.9287 183.311 82.2046 183.901 82.7563C184.497 83.3032 184.81 84.0234 184.839 84.917H183.162C183.142 84.4629 182.986 84.0894 182.693 83.7964C182.405 83.5034 182.036 83.3569 181.587 83.3569C181.011 83.3569 180.566 83.5669 180.254 83.9868C179.941 84.4019 179.783 85.0342 179.778 85.8838V86.1694C179.778 87.0288 179.932 87.6709 180.239 88.0957C180.552 88.5156 181.001 88.7256 181.587 88.7256ZM188.757 86.6016L187.966 87.4146V90H186.187V78.75H187.966V85.2393L188.523 84.5435L190.713 82.0752H192.852L189.907 85.3784L193.167 90H191.108L188.757 86.6016ZM198.755 90C198.677 89.8486 198.608 89.6021 198.55 89.2603C197.983 89.8511 197.29 90.1465 196.47 90.1465C195.674 90.1465 195.024 89.9194 194.522 89.4653C194.019 89.0112 193.767 88.4497 193.767 87.7808C193.767 86.936 194.08 86.2891 194.705 85.8398C195.335 85.3857 196.233 85.1587 197.4 85.1587H198.491V84.6387C198.491 84.2285 198.377 83.9014 198.147 83.6572C197.918 83.4082 197.568 83.2837 197.1 83.2837C196.694 83.2837 196.362 83.3862 196.104 83.5913C195.845 83.7915 195.715 84.0479 195.715 84.3604H193.936C193.936 83.9258 194.08 83.5205 194.368 83.1445C194.656 82.7637 195.046 82.4658 195.54 82.251C196.038 82.0361 196.592 81.9287 197.202 81.9287C198.13 81.9287 198.87 82.1631 199.421 82.6318C199.973 83.0957 200.256 83.75 200.271 84.5947V88.1689C200.271 88.8818 200.371 89.4507 200.571 89.8755V90H198.755ZM196.799 88.7183C197.151 88.7183 197.481 88.6328 197.788 88.4619C198.101 88.291 198.335 88.0615 198.491 87.7734V86.2793H197.532C196.873 86.2793 196.377 86.394 196.045 86.6235C195.713 86.853 195.547 87.1777 195.547 87.5977C195.547 87.9395 195.659 88.2129 195.884 88.418C196.113 88.6182 196.419 88.7183 196.799 88.7183ZM212.81 86.1182C212.81 87.3438 212.532 88.3228 211.975 89.0552C211.419 89.7827 210.671 90.1465 209.734 90.1465C208.865 90.1465 208.169 89.8608 207.647 89.2896V93.0469H205.867V82.0752H207.507L207.581 82.8809C208.103 82.2461 208.814 81.9287 209.712 81.9287C210.679 81.9287 211.436 82.29 211.982 83.0127C212.534 83.7305 212.81 84.729 212.81 86.0083V86.1182ZM211.038 85.9644C211.038 85.1733 210.879 84.5459 210.562 84.082C210.249 83.6182 209.8 83.3862 209.214 83.3862C208.486 83.3862 207.964 83.6865 207.647 84.2871V87.8027C207.969 88.418 208.496 88.7256 209.229 88.7256C209.795 88.7256 210.237 88.4985 210.554 88.0444C210.877 87.5854 211.038 86.8921 211.038 85.9644ZM219.058 90C218.98 89.8486 218.911 89.6021 218.853 89.2603C218.286 89.8511 217.593 90.1465 216.773 90.1465C215.977 90.1465 215.327 89.9194 214.824 89.4653C214.321 89.0112 214.07 88.4497 214.07 87.7808C214.07 86.936 214.382 86.2891 215.007 85.8398C215.637 85.3857 216.536 85.1587 217.703 85.1587H218.794V84.6387C218.794 84.2285 218.679 83.9014 218.45 83.6572C218.22 83.4082 217.871 83.2837 217.402 83.2837C216.997 83.2837 216.665 83.3862 216.406 83.5913C216.148 83.7915 216.018 84.0479 216.018 84.3604H214.238C214.238 83.9258 214.382 83.5205 214.67 83.1445C214.959 82.7637 215.349 82.4658 215.842 82.251C216.34 82.0361 216.895 81.9287 217.505 81.9287C218.433 81.9287 219.172 82.1631 219.724 82.6318C220.276 83.0957 220.559 83.75 220.574 84.5947V88.1689C220.574 88.8818 220.674 89.4507 220.874 89.8755V90H219.058ZM217.102 88.7183C217.454 88.7183 217.783 88.6328 218.091 88.4619C218.403 88.291 218.638 88.0615 218.794 87.7734V86.2793H217.835C217.175 86.2793 216.68 86.394 216.348 86.6235C216.016 86.853 215.85 87.1777 215.85 87.5977C215.85 87.9395 215.962 88.2129 216.187 88.418C216.416 88.6182 216.721 88.7183 217.102 88.7183ZM217.571 78.0615C218.025 78.0615 218.408 78.2129 218.721 78.5156C219.033 78.8135 219.19 79.1699 219.19 79.585C219.19 80 219.036 80.354 218.728 80.647C218.425 80.9399 218.04 81.0864 217.571 81.0864C217.097 81.0864 216.707 80.9399 216.399 80.647C216.096 80.354 215.945 80 215.945 79.585C215.945 79.1699 216.099 78.8135 216.406 78.5156C216.719 78.2129 217.107 78.0615 217.571 78.0615ZM216.751 79.585C216.751 79.8145 216.831 80.0098 216.992 80.1709C217.153 80.3271 217.346 80.4053 217.571 80.4053C217.8 80.4053 217.993 80.3271 218.149 80.1709C218.311 80.0146 218.391 79.8193 218.391 79.585C218.391 79.3604 218.313 79.1675 218.157 79.0063C218.005 78.8403 217.81 78.7573 217.571 78.7573C217.332 78.7573 217.134 78.8403 216.978 79.0063C216.826 79.1675 216.751 79.3604 216.751 79.585ZM227.847 82.0752L227.898 82.9028C228.455 82.2534 229.216 81.9287 230.183 81.9287C231.243 81.9287 231.968 82.334 232.358 83.1445C232.935 82.334 233.745 81.9287 234.79 81.9287C235.664 81.9287 236.314 82.1704 236.738 82.6538C237.168 83.1372 237.388 83.8501 237.398 84.7925V90H235.618V84.8438C235.618 84.3408 235.508 83.9722 235.288 83.7378C235.068 83.5034 234.705 83.3862 234.197 83.3862C233.792 83.3862 233.46 83.4961 233.201 83.7158C232.947 83.9307 232.769 84.2139 232.666 84.5654L232.673 90H230.894V84.7852C230.869 83.8525 230.393 83.3862 229.465 83.3862C228.753 83.3862 228.247 83.6768 227.949 84.2578V90H226.169V82.0752H227.847ZM241.118 90H239.338V82.0752H241.118V90ZM239.229 80.0171C239.229 79.7437 239.314 79.5166 239.485 79.3359C239.661 79.1553 239.91 79.0649 240.232 79.0649C240.554 79.0649 240.803 79.1553 240.979 79.3359C241.155 79.5166 241.243 79.7437 241.243 80.0171C241.243 80.2856 241.155 80.5103 240.979 80.6909C240.803 80.8667 240.554 80.9546 240.232 80.9546C239.91 80.9546 239.661 80.8667 239.485 80.6909C239.314 80.5103 239.229 80.2856 239.229 80.0171ZM242.752 85.979C242.752 84.7485 243.04 83.7671 243.616 83.0347C244.197 82.2974 244.966 81.9287 245.923 81.9287C246.826 81.9287 247.537 82.2437 248.054 82.8735L248.135 82.0752H249.739V89.7583C249.739 90.7983 249.414 91.6187 248.765 92.2192C248.12 92.8198 247.249 93.1201 246.15 93.1201C245.569 93.1201 245 92.998 244.443 92.7539C243.892 92.5146 243.472 92.1997 243.184 91.8091L244.026 90.7397C244.573 91.3892 245.247 91.7139 246.047 91.7139C246.638 91.7139 247.105 91.5527 247.446 91.2305C247.788 90.9131 247.959 90.4443 247.959 89.8242V89.2896C247.446 89.8608 246.763 90.1465 245.908 90.1465C244.981 90.1465 244.221 89.7778 243.63 89.0405C243.044 88.3032 242.752 87.2827 242.752 85.979ZM244.524 86.1328C244.524 86.9287 244.685 87.5562 245.007 88.0151C245.335 88.4692 245.786 88.6963 246.362 88.6963C247.08 88.6963 247.612 88.3887 247.959 87.7734V84.2871C247.622 83.6865 247.095 83.3862 246.377 83.3862C245.791 83.3862 245.335 83.6182 245.007 84.082C244.685 84.5459 244.524 85.2295 244.524 86.1328Z"/><path fill="#222" fill-rule="evenodd" d="M150.551 79.24L149.281 78.29C148.998 78.0671 148.638 77.9663 148.281 78.01C147.924 78.0445 147.598 78.2257 147.381 78.51L140.741 87.1V87.17C140.673 87.2398 140.625 87.3259 140.601 87.42V87.51V87.62L139.601 91.24C139.535 91.4732 139.618 91.7231 139.811 91.87C139.915 91.955 140.046 92.0009 140.181 92C140.283 91.9984 140.383 91.9709 140.471 91.92L143.701 90.09C143.733 90.0618 143.763 90.0317 143.791 90C143.865 89.9569 143.93 89.899 143.981 89.83C143.981 89.83 144.041 89.83 144.061 89.76L149.151 83.23C149.263 83.0933 149.311 82.9145 149.281 82.74C149.262 82.581 149.179 82.4366 149.051 82.34L147.151 80.84L148.391 79.25C148.417 79.2231 148.453 79.208 148.491 79.208C148.528 79.208 148.565 79.2231 148.591 79.25L149.811 80.25C149.862 80.3069 149.862 80.3931 149.811 80.45C149.712 80.5751 149.667 80.735 149.688 80.8933C149.709 81.0516 149.793 81.1947 149.921 81.29C150.183 81.491 150.559 81.4418 150.761 81.18C151.001 80.8993 151.115 80.5319 151.075 80.1646C151.035 79.7974 150.846 79.4628 150.551 79.24ZM141.281 89.23L141.861 89.68L141.021 90.16L141.281 89.23ZM143.091 89L147.871 82.92L146.411 81.78L141.731 87.82C141.671 87.92 141.681 88 141.731 88L142.991 89C143.023 89.0123 143.059 89.0123 143.091 89Z" clip-rule="evenodd"/></g><defs><clipPath id="clip0"><rect width="312" height="128" fill="#fff"/></clipPath></defs></svg>