<svg xmlns="http://www.w3.org/2000/svg" width="312" height="128" fill="none" viewBox="0 0 312 128"><path fill="#fff" fill-rule="evenodd" stroke="#DEDEDE" d="M222 48.2695C230.837 48.2695 238 55.433 238 64.2695V64.2695C238 73.1061 230.837 80.2695 222 80.2695V80.2695C213.163 80.2695 206 73.1061 206 64.2695V64.2695C206 55.433 213.163 48.2695 222 48.2695V48.2695Z" clip-rule="evenodd"/><path fill="#fff" fill-rule="evenodd" stroke="#DEDEDE" d="M178 48C186.837 48 194 55.1634 194 64V64C194 72.8366 186.837 80 178 80V80C169.163 80 162 72.8366 162 64V64C162 55.1634 169.163 48 178 48V48Z" clip-rule="evenodd"/><path fill="#fff" fill-rule="evenodd" stroke="#DEDEDE" d="M134 48C142.837 48 150 55.1634 150 64V64C150 72.8366 142.837 80 134 80V80C125.163 80 118 72.8366 118 64V64C118 55.1634 125.163 48 134 48V48Z" clip-rule="evenodd"/><path fill="#fff" fill-rule="evenodd" stroke="#DEDEDE" d="M90 48C98.8366 48 106 55.1634 106 64V64C106 72.8366 98.8366 80 90 80V80C81.1634 80 74 72.8366 74 64V64C74 55.1634 81.1634 48 90 48V48Z" clip-rule="evenodd"/><path fill="#000" d="M83.6 61.6392H95L93.65 62.9492C93.5033 63.1243 93.4666 63.3667 93.5551 63.5773C93.6435 63.7879 93.8423 63.9314 94.07 63.9492C94.2317 63.9496 94.3868 63.8847 94.5 63.7692L96.82 61.4492C96.8757 61.3914 96.9198 61.3236 96.95 61.2492C97.01 61.1018 97.01 60.9367 96.95 60.7892C96.922 60.7166 96.8775 60.6516 96.82 60.5992L94.5 58.2892C94.3482 58.1374 94.1269 58.0781 93.9194 58.1337C93.712 58.1892 93.55 58.3512 93.4944 58.5587C93.4389 58.7661 93.4982 58.9874 93.65 59.1392L95 60.4392H83.6C83.2686 60.4392 83 60.7078 83 61.0392C83 61.3706 83.2686 61.6392 83.6 61.6392Z"/><path fill="#000" d="M96.4 66.2592H85.05L86.35 64.9492C86.5847 64.7145 86.5847 64.3339 86.35 64.0992C86.1153 63.8645 85.7347 63.8645 85.5 64.0992L83.18 66.4292C83.1244 66.487 83.0802 66.5549 83.05 66.6292C82.99 66.7767 82.99 66.9418 83.05 67.0892C83.078 67.1618 83.1225 67.2269 83.18 67.2792L85.5 69.6092C85.6112 69.7247 85.7647 69.79 85.925 69.79C86.0854 69.79 86.2388 69.7247 86.35 69.6092C86.4655 69.498 86.5308 69.3446 86.5308 69.1842C86.5308 69.0239 86.4655 68.8704 86.35 68.7592L85.05 67.4592H96.4C96.7314 67.4592 97 67.1906 97 66.8592C97 66.5278 96.7314 66.2592 96.4 66.2592V66.2592Z"/><path fill="#333" fill-rule="evenodd" d="M139.967 59.625L137.937 57.595C137.887 57.5463 137.828 57.5077 137.762 57.4812C137.633 57.4287 137.489 57.4287 137.36 57.4812C137.296 57.5057 137.24 57.5447 137.194 57.595L135.155 59.625C134.954 59.8321 134.954 60.1616 135.155 60.3687C135.252 60.4698 135.387 60.5269 135.527 60.5269C135.667 60.5269 135.801 60.4698 135.899 60.3687L137.036 59.2312V67.2987V67.2987V67.2987C137.076 67.7724 136.846 68.2279 136.441 68.4769C136.036 68.7259 135.525 68.7259 135.121 68.4769C134.716 68.2279 134.485 67.7724 134.525 67.2987V67.2987V67.2987V59.8262C134.525 59.8262 134.525 59.8262 134.525 59.7737C134.525 59.7212 134.525 59.7737 134.525 59.7737C134.45 58.5555 133.44 57.6058 132.219 57.6058C130.999 57.6058 129.989 58.5555 129.914 59.7737V59.7737C129.914 59.7737 129.914 59.7737 129.914 59.8262V67.9375L128.75 66.7562C128.654 66.6557 128.521 66.5987 128.382 66.5987C128.244 66.5987 128.111 66.6557 128.015 66.7562C127.914 66.8536 127.857 66.9878 127.857 67.1281C127.857 67.2684 127.914 67.4027 128.015 67.5L130.062 69.53C130.111 69.5807 130.171 69.6196 130.237 69.6437C130.301 69.6717 130.369 69.6866 130.439 69.6875C130.505 69.6996 130.573 69.6996 130.64 69.6875C130.703 69.663 130.76 69.6241 130.806 69.5737L132.845 67.5C133.046 67.2929 133.046 66.9634 132.845 66.7562C132.748 66.6552 132.613 66.5981 132.473 66.5981C132.333 66.5981 132.199 66.6552 132.101 66.7562L130.964 67.9375V59.8262C130.968 59.8089 130.968 59.791 130.964 59.7737V59.7737C131.018 59.1208 131.564 58.6187 132.219 58.6187C132.875 58.6187 133.42 59.1208 133.475 59.7737V59.7737C133.475 59.7737 133.475 59.7737 133.475 59.8262V67.2987V67.2987V67.2987C133.422 68.1564 133.85 68.9724 134.585 69.4172C135.32 69.862 136.241 69.862 136.976 69.4172C137.712 68.9724 138.139 68.1564 138.086 67.2987V67.2987V67.2987V59.2312L139.25 60.3687C139.346 60.4693 139.479 60.5262 139.617 60.5262C139.756 60.5262 139.889 60.4693 139.985 60.3687C140.084 60.2691 140.138 60.1335 140.134 59.9931C140.131 59.8528 140.071 59.7199 139.967 59.625Z" clip-rule="evenodd"/><path fill="#333" fill-rule="evenodd" d="M183.8 58.76C183.8 58.4286 184.069 58.16 184.4 58.16C184.731 58.16 185 58.4286 185 58.76V69.24C185 69.5714 184.731 69.84 184.4 69.84C184.069 69.84 183.8 69.5714 183.8 69.24V58.76ZM183.08 63.58C183.134 63.635 183.179 63.6993 183.21 63.77C183.27 63.9175 183.27 64.0825 183.21 64.23C183.179 64.3007 183.134 64.365 183.08 64.42L180.75 66.75C180.639 66.8655 180.485 66.9308 180.325 66.9308C180.165 66.9308 180.011 66.8655 179.9 66.75C179.67 66.5133 179.67 66.1367 179.9 65.9L181.21 64.6H171.6C171.269 64.6 171 64.3314 171 64C171 63.6686 171.269 63.4 171.6 63.4H181.21L179.9 62.1C179.67 61.8633 179.67 61.4867 179.9 61.25C180.011 61.1345 180.165 61.0692 180.325 61.0692C180.485 61.0692 180.639 61.1345 180.75 61.25L183.08 63.58Z" clip-rule="evenodd"/><path fill="#333" fill-rule="evenodd" d="M227.235 67.4692C227.395 67.4692 227.549 67.5345 227.66 67.65C227.887 67.8894 227.883 68.266 227.65 68.5L225.32 70.82C225.268 70.8775 225.203 70.922 225.13 70.95C225.057 70.9807 224.979 70.9977 224.9 71C224.821 70.999 224.743 70.9819 224.67 70.95C224.596 70.9198 224.528 70.8757 224.47 70.82L222.15 68.5C221.998 68.3482 221.939 68.1269 221.994 67.9194C222.05 67.712 222.212 67.55 222.419 67.4944C222.627 67.4389 222.848 67.4982 223 67.65L224.31 69V57.6C224.31 57.2686 224.579 57 224.91 57C225.241 57 225.51 57.2686 225.51 57.6V69L226.81 67.65C226.921 67.5345 227.075 67.4692 227.235 67.4692ZM219.52 57.18L221.84 59.5C221.957 59.6099 222.024 59.7625 222.026 59.9229C222.028 60.0832 221.964 60.2374 221.85 60.35C221.739 60.4655 221.585 60.5308 221.425 60.5308C221.265 60.5308 221.111 60.4655 221 60.35L219.69 59.05V70.4C219.69 70.7314 219.421 71 219.09 71C218.759 71 218.49 70.7314 218.49 70.4V59.05L217.19 60.35C217.079 60.4655 216.925 60.5308 216.765 60.5308C216.605 60.5308 216.451 60.4655 216.34 60.35C216.11 60.1133 216.11 59.7367 216.34 59.5L218.67 57.18C218.722 57.1225 218.787 57.078 218.86 57.05C219.007 56.99 219.173 56.99 219.32 57.05C219.394 57.0802 219.462 57.1243 219.52 57.18Z" clip-rule="evenodd"/></svg>