<svg width="312" height="128" viewBox="0 0 312 128" fill="none" xmlns="http://www.w3.org/2000/svg">
<path fill-rule="evenodd" clip-rule="evenodd" d="M221 38.2695C229.837 38.2695 237 45.433 237 54.2695V54.2695C237 63.1061 229.837 70.2695 221 70.2695V70.2695C212.163 70.2695 205 63.1061 205 54.2695V54.2695C205 45.433 212.163 38.2695 221 38.2695V38.2695Z" fill="white" stroke="#DEDEDE"/>
<path fill-rule="evenodd" clip-rule="evenodd" d="M177 38C185.837 38 193 45.1634 193 54V54C193 62.8366 185.837 70 177 70V70C168.163 70 161 62.8366 161 54V54C161 45.1634 168.163 38 177 38V38Z" fill="#F2FCF8" stroke="#DEDEDE"/>
<path fill-rule="evenodd" clip-rule="evenodd" d="M133 38C141.837 38 149 45.1634 149 54V54C149 62.8366 141.837 70 133 70V70C124.163 70 117 62.8366 117 54V54C117 45.1634 124.163 38 133 38V38Z" fill="white" stroke="#DEDEDE"/>
<path fill-rule="evenodd" clip-rule="evenodd" d="M89 38C97.8366 38 105 45.1634 105 54V54C105 62.8366 97.8366 70 89 70V70C80.1634 70 73 62.8366 73 54V54C73 45.1634 80.1634 38 89 38V38Z" fill="white" stroke="#DEDEDE"/>
<path fill-rule="evenodd" clip-rule="evenodd" d="M214.4 54.0664C214.4 52.6264 216.71 49.0664 221 49.0664C225.29 49.0664 227.6 52.5864 227.6 54.0664C227.6 55.5464 225.29 59.0664 221 59.0664C216.71 59.0664 214.4 55.5064 214.4 54.0664ZM215.6 54.0264C215.6 54.7864 217.34 57.7864 221 57.7864V57.8264C224.66 57.8264 226.4 54.8264 226.4 54.0664C226.4 53.3064 224.66 50.3064 221 50.3064C217.34 50.3064 215.6 53.2664 215.6 54.0264Z" fill="black"/>
<path d="M222.81 52.7064C222.661 52.7644 222.542 52.8793 222.478 53.0257C222.414 53.1721 222.411 53.3379 222.47 53.4864C222.547 53.67 222.584 53.8675 222.58 54.0664C222.58 54.939 221.873 55.6464 221 55.6464C220.127 55.6464 219.42 54.939 219.42 54.0664C219.42 53.1938 220.127 52.4864 221 52.4864C221.331 52.4864 221.6 52.2178 221.6 51.8864C221.6 51.555 221.331 51.2864 221 51.2864C219.465 51.2864 218.22 52.5311 218.22 54.0664C218.22 55.6018 219.465 56.8464 221 56.8464C222.535 56.8464 223.78 55.6018 223.78 54.0664C223.779 53.7242 223.715 53.385 223.59 53.0664C223.536 52.914 223.423 52.7898 223.276 52.722C223.129 52.6542 222.961 52.6486 222.81 52.7064V52.7064Z" fill="black"/>
<path d="M183.44 50.6492C183.343 50.3317 183.008 50.1526 182.69 50.2492C182.372 50.3459 182.193 50.6817 182.29 50.9992C182.563 51.873 182.341 52.8262 181.71 53.4892L177 58.3392L172.29 53.4892C171.36 52.5154 171.36 50.983 172.29 50.0092C172.737 49.5455 173.356 49.2883 174 49.2992V49.2992C174.627 49.2974 175.228 49.5542 175.66 50.0092L176.66 51.0092C176.9 51.2403 177.28 51.2403 177.52 51.0092L178.52 50.0092C179.178 49.3219 180.192 49.1112 181.07 49.4792C181.268 49.5614 181.495 49.5315 181.666 49.4009C181.836 49.2703 181.924 49.0587 181.896 48.8459C181.868 48.6331 181.728 48.4514 181.53 48.3692C180.199 47.8095 178.66 48.1275 177.66 49.1692L177 49.7092L176.48 49.1692C175.83 48.4951 174.937 48.1097 174 48.0992V48.0992C173.032 48.0852 172.102 48.4725 171.43 49.1692C170.05 50.6084 170.05 52.88 171.43 54.3192L176.57 59.6192C176.683 59.7353 176.838 59.8008 177 59.8008C177.162 59.8008 177.317 59.7353 177.43 59.6192L182.57 54.3192C183.503 53.3434 183.835 51.9399 183.44 50.6492V50.6492Z" fill="black"/>
<path fill-rule="evenodd" clip-rule="evenodd" d="M136.87 54.3392L138.38 56.9492C138.555 57.2561 138.555 57.6324 138.38 57.9392C138.193 58.2081 137.887 58.3687 137.56 58.3692H135.23C135.23 59.6008 134.232 60.5992 133 60.5992C131.768 60.5992 130.77 59.6008 130.77 58.3692H128.43C128.103 58.3687 127.797 58.2081 127.61 57.9392C127.444 57.6515 127.444 57.297 127.61 57.0092L129.13 54.3392V51.2192C129.144 49.6993 130.045 48.3281 131.436 47.7138C132.826 47.0995 134.447 47.3559 135.58 48.3692C135.693 48.4818 135.756 48.6347 135.756 48.7942C135.756 48.9537 135.693 49.1066 135.58 49.2192C135.343 49.4491 134.967 49.4491 134.73 49.2192C133.946 48.4957 132.806 48.3087 131.831 48.7438C130.857 49.1788 130.235 50.1522 130.25 51.2192V54.5592C130.255 54.5991 130.255 54.6394 130.25 54.6792C130.254 54.7158 130.254 54.7527 130.25 54.7892L128.9 57.1392H137.02L135.67 54.7592C135.666 54.7227 135.666 54.6858 135.67 54.6492C135.665 54.6094 135.665 54.5691 135.67 54.5292V52.3892C135.67 52.0578 135.939 51.7892 136.27 51.7892C136.601 51.7892 136.87 52.0578 136.87 52.3892V54.3392ZM132 58.3492C132 58.9015 132.448 59.3492 133 59.3492C133.552 59.3492 134 58.9015 134 58.3492H132Z" fill="black"/>
<path d="M82.6 51.6392H94L92.65 52.9492C92.5033 53.1243 92.4666 53.3667 92.5551 53.5773C92.6435 53.7879 92.8423 53.9314 93.07 53.9492C93.2317 53.9496 93.3868 53.8847 93.5 53.7692L95.82 51.4492C95.8757 51.3914 95.9198 51.3236 95.95 51.2492C96.01 51.1018 96.01 50.9367 95.95 50.7892C95.922 50.7166 95.8775 50.6516 95.82 50.5992L93.5 48.2892C93.3482 48.1374 93.1269 48.0781 92.9194 48.1337C92.712 48.1892 92.55 48.3512 92.4944 48.5587C92.4389 48.7661 92.4982 48.9874 92.65 49.1392L94 50.4392H82.6C82.2686 50.4392 82 50.7078 82 51.0392C82 51.3706 82.2686 51.6392 82.6 51.6392Z" fill="black"/>
<path d="M95.4 56.2592H84.05L85.35 54.9492C85.5847 54.7145 85.5847 54.3339 85.35 54.0992C85.1153 53.8645 84.7347 53.8645 84.5 54.0992L82.18 56.4292C82.1244 56.487 82.0802 56.5549 82.05 56.6292C81.99 56.7767 81.99 56.9418 82.05 57.0892C82.078 57.1618 82.1225 57.2269 82.18 57.2792L84.5 59.6092C84.6112 59.7247 84.7647 59.79 84.925 59.79C85.0854 59.79 85.2388 59.7247 85.35 59.6092C85.4655 59.498 85.5308 59.3446 85.5308 59.1842C85.5308 59.0239 85.4655 58.8704 85.35 58.7592L84.05 57.4592H95.4C95.7314 57.4592 96 57.1906 96 56.8592C96 56.5278 95.7314 56.2592 95.4 56.2592V56.2592Z" fill="black"/>
<rect x="167.102" y="85.9492" width="14" height="14" transform="rotate(-45 167.102 85.9492)" fill="#222222"/>
<rect x="124" y="79.9492" width="107" height="26" rx="2" fill="#222222"/>
<path d="M140.258 92.8677H136.38V96.9492H135.161V87.707H140.887V88.71H136.38V91.8711H140.258V92.8677ZM146.187 96.9492C146.119 96.8138 146.064 96.5726 146.022 96.2256C145.476 96.7926 144.824 97.0762 144.067 97.0762C143.39 97.0762 142.833 96.8857 142.397 96.5049C141.966 96.1198 141.75 95.6331 141.75 95.0449C141.75 94.3298 142.021 93.7754 142.562 93.3818C143.108 92.984 143.874 92.7852 144.86 92.7852H146.003V92.2456C146.003 91.8351 145.88 91.5093 145.635 91.2681C145.389 91.0226 145.028 90.8999 144.549 90.8999C144.13 90.8999 143.779 91.0057 143.496 91.2173C143.212 91.4289 143.07 91.6849 143.07 91.9854H141.89C141.89 91.6426 142.01 91.3125 142.251 90.9951C142.497 90.6735 142.827 90.4196 143.242 90.2334C143.661 90.0472 144.12 89.9541 144.619 89.9541C145.41 89.9541 146.03 90.153 146.479 90.5508C146.928 90.9443 147.16 91.4881 147.177 92.1821V95.3433C147.177 95.9738 147.258 96.4753 147.418 96.8477V96.9492H146.187ZM144.238 96.0542C144.606 96.0542 144.956 95.959 145.286 95.7686C145.616 95.5781 145.855 95.3306 146.003 95.0259V93.6167H145.083C143.644 93.6167 142.924 94.0378 142.924 94.8799C142.924 95.248 143.047 95.5358 143.292 95.7432C143.538 95.9505 143.853 96.0542 144.238 96.0542ZM151.183 95.356L152.884 90.0811H154.083L151.621 96.9492H150.726L148.237 90.0811H149.437L151.183 95.356ZM154.801 93.4517C154.801 92.7788 154.932 92.1737 155.194 91.6362C155.461 91.0988 155.829 90.6841 156.299 90.3921C156.773 90.1001 157.312 89.9541 157.917 89.9541C158.853 89.9541 159.608 90.2778 160.184 90.9253C160.763 91.5728 161.053 92.4339 161.053 93.5088V93.5913C161.053 94.2599 160.924 94.8608 160.666 95.394C160.412 95.923 160.046 96.3356 159.568 96.6318C159.094 96.9281 158.548 97.0762 157.93 97.0762C156.999 97.0762 156.244 96.7524 155.664 96.105C155.089 95.4575 154.801 94.6006 154.801 93.5342V93.4517ZM155.981 93.5913C155.981 94.353 156.157 94.9645 156.508 95.4258C156.864 95.887 157.338 96.1177 157.93 96.1177C158.527 96.1177 159.001 95.8849 159.352 95.4194C159.703 94.9497 159.879 94.2938 159.879 93.4517C159.879 92.6984 159.699 92.089 159.339 91.6235C158.984 91.1538 158.51 90.9189 157.917 90.9189C157.338 90.9189 156.87 91.1496 156.515 91.6108C156.159 92.0721 155.981 92.7323 155.981 93.5913ZM165.846 91.1348C165.668 91.1051 165.475 91.0903 165.268 91.0903C164.498 91.0903 163.975 91.4183 163.7 92.0742V96.9492H162.526V90.0811H163.668L163.688 90.8745C164.073 90.2609 164.618 89.9541 165.325 89.9541C165.554 89.9541 165.727 89.9837 165.846 90.043V91.1348ZM168.207 96.9492H167.033V90.0811H168.207V96.9492ZM166.938 88.2593C166.938 88.0688 166.995 87.908 167.109 87.7769C167.227 87.6457 167.401 87.5801 167.629 87.5801C167.858 87.5801 168.031 87.6457 168.15 87.7769C168.268 87.908 168.328 88.0688 168.328 88.2593C168.328 88.4497 168.268 88.6084 168.15 88.7354C168.031 88.8623 167.858 88.9258 167.629 88.9258C167.401 88.9258 167.227 88.8623 167.109 88.7354C166.995 88.6084 166.938 88.4497 166.938 88.2593ZM171.686 88.418V90.0811H172.968V90.9888H171.686V95.248C171.686 95.5231 171.743 95.7305 171.857 95.8701C171.971 96.0055 172.166 96.0732 172.441 96.0732C172.576 96.0732 172.763 96.0479 173 95.9971V96.9492C172.691 97.0339 172.39 97.0762 172.098 97.0762C171.573 97.0762 171.178 96.9175 170.911 96.6001C170.645 96.2827 170.511 95.832 170.511 95.248V90.9888H169.261V90.0811H170.511V88.418H171.686ZM175.45 90.0811L175.481 90.8428C175.985 90.2503 176.664 89.9541 177.519 89.9541C178.48 89.9541 179.133 90.3223 179.48 91.0586C179.709 90.7285 180.005 90.4619 180.369 90.2588C180.737 90.0557 181.171 89.9541 181.67 89.9541C183.177 89.9541 183.943 90.7518 183.968 92.3472V96.9492H182.794V92.417C182.794 91.9261 182.682 91.5601 182.458 91.3188C182.233 91.0734 181.857 90.9507 181.328 90.9507C180.892 90.9507 180.53 91.0819 180.242 91.3442C179.954 91.6024 179.787 91.9515 179.741 92.3916V96.9492H178.56V92.4487C178.56 91.45 178.071 90.9507 177.094 90.9507C176.324 90.9507 175.797 91.2786 175.513 91.9346V96.9492H174.339V90.0811H175.45ZM189.986 96.9492C189.918 96.8138 189.863 96.5726 189.821 96.2256C189.275 96.7926 188.623 97.0762 187.866 97.0762C187.189 97.0762 186.632 96.8857 186.196 96.5049C185.765 96.1198 185.549 95.6331 185.549 95.0449C185.549 94.3298 185.82 93.7754 186.361 93.3818C186.907 92.984 187.673 92.7852 188.659 92.7852H189.802V92.2456C189.802 91.8351 189.679 91.5093 189.434 91.2681C189.188 91.0226 188.826 90.8999 188.348 90.8999C187.929 90.8999 187.578 91.0057 187.294 91.2173C187.011 91.4289 186.869 91.6849 186.869 91.9854H185.688C185.688 91.6426 185.809 91.3125 186.05 90.9951C186.296 90.6735 186.626 90.4196 187.041 90.2334C187.459 90.0472 187.919 89.9541 188.418 89.9541C189.209 89.9541 189.829 90.153 190.278 90.5508C190.726 90.9443 190.959 91.4881 190.976 92.1821V95.3433C190.976 95.9738 191.056 96.4753 191.217 96.8477V96.9492H189.986ZM188.037 96.0542C188.405 96.0542 188.754 95.959 189.084 95.7686C189.415 95.5781 189.654 95.3306 189.802 95.0259V93.6167H188.881C187.443 93.6167 186.723 94.0378 186.723 94.8799C186.723 95.248 186.846 95.5358 187.091 95.7432C187.337 95.9505 187.652 96.0542 188.037 96.0542ZM196.137 91.1348C195.959 91.1051 195.766 91.0903 195.559 91.0903C194.789 91.0903 194.266 91.4183 193.991 92.0742V96.9492H192.817V90.0811H193.959L193.979 90.8745C194.364 90.2609 194.91 89.9541 195.616 89.9541C195.845 89.9541 196.018 89.9837 196.137 90.043V91.1348ZM199.139 93.769L198.403 94.5371V96.9492H197.229V87.1992H198.403V93.0962L199.031 92.3408L201.17 90.0811H202.599L199.926 92.9502L202.91 96.9492H201.532L199.139 93.769ZM206.534 97.0762C205.603 97.0762 204.846 96.7715 204.262 96.1621C203.678 95.5485 203.386 94.7297 203.386 93.7056V93.4897C203.386 92.8084 203.515 92.2012 203.773 91.668C204.035 91.1305 204.399 90.7116 204.865 90.4111C205.334 90.1064 205.842 89.9541 206.388 89.9541C207.281 89.9541 207.975 90.2482 208.47 90.8364C208.965 91.4246 209.213 92.2668 209.213 93.3628V93.8516H204.56C204.577 94.5286 204.774 95.0767 205.15 95.4956C205.531 95.9103 206.014 96.1177 206.598 96.1177C207.012 96.1177 207.364 96.033 207.651 95.8638C207.939 95.6945 208.191 95.4702 208.407 95.1909L209.124 95.7495C208.549 96.634 207.685 97.0762 206.534 97.0762ZM206.388 90.9189C205.914 90.9189 205.516 91.0924 205.195 91.4395C204.873 91.7822 204.674 92.2646 204.598 92.8867H208.039V92.7979C208.005 92.2012 207.844 91.7399 207.556 91.4141C207.268 91.084 206.879 90.9189 206.388 90.9189ZM213.897 91.1348C213.72 91.1051 213.527 91.0903 213.32 91.0903C212.55 91.0903 212.027 91.4183 211.752 92.0742V96.9492H210.578V90.0811H211.72L211.739 90.8745C212.124 90.2609 212.67 89.9541 213.377 89.9541C213.605 89.9541 213.779 89.9837 213.897 90.043V91.1348ZM218.969 96.9492C218.902 96.8138 218.847 96.5726 218.804 96.2256C218.258 96.7926 217.607 97.0762 216.849 97.0762C216.172 97.0762 215.616 96.8857 215.18 96.5049C214.748 96.1198 214.532 95.6331 214.532 95.0449C214.532 94.3298 214.803 93.7754 215.345 93.3818C215.891 92.984 216.657 92.7852 217.643 92.7852H218.785V92.2456C218.785 91.8351 218.662 91.5093 218.417 91.2681C218.172 91.0226 217.81 90.8999 217.332 90.8999C216.913 90.8999 216.561 91.0057 216.278 91.2173C215.994 91.4289 215.853 91.6849 215.853 91.9854H214.672C214.672 91.6426 214.792 91.3125 215.034 90.9951C215.279 90.6735 215.609 90.4196 216.024 90.2334C216.443 90.0472 216.902 89.9541 217.401 89.9541C218.193 89.9541 218.813 90.153 219.261 90.5508C219.71 90.9443 219.943 91.4881 219.959 92.1821V95.3433C219.959 95.9738 220.04 96.4753 220.201 96.8477V96.9492H218.969ZM217.021 96.0542C217.389 96.0542 217.738 95.959 218.068 95.7686C218.398 95.5781 218.637 95.3306 218.785 95.0259V93.6167H217.865C216.426 93.6167 215.707 94.0378 215.707 94.8799C215.707 95.248 215.829 95.5358 216.075 95.7432C216.32 95.9505 216.635 96.0542 217.021 96.0542Z" fill="white"/>
</svg>
