<svg xmlns="http://www.w3.org/2000/svg" width="312" height="128" fill="none" viewBox="0 0 312 128"><path fill="#fff" fill-rule="evenodd" stroke="#DEDEDE" d="M237 52C245.837 52 253 59.1634 253 68V68C253 76.8366 245.837 84 237 84H74C65.1634 84 58 76.8366 58 68V68C58 59.1634 65.1634 52 74 52L237 52Z" clip-rule="evenodd"/><path fill="#222" d="M94.9448 62.7578H96.1699V69.3022C96.1699 70.1867 95.9033 70.8786 95.3701 71.3779C94.8411 71.8773 94.1344 72.127 93.25 72.127C92.3317 72.127 91.6165 71.8921 91.1045 71.4224C90.5924 70.9526 90.3364 70.2946 90.3364 69.4482H91.5552C91.5552 69.9772 91.6991 70.3898 91.9868 70.686C92.2788 70.9823 92.6999 71.1304 93.25 71.1304C93.7536 71.1304 94.1598 70.9717 94.4688 70.6543C94.7819 70.3369 94.9406 69.8926 94.9448 69.3213V62.7578ZM102.302 72C102.234 71.8646 102.179 71.6234 102.137 71.2764C101.591 71.8434 100.939 72.127 100.182 72.127C99.5046 72.127 98.9481 71.9365 98.5122 71.5557C98.0806 71.1706 97.8647 70.6839 97.8647 70.0957C97.8647 69.3805 98.1356 68.8262 98.6772 68.4326C99.2231 68.0348 99.9891 67.8359 100.975 67.8359H102.118V67.2964C102.118 66.8859 101.995 66.5601 101.75 66.3188C101.504 66.0734 101.142 65.9507 100.664 65.9507C100.245 65.9507 99.8939 66.0565 99.6104 66.2681C99.3268 66.4797 99.1851 66.7357 99.1851 67.0361H98.0044C98.0044 66.6934 98.125 66.3633 98.3662 66.0459C98.6117 65.7243 98.9417 65.4704 99.3564 65.2842C99.7754 65.098 100.235 65.0049 100.734 65.0049C101.525 65.0049 102.145 65.2038 102.594 65.6016C103.042 65.9951 103.275 66.5389 103.292 67.2329V70.394C103.292 71.0246 103.372 71.526 103.533 71.8984V72H102.302ZM100.353 71.105C100.721 71.105 101.07 71.0098 101.4 70.8193C101.73 70.6289 101.97 70.3813 102.118 70.0767V68.6675H101.197C99.7585 68.6675 99.0391 69.0885 99.0391 69.9307C99.0391 70.2988 99.1618 70.5866 99.4072 70.7939C99.6527 71.0013 99.9679 71.105 100.353 71.105ZM98.8169 63.2974C98.8169 63.1069 98.874 62.9482 98.9883 62.8213C99.1068 62.6901 99.2803 62.6245 99.5088 62.6245C99.7373 62.6245 99.9108 62.6901 100.029 62.8213C100.148 62.9482 100.207 63.1069 100.207 63.2974C100.207 63.4878 100.148 63.6465 100.029 63.7734C99.9108 63.9004 99.7373 63.9639 99.5088 63.9639C99.2803 63.9639 99.1068 63.9004 98.9883 63.7734C98.874 63.6465 98.8169 63.4878 98.8169 63.2974ZM101.546 63.3101C101.546 63.1196 101.604 62.9588 101.718 62.8276C101.836 62.6965 102.01 62.6309 102.238 62.6309C102.467 62.6309 102.64 62.6965 102.759 62.8276C102.877 62.9588 102.937 63.1196 102.937 63.3101C102.937 63.5005 102.877 63.6592 102.759 63.7861C102.64 63.9131 102.467 63.9766 102.238 63.9766C102.01 63.9766 101.836 63.9131 101.718 63.7861C101.604 63.6592 101.546 63.5005 101.546 63.3101ZM106.237 65.1318L106.269 65.8936C106.773 65.3011 107.452 65.0049 108.307 65.0049C109.267 65.0049 109.921 65.373 110.268 66.1094C110.497 65.7793 110.793 65.5127 111.157 65.3096C111.525 65.1064 111.959 65.0049 112.458 65.0049C113.965 65.0049 114.73 65.8026 114.756 67.3979V72H113.582V67.4678C113.582 66.9769 113.469 66.6108 113.245 66.3696C113.021 66.1242 112.644 66.0015 112.115 66.0015C111.679 66.0015 111.318 66.1326 111.03 66.395C110.742 66.6532 110.575 67.0023 110.528 67.4424V72H109.348V67.4995C109.348 66.5008 108.859 66.0015 107.881 66.0015C107.111 66.0015 106.584 66.3294 106.301 66.9854V72H105.126V65.1318H106.237ZM117.111 72V66.0396H116.025V65.1318H117.111V64.4272C117.111 63.6909 117.308 63.1217 117.701 62.7197C118.095 62.3177 118.651 62.1167 119.371 62.1167C119.641 62.1167 119.91 62.1527 120.177 62.2246L120.113 63.1768C119.914 63.1387 119.703 63.1196 119.479 63.1196C119.098 63.1196 118.804 63.2318 118.596 63.4561C118.389 63.6761 118.285 63.9935 118.285 64.4082V65.1318H119.751V66.0396H118.285V72H117.111ZM120.742 68.5024C120.742 67.8296 120.873 67.2244 121.135 66.687C121.402 66.1496 121.77 65.7349 122.24 65.4429C122.714 65.1509 123.253 65.0049 123.858 65.0049C124.794 65.0049 125.549 65.3286 126.125 65.9761C126.704 66.6235 126.994 67.4847 126.994 68.5596V68.6421C126.994 69.3107 126.865 69.9116 126.607 70.4448C126.353 70.9738 125.987 71.3864 125.509 71.6826C125.035 71.9788 124.489 72.127 123.871 72.127C122.94 72.127 122.185 71.8032 121.605 71.1558C121.029 70.5083 120.742 69.6514 120.742 68.585V68.5024ZM121.922 68.6421C121.922 69.4038 122.098 70.0153 122.449 70.4766C122.805 70.9378 123.279 71.1685 123.871 71.1685C124.468 71.1685 124.942 70.9357 125.293 70.4702C125.644 70.0005 125.82 69.3446 125.82 68.5024C125.82 67.7492 125.64 67.1398 125.28 66.6743C124.925 66.2046 124.451 65.9697 123.858 65.9697C123.279 65.9697 122.811 66.2004 122.456 66.6616C122.1 67.1229 121.922 67.783 121.922 68.6421ZM121.77 63.2974C121.77 63.1069 121.827 62.9482 121.941 62.8213C122.06 62.6901 122.233 62.6245 122.462 62.6245C122.69 62.6245 122.864 62.6901 122.982 62.8213C123.101 62.9482 123.16 63.1069 123.16 63.2974C123.16 63.4878 123.101 63.6465 122.982 63.7734C122.864 63.9004 122.69 63.9639 122.462 63.9639C122.233 63.9639 122.06 63.9004 121.941 63.7734C121.827 63.6465 121.77 63.4878 121.77 63.2974ZM124.5 63.3101C124.5 63.1196 124.557 62.9588 124.671 62.8276C124.789 62.6965 124.963 62.6309 125.191 62.6309C125.42 62.6309 125.593 62.6965 125.712 62.8276C125.83 62.9588 125.89 63.1196 125.89 63.3101C125.89 63.5005 125.83 63.6592 125.712 63.7861C125.593 63.9131 125.42 63.9766 125.191 63.9766C124.963 63.9766 124.789 63.9131 124.671 63.7861C124.557 63.6592 124.5 63.5005 124.5 63.3101ZM131.787 66.1855C131.609 66.1559 131.416 66.1411 131.209 66.1411C130.439 66.1411 129.916 66.4691 129.641 67.125V72H128.467V65.1318H129.609L129.628 65.9253C130.014 65.3117 130.559 65.0049 131.266 65.0049C131.495 65.0049 131.668 65.0345 131.787 65.0938V66.1855ZM136.674 72V66.0396H135.589V65.1318H136.674V64.4272C136.674 63.6909 136.871 63.1217 137.265 62.7197C137.658 62.3177 138.215 62.1167 138.934 62.1167C139.205 62.1167 139.474 62.1527 139.74 62.2246L139.677 63.1768C139.478 63.1387 139.266 63.1196 139.042 63.1196C138.661 63.1196 138.367 63.2318 138.16 63.4561C137.952 63.6761 137.849 63.9935 137.849 64.4082V65.1318H139.315V66.0396H137.849V72H136.674ZM140.305 68.5024C140.305 67.8296 140.436 67.2244 140.699 66.687C140.965 66.1496 141.333 65.7349 141.803 65.4429C142.277 65.1509 142.817 65.0049 143.422 65.0049C144.357 65.0049 145.112 65.3286 145.688 65.9761C146.268 66.6235 146.558 67.4847 146.558 68.5596V68.6421C146.558 69.3107 146.429 69.9116 146.17 70.4448C145.917 70.9738 145.55 71.3864 145.072 71.6826C144.598 71.9788 144.052 72.127 143.435 72.127C142.504 72.127 141.748 71.8032 141.168 71.1558C140.593 70.5083 140.305 69.6514 140.305 68.585V68.5024ZM141.486 68.6421C141.486 69.4038 141.661 70.0153 142.013 70.4766C142.368 70.9378 142.842 71.1685 143.435 71.1685C144.031 71.1685 144.505 70.9357 144.856 70.4702C145.208 70.0005 145.383 69.3446 145.383 68.5024C145.383 67.7492 145.203 67.1398 144.844 66.6743C144.488 66.2046 144.014 65.9697 143.422 65.9697C142.842 65.9697 142.375 66.2004 142.019 66.6616C141.664 67.1229 141.486 67.783 141.486 68.6421ZM149.141 65.1318L149.179 65.9951C149.704 65.335 150.389 65.0049 151.236 65.0049C152.687 65.0049 153.419 65.8237 153.432 67.4614V72H152.258V67.4551C152.254 66.96 152.139 66.5939 151.915 66.3569C151.695 66.12 151.35 66.0015 150.88 66.0015C150.5 66.0015 150.165 66.103 149.877 66.3062C149.59 66.5093 149.365 66.7759 149.205 67.106V72H148.03V65.1318H149.141ZM154.917 68.5088C154.917 67.4551 155.167 66.6087 155.667 65.9697C156.166 65.3265 156.82 65.0049 157.628 65.0049C158.432 65.0049 159.069 65.2799 159.539 65.8301V62.25H160.713V72H159.634L159.577 71.2637C159.107 71.8392 158.453 72.127 157.615 72.127C156.82 72.127 156.17 71.8011 155.667 71.1494C155.167 70.4977 154.917 69.6471 154.917 68.5977V68.5088ZM156.092 68.6421C156.092 69.4207 156.253 70.0301 156.574 70.4702C156.896 70.9103 157.34 71.1304 157.907 71.1304C158.652 71.1304 159.196 70.7961 159.539 70.1274V66.9727C159.187 66.3252 158.648 66.0015 157.92 66.0015C157.344 66.0015 156.896 66.2236 156.574 66.668C156.253 67.1123 156.092 67.7703 156.092 68.6421ZM166.781 71.3208C166.324 71.8582 165.653 72.127 164.769 72.127C164.037 72.127 163.478 71.9154 163.093 71.4922C162.712 71.0648 162.52 70.4342 162.516 69.6006V65.1318H163.69V69.5688C163.69 70.6099 164.113 71.1304 164.959 71.1304C165.857 71.1304 166.453 70.7961 166.75 70.1274V65.1318H167.924V72H166.807L166.781 71.3208ZM171.307 63.4688V65.1318H172.589V66.0396H171.307V70.2988C171.307 70.5739 171.364 70.7812 171.479 70.9209C171.593 71.0563 171.787 71.124 172.062 71.124C172.198 71.124 172.384 71.0986 172.621 71.0479V72C172.312 72.0846 172.012 72.127 171.72 72.127C171.195 72.127 170.799 71.9683 170.533 71.6509C170.266 71.3335 170.133 70.8828 170.133 70.2988V66.0396H168.882V65.1318H170.133V63.4688H171.307ZM176.233 70.4067L177.934 65.1318H179.134L176.671 72H175.776L173.288 65.1318H174.487L176.233 70.4067ZM183.025 72.127C182.094 72.127 181.336 71.8223 180.752 71.2129C180.168 70.5993 179.876 69.7804 179.876 68.7563V68.5405C179.876 67.8592 180.006 67.252 180.264 66.7188C180.526 66.1813 180.89 65.7624 181.355 65.4619C181.825 65.1572 182.333 65.0049 182.879 65.0049C183.772 65.0049 184.466 65.299 184.961 65.8872C185.456 66.4754 185.704 67.3175 185.704 68.4136V68.9023H181.051C181.068 69.5794 181.264 70.1274 181.641 70.5464C182.022 70.9611 182.504 71.1685 183.088 71.1685C183.503 71.1685 183.854 71.0838 184.142 70.9146C184.43 70.7453 184.682 70.521 184.897 70.2417L185.615 70.8003C185.039 71.6847 184.176 72.127 183.025 72.127ZM182.879 65.9697C182.405 65.9697 182.007 66.1432 181.686 66.4902C181.364 66.833 181.165 67.3154 181.089 67.9375H184.529V67.8486C184.495 67.252 184.335 66.7907 184.047 66.4648C183.759 66.1348 183.37 65.9697 182.879 65.9697ZM189.823 71.1685C190.242 71.1685 190.608 71.0415 190.921 70.7876C191.235 70.5337 191.408 70.2163 191.442 69.8354H192.553C192.532 70.229 192.396 70.6035 192.146 70.959C191.897 71.3145 191.562 71.598 191.144 71.8096C190.729 72.0212 190.289 72.127 189.823 72.127C188.888 72.127 188.143 71.8159 187.589 71.1938C187.039 70.5675 186.764 69.7127 186.764 68.6294V68.4326C186.764 67.764 186.886 67.1694 187.132 66.6489C187.377 66.1284 187.729 65.7243 188.186 65.4365C188.647 65.1488 189.191 65.0049 189.817 65.0049C190.587 65.0049 191.226 65.2355 191.734 65.6968C192.246 66.158 192.519 66.7568 192.553 67.4932H191.442C191.408 67.0488 191.239 66.6849 190.934 66.4014C190.634 66.1136 190.261 65.9697 189.817 65.9697C189.22 65.9697 188.757 66.1855 188.427 66.6172C188.101 67.0446 187.938 67.6646 187.938 68.4771V68.6992C187.938 69.4906 188.101 70.0999 188.427 70.5273C188.753 70.9548 189.218 71.1685 189.823 71.1685ZM195.79 68.8198L195.054 69.5879V72H193.879V62.25H195.054V68.147L195.682 67.3916L197.821 65.1318H199.25L196.577 68.001L199.561 72H198.183L195.79 68.8198ZM201.738 72H200.563V62.25H201.738V72ZM204.899 72H203.725V65.1318H204.899V72ZM203.629 63.3101C203.629 63.1196 203.687 62.9588 203.801 62.8276C203.919 62.6965 204.093 62.6309 204.321 62.6309C204.55 62.6309 204.723 62.6965 204.842 62.8276C204.96 62.9588 205.02 63.1196 205.02 63.3101C205.02 63.5005 204.96 63.6592 204.842 63.7861C204.723 63.9131 204.55 63.9766 204.321 63.9766C204.093 63.9766 203.919 63.9131 203.801 63.7861C203.687 63.6592 203.629 63.5005 203.629 63.3101ZM207.895 65.1318L207.933 65.9951C208.458 65.335 209.143 65.0049 209.99 65.0049C211.441 65.0049 212.173 65.8237 212.186 67.4614V72H211.012V67.4551C211.007 66.96 210.893 66.5939 210.669 66.3569C210.449 66.12 210.104 66.0015 209.634 66.0015C209.253 66.0015 208.919 66.103 208.631 66.3062C208.344 66.5093 208.119 66.7759 207.958 67.106V72H206.784V65.1318H207.895ZM213.678 68.5088C213.678 67.4382 213.925 66.5876 214.42 65.957C214.916 65.3223 215.571 65.0049 216.388 65.0049C217.226 65.0049 217.88 65.3011 218.35 65.8936L218.407 65.1318H219.479V71.835C219.479 72.7236 219.215 73.424 218.686 73.936C218.161 74.4481 217.455 74.7041 216.566 74.7041C216.071 74.7041 215.586 74.5983 215.112 74.3867C214.638 74.1751 214.277 73.8853 214.027 73.5171L214.636 72.8125C215.14 73.4346 215.756 73.7456 216.483 73.7456C217.055 73.7456 217.499 73.5848 217.816 73.2632C218.138 72.9416 218.299 72.4888 218.299 71.9048V71.3145C217.829 71.8561 217.188 72.127 216.375 72.127C215.571 72.127 214.92 71.8032 214.42 71.1558C213.925 70.5083 213.678 69.626 213.678 68.5088ZM214.858 68.6421C214.858 69.4165 215.017 70.0259 215.334 70.4702C215.652 70.9103 216.096 71.1304 216.667 71.1304C217.408 71.1304 217.952 70.7939 218.299 70.1211V66.9854C217.939 66.3294 217.4 66.0015 216.68 66.0015C216.109 66.0015 215.662 66.2236 215.341 66.668C215.019 67.1123 214.858 67.7703 214.858 68.6421Z"/><path fill="#222" fill-rule="evenodd" d="M242.91 64.75C242.797 64.637 242.644 64.5735 242.485 64.5735C242.326 64.5735 242.173 64.637 242.06 64.75L237.14 70.15C237.04 70.26 236.96 70.26 236.86 70.15L231.94 64.78C231.827 64.667 231.674 64.6035 231.515 64.6035C231.356 64.6035 231.203 64.667 231.09 64.78C230.978 64.8909 230.914 65.0421 230.914 65.2C230.914 65.3579 230.978 65.5091 231.09 65.62L236 71C236.261 71.2739 236.622 71.429 237 71.429C237.378 71.429 237.739 71.2739 238 71L242.92 65.63C243.044 65.5166 243.114 65.3558 243.112 65.1878C243.11 65.0197 243.037 64.8605 242.91 64.75Z" clip-rule="evenodd"/><path fill="#222" d="M76.78 73.45H74.62V65C75.0343 64.858 75.3847 64.5736 75.609 64.1975C75.8333 63.8213 75.9168 63.3778 75.8448 62.9459C75.7728 62.5139 75.5499 62.1215 75.2158 61.8384C74.8817 61.5553 74.4579 61.4 74.02 61.4C73.5821 61.4 73.1584 61.5553 72.8242 61.8384C72.4901 62.1215 72.2672 62.5139 72.1952 62.9459C72.1232 63.3778 72.2068 63.8213 72.431 64.1975C72.6553 64.5736 73.0058 64.858 73.42 65V73.5H71.42C71.3354 73.489 71.2494 73.4962 71.1678 73.5211C71.0862 73.5459 71.0108 73.5879 70.9467 73.6442C70.8826 73.7005 70.8313 73.7699 70.7961 73.8476C70.7609 73.9253 70.7427 74.0097 70.7427 74.095C70.7427 74.1803 70.7609 74.2647 70.7961 74.3424C70.8313 74.4201 70.8826 74.4895 70.9467 74.5458C71.0108 74.6021 71.0862 74.6441 71.1678 74.6689C71.2494 74.6938 71.3354 74.701 71.42 74.69H76.78C76.8646 74.701 76.9506 74.6938 77.0322 74.6689C77.1138 74.6441 77.1892 74.6021 77.2533 74.5458C77.3174 74.4895 77.3687 74.4201 77.4039 74.3424C77.4391 74.2647 77.4573 74.1803 77.4573 74.095C77.4573 74.0097 77.4391 73.9253 77.4039 73.8476C77.3687 73.7699 77.3174 73.7005 77.2533 73.6442C77.1892 73.5879 77.1138 73.5459 77.0322 73.5211C76.9506 73.4962 76.8646 73.489 76.78 73.5V73.45ZM74 62.55C74.1733 62.5526 74.3386 62.6233 74.4602 62.7468C74.5819 62.8703 74.65 63.0367 74.65 63.21C74.65 63.3824 74.5815 63.5477 74.4596 63.6696C74.3377 63.7915 74.1724 63.86 74 63.86C73.8276 63.86 73.6623 63.7915 73.5404 63.6696C73.4185 63.5477 73.35 63.3824 73.35 63.21C73.35 63.0367 73.4181 62.8703 73.5398 62.7468C73.6614 62.6233 73.8267 62.5526 74 62.55V62.55Z"/><path fill="#222" d="M80.41 66.34C79.9711 65.1599 79.4464 64.0135 78.84 62.91C78.84 62.91 78.84 62.91 78.79 62.91C78.772 62.8819 78.7482 62.858 78.72 62.84L78.67 62.79H78.62H78.54H78.47H76.75C76.6712 62.79 76.5932 62.8055 76.5204 62.8357C76.4476 62.8658 76.3815 62.91 76.3258 62.9657C76.27 63.0215 76.2258 63.0876 76.1957 63.1604C76.1655 63.2332 76.15 63.3112 76.15 63.39C76.15 63.4688 76.1655 63.5468 76.1957 63.6196C76.2258 63.6924 76.27 63.7585 76.3258 63.8143C76.3815 63.87 76.4476 63.9142 76.5204 63.9443C76.5932 63.9745 76.6712 63.99 76.75 63.99H77.34C76.9253 64.8116 76.558 65.6563 76.24 66.52C76.0706 66.9697 76.0257 67.4569 76.11 67.93C76.2471 68.4028 76.54 68.8152 76.9413 69.1003C77.3426 69.3854 77.8285 69.5262 78.32 69.5V69.5C78.8336 69.5201 79.3376 69.3572 79.7424 69.0404C80.1471 68.7236 80.4262 68.2734 80.53 67.77C80.6218 67.2913 80.5803 66.7967 80.41 66.34V66.34ZM79.1 66.25H77.56C77.75 65.77 78.06 65.1 78.33 64.53C78.6 65.1 78.91 65.76 79.1 66.25ZM78.33 68.3C78.0877 68.3169 77.8475 68.2451 77.6543 68.0979C77.461 67.9506 77.328 67.7381 77.28 67.5V67.5H79.38C79.332 67.7381 79.199 67.9506 79.0058 68.0979C78.8126 68.2451 78.5724 68.3169 78.33 68.3Z"/><path fill="#222" d="M71.89 67.77C71.9759 67.2895 71.9275 66.7947 71.75 66.34C71.438 65.482 71.074 64.6438 70.66 63.83H71.25C71.4091 63.83 71.5618 63.7668 71.6743 63.6543C71.7868 63.5417 71.85 63.3891 71.85 63.23C71.85 63.0709 71.7868 62.9183 71.6743 62.8057C71.5618 62.6932 71.4091 62.63 71.25 62.63H69.56H69.48H69.4C69.3965 62.6465 69.3965 62.6635 69.4 62.68C69.3719 62.698 69.348 62.7219 69.33 62.75H69.28C68.6183 63.9097 68.0499 65.1202 67.58 66.37C67.4101 66.8196 67.3652 67.3069 67.45 67.78C67.5577 68.2806 67.8382 68.7273 68.2423 69.0418C68.6464 69.3563 69.1483 69.5185 69.66 69.5V69.5C70.1765 69.5229 70.6843 69.3615 71.0928 69.0446C71.5012 68.7277 71.7838 68.276 71.89 67.77V67.77ZM69.67 64.53C69.94 65.1 70.24 65.77 70.44 66.25H68.9C69.09 65.78 69.39 65.11 69.67 64.53ZM69.67 68.3C69.4361 68.3047 69.2079 68.2272 69.0252 68.0811C68.8424 67.9349 68.7168 67.7293 68.67 67.5H70.77C70.7214 67.7475 70.581 67.9675 70.377 68.1158C70.173 68.2642 69.9205 68.33 69.67 68.3Z"/></svg>