<svg xmlns="http://www.w3.org/2000/svg" width="430" height="100" fill="none" viewBox="0 0 430 100"><rect width="354" height="47" x="38.5" y="36.5" fill="#fff" stroke="#DEDEDE" rx="5.5"/><path fill="#6A6A6A" d="M40.2979 30.0034H44.6777V31H39.0728V21.7578H40.2979V30.0034ZM50.124 31C50.0563 30.8646 50.0013 30.6234 49.959 30.2764C49.4131 30.8434 48.7614 31.127 48.0039 31.127C47.3268 31.127 46.7703 30.9365 46.3345 30.5557C45.9028 30.1706 45.687 29.6839 45.687 29.0957C45.687 28.3805 45.9578 27.8262 46.4995 27.4326C47.0454 27.0348 47.8114 26.8359 48.7974 26.8359H49.9399V26.2964C49.9399 25.8859 49.8172 25.5601 49.5718 25.3188C49.3263 25.0734 48.9645 24.9507 48.4863 24.9507C48.0674 24.9507 47.7161 25.0565 47.4326 25.2681C47.1491 25.4797 47.0073 25.7357 47.0073 26.0361H45.8267C45.8267 25.6934 45.9473 25.3633 46.1885 25.0459C46.4339 24.7243 46.764 24.4704 47.1787 24.2842C47.5977 24.098 48.0568 24.0049 48.5562 24.0049C49.3475 24.0049 49.9674 24.2038 50.416 24.6016C50.8646 24.9951 51.0973 25.5389 51.1143 26.2329V29.394C51.1143 30.0246 51.1947 30.526 51.3555 30.8984V31H50.124ZM48.1753 30.105C48.5435 30.105 48.8926 30.0098 49.2227 29.8193C49.5527 29.6289 49.7918 29.3813 49.9399 29.0767V27.6675H49.0195C47.5807 27.6675 46.8613 28.0885 46.8613 28.9307C46.8613 29.2988 46.984 29.5866 47.2295 29.7939C47.4749 30.0013 47.7902 30.105 48.1753 30.105ZM58.7695 27.6421C58.7695 28.6916 58.5283 29.5358 58.0459 30.1748C57.5635 30.8096 56.916 31.127 56.1035 31.127C55.236 31.127 54.5653 30.8201 54.0913 30.2065L54.0342 31H52.9551V21.25H54.1294V24.8872C54.6034 24.299 55.2572 24.0049 56.0908 24.0049C56.9245 24.0049 57.5783 24.3201 58.0522 24.9507C58.5304 25.5812 58.7695 26.4445 58.7695 27.5405V27.6421ZM57.5952 27.5088C57.5952 26.709 57.4408 26.0911 57.1318 25.6553C56.8229 25.2194 56.3786 25.0015 55.7988 25.0015C55.0244 25.0015 54.4679 25.3612 54.1294 26.0806V29.0513C54.4891 29.7707 55.0498 30.1304 55.8115 30.1304C56.3743 30.1304 56.8123 29.9124 57.1255 29.4766C57.4386 29.0407 57.5952 28.3848 57.5952 27.5088ZM63.105 31.127C62.174 31.127 61.4165 30.8223 60.8325 30.2129C60.2485 29.5993 59.9565 28.7804 59.9565 27.7563V27.5405C59.9565 26.8592 60.0856 26.252 60.3438 25.7188C60.6061 25.1813 60.9701 24.7624 61.4355 24.4619C61.9053 24.1572 62.4131 24.0049 62.959 24.0049C63.8519 24.0049 64.5459 24.299 65.041 24.8872C65.5361 25.4754 65.7837 26.3175 65.7837 27.4136V27.9023H61.1309C61.1478 28.5794 61.3446 29.1274 61.7212 29.5464C62.1021 29.9611 62.5845 30.1685 63.1685 30.1685C63.5832 30.1685 63.9344 30.0838 64.2222 29.9146C64.5099 29.7453 64.7617 29.521 64.9775 29.2417L65.6948 29.8003C65.1193 30.6847 64.256 31.127 63.105 31.127ZM62.959 24.9697C62.485 24.9697 62.0872 25.1432 61.7656 25.4902C61.444 25.833 61.2451 26.3154 61.1689 26.9375H64.6094V26.8486C64.5755 26.252 64.4147 25.7907 64.127 25.4648C63.8392 25.1348 63.4499 24.9697 62.959 24.9697ZM68.4243 31H67.25V21.25H68.4243V31ZM76.3843 31.127C75.4533 31.127 74.6958 30.8223 74.1118 30.2129C73.5278 29.5993 73.2358 28.7804 73.2358 27.7563V27.5405C73.2358 26.8592 73.3649 26.252 73.623 25.7188C73.8854 25.1813 74.2493 24.7624 74.7148 24.4619C75.1846 24.1572 75.6924 24.0049 76.2383 24.0049C77.1312 24.0049 77.8252 24.299 78.3203 24.8872C78.8154 25.4754 79.063 26.3175 79.063 27.4136V27.9023H74.4102C74.4271 28.5794 74.6239 29.1274 75.0005 29.5464C75.3813 29.9611 75.8638 30.1685 76.4478 30.1685C76.8625 30.1685 77.2137 30.0838 77.5015 29.9146C77.7892 29.7453 78.041 29.521 78.2568 29.2417L78.9741 29.8003C78.3986 30.6847 77.5353 31.127 76.3843 31.127ZM76.2383 24.9697C75.7643 24.9697 75.3665 25.1432 75.0449 25.4902C74.7233 25.833 74.5244 26.3154 74.4482 26.9375H77.8887V26.8486C77.8548 26.252 77.694 25.7907 77.4062 25.4648C77.1185 25.1348 76.7292 24.9697 76.2383 24.9697ZM82.7319 26.6392L84.2554 24.1318H85.6265L83.3794 27.5278L85.6963 31H84.3379L82.751 28.4292L81.1641 31H79.7993L82.1162 27.5278L79.8691 24.1318H81.2275L82.7319 26.6392ZM91.1172 31C91.0495 30.8646 90.9945 30.6234 90.9521 30.2764C90.4062 30.8434 89.7546 31.127 88.9971 31.127C88.32 31.127 87.7635 30.9365 87.3276 30.5557C86.896 30.1706 86.6802 29.6839 86.6802 29.0957C86.6802 28.3805 86.951 27.8262 87.4927 27.4326C88.0386 27.0348 88.8045 26.8359 89.7905 26.8359H90.9331V26.2964C90.9331 25.8859 90.8104 25.5601 90.5649 25.3188C90.3195 25.0734 89.9577 24.9507 89.4795 24.9507C89.0605 24.9507 88.7093 25.0565 88.4258 25.2681C88.1423 25.4797 88.0005 25.7357 88.0005 26.0361H86.8198C86.8198 25.6934 86.9404 25.3633 87.1816 25.0459C87.4271 24.7243 87.7572 24.4704 88.1719 24.2842C88.5908 24.098 89.05 24.0049 89.5493 24.0049C90.3407 24.0049 90.9606 24.2038 91.4092 24.6016C91.8577 24.9951 92.0905 25.5389 92.1074 26.2329V29.394C92.1074 30.0246 92.1878 30.526 92.3486 30.8984V31H91.1172ZM89.1685 30.105C89.5366 30.105 89.8857 30.0098 90.2158 29.8193C90.5459 29.6289 90.785 29.3813 90.9331 29.0767V27.6675H90.0127C88.5739 27.6675 87.8545 28.0885 87.8545 28.9307C87.8545 29.2988 87.9772 29.5866 88.2227 29.7939C88.4681 30.0013 88.7834 30.105 89.1685 30.105ZM95.0527 24.1318L95.0845 24.8936C95.5881 24.3011 96.2673 24.0049 97.1221 24.0049C98.0827 24.0049 98.7365 24.373 99.0835 25.1094C99.312 24.7793 99.6082 24.5127 99.9722 24.3096C100.34 24.1064 100.774 24.0049 101.273 24.0049C102.78 24.0049 103.546 24.8026 103.571 26.3979V31H102.397V26.4678C102.397 25.9769 102.285 25.6108 102.061 25.3696C101.836 25.1242 101.46 25.0015 100.931 25.0015C100.495 25.0015 100.133 25.1326 99.8452 25.395C99.5575 25.6532 99.3903 26.0023 99.3438 26.4424V31H98.1631V26.4995C98.1631 25.5008 97.6743 25.0015 96.6968 25.0015C95.9266 25.0015 95.3997 25.3294 95.1162 25.9854V31H93.9419V24.1318H95.0527ZM111.15 27.6421C111.15 28.6873 110.911 29.5295 110.433 30.1685C109.955 30.8075 109.307 31.127 108.491 31.127C107.657 31.127 107.001 30.8625 106.523 30.3335V33.6406H105.349V24.1318H106.421L106.479 24.8936C106.957 24.3011 107.621 24.0049 108.472 24.0049C109.297 24.0049 109.949 24.3159 110.427 24.938C110.909 25.5601 111.15 26.4255 111.15 27.5342V27.6421ZM109.976 27.5088C109.976 26.7344 109.811 26.1229 109.481 25.6743C109.151 25.2257 108.698 25.0015 108.123 25.0015C107.412 25.0015 106.878 25.3167 106.523 25.9473V29.229C106.874 29.8553 107.412 30.1685 108.135 30.1685C108.698 30.1685 109.145 29.9463 109.475 29.502C109.809 29.0534 109.976 28.389 109.976 27.5088ZM113.924 31H112.75V21.25H113.924V31ZM118.66 31.127C117.729 31.127 116.971 30.8223 116.387 30.2129C115.803 29.5993 115.511 28.7804 115.511 27.7563V27.5405C115.511 26.8592 115.64 26.252 115.898 25.7188C116.161 25.1813 116.525 24.7624 116.99 24.4619C117.46 24.1572 117.968 24.0049 118.514 24.0049C119.407 24.0049 120.101 24.299 120.596 24.8872C121.091 25.4754 121.338 26.3175 121.338 27.4136V27.9023H116.686C116.702 28.5794 116.899 29.1274 117.276 29.5464C117.657 29.9611 118.139 30.1685 118.723 30.1685C119.138 30.1685 119.489 30.0838 119.777 29.9146C120.065 29.7453 120.316 29.521 120.532 29.2417L121.25 29.8003C120.674 30.6847 119.811 31.127 118.66 31.127ZM118.514 24.9697C118.04 24.9697 117.642 25.1432 117.32 25.4902C116.999 25.833 116.8 26.3154 116.724 26.9375H120.164V26.8486C120.13 26.252 119.969 25.7907 119.682 25.4648C119.394 25.1348 119.005 24.9697 118.514 24.9697Z"/></svg>