<svg xmlns="http://www.w3.org/2000/svg" width="410" height="90" fill="none" viewBox="0 0 410 90"><rect width="375" height="4.387" x="18" y="40" fill="#E5F8F2"/><path fill="#00C281" d="M18 40H202C203.105 40 204 40.8954 204 42V42.3871C204 43.4917 203.105 44.3871 202 44.3871H18V40Z"/><path fill="#000" d="M31.3076 58.5142C30.4232 58.2599 29.7786 57.9484 29.374 57.5796C28.973 57.2072 28.7725 56.7489 28.7725 56.2046C28.7725 55.5887 29.0177 55.0802 29.5083 54.6792C30.0024 54.2746 30.6434 54.0723 31.4312 54.0723C31.9683 54.0723 32.4463 54.1761 32.8652 54.3838C33.2878 54.5915 33.6136 54.8779 33.8428 55.2432C34.0755 55.6084 34.1919 56.0076 34.1919 56.4409H33.1553C33.1553 55.9683 33.0049 55.5977 32.7041 55.3291C32.4033 55.057 31.979 54.9209 31.4312 54.9209C30.9227 54.9209 30.5252 55.0337 30.2388 55.2593C29.9559 55.4813 29.8145 55.791 29.8145 56.1885C29.8145 56.5072 29.9487 56.7775 30.2173 56.9995C30.4894 57.2179 30.9495 57.4185 31.5977 57.6011C32.2493 57.7837 32.7578 57.986 33.123 58.208C33.4919 58.4264 33.764 58.6825 33.9395 58.9761C34.1185 59.2697 34.208 59.6152 34.208 60.0127C34.208 60.6465 33.9609 61.1549 33.4668 61.5381C32.9727 61.9176 32.312 62.1074 31.4849 62.1074C30.9478 62.1074 30.4465 62.0054 29.981 61.8013C29.5155 61.5936 29.1556 61.3107 28.9014 60.9526C28.6507 60.5946 28.5254 60.1882 28.5254 59.7334H29.562C29.562 60.2061 29.7357 60.5802 30.083 60.856C30.4339 61.1281 30.9012 61.2642 31.4849 61.2642C32.0291 61.2642 32.4463 61.1532 32.7363 60.9312C33.0264 60.7091 33.1714 60.4066 33.1714 60.0234C33.1714 59.6403 33.0371 59.3449 32.7686 59.1372C32.5 58.9259 32.013 58.7183 31.3076 58.5142ZM36.7271 54.7812V56.1885H37.812V56.9565H36.7271V60.5605C36.7271 60.7933 36.7754 60.9688 36.8721 61.0869C36.9688 61.2015 37.1335 61.2588 37.3662 61.2588C37.4808 61.2588 37.6383 61.2373 37.8389 61.1943V62C37.5775 62.0716 37.3232 62.1074 37.0762 62.1074C36.6322 62.1074 36.2974 61.9731 36.0718 61.7046C35.8462 61.436 35.7334 61.0547 35.7334 60.5605V56.9565H34.6753V56.1885H35.7334V54.7812H36.7271ZM41.3892 62.1074C40.6014 62.1074 39.9604 61.8496 39.4663 61.334C38.9722 60.8148 38.7251 60.1219 38.7251 59.2554V59.0728C38.7251 58.4963 38.8343 57.9824 39.0527 57.5312C39.2747 57.0765 39.5827 56.722 39.9766 56.4678C40.374 56.21 40.8037 56.0811 41.2656 56.0811C42.0212 56.0811 42.6084 56.3299 43.0273 56.8276C43.4463 57.3254 43.6558 58.0379 43.6558 58.9653V59.3789H39.7188C39.7331 59.9518 39.8996 60.4155 40.2183 60.77C40.5405 61.1209 40.9487 61.2964 41.4429 61.2964C41.7938 61.2964 42.091 61.2248 42.3345 61.0815C42.578 60.9383 42.791 60.7485 42.9736 60.5122L43.5806 60.9849C43.0936 61.7332 42.3631 62.1074 41.3892 62.1074ZM41.2656 56.8975C40.8646 56.8975 40.528 57.0443 40.2559 57.3379C39.9837 57.6279 39.8154 58.0361 39.751 58.5625H42.6621V58.4873C42.6335 57.9824 42.4974 57.5921 42.2539 57.3164C42.0104 57.0371 41.681 56.8975 41.2656 56.8975ZM44.5742 59.0459C44.5742 58.14 44.7837 57.4202 45.2026 56.8867C45.6216 56.3496 46.1766 56.0811 46.8677 56.0811C47.5767 56.0811 48.1299 56.3317 48.5273 56.833L48.5757 56.1885H49.4834V61.8604C49.4834 62.6123 49.2596 63.2049 48.812 63.6382C48.368 64.0715 47.77 64.2881 47.0181 64.2881C46.5991 64.2881 46.1891 64.1986 45.7881 64.0195C45.387 63.8405 45.0809 63.5952 44.8696 63.2837L45.3853 62.6875C45.8114 63.2139 46.3324 63.4771 46.9482 63.4771C47.4316 63.4771 47.8076 63.341 48.0762 63.0688C48.3483 62.7967 48.4844 62.4136 48.4844 61.9194V61.4199C48.0869 61.8783 47.5444 62.1074 46.8569 62.1074C46.1766 62.1074 45.6252 61.8335 45.2026 61.2856C44.7837 60.7378 44.5742 59.9912 44.5742 59.0459ZM45.5732 59.1587C45.5732 59.814 45.7075 60.3296 45.9761 60.7056C46.2446 61.078 46.6206 61.2642 47.104 61.2642C47.7306 61.2642 48.1908 60.9795 48.4844 60.4102V57.7568C48.18 57.2018 47.7235 56.9243 47.1147 56.9243C46.6313 56.9243 46.2536 57.1123 45.9814 57.4883C45.7093 57.8643 45.5732 58.4211 45.5732 59.1587ZM55.0586 57.6064H55.8052C56.2743 57.5993 56.6431 57.4757 56.9116 57.2358C57.1802 56.9959 57.3145 56.6719 57.3145 56.2637C57.3145 55.347 56.8579 54.8887 55.9448 54.8887C55.5151 54.8887 55.1714 55.0122 54.9136 55.2593C54.6593 55.5028 54.5322 55.8268 54.5322 56.2314H53.5386C53.5386 55.612 53.7642 55.0981 54.2153 54.6899C54.6701 54.2782 55.2466 54.0723 55.9448 54.0723C56.6825 54.0723 57.2607 54.2674 57.6797 54.6577C58.0986 55.048 58.3081 55.5905 58.3081 56.2852C58.3081 56.6253 58.1971 56.9548 57.9751 57.2734C57.7567 57.5921 57.4577 57.8302 57.0781 57.9878C57.5078 58.1239 57.839 58.3494 58.0718 58.6646C58.3081 58.9797 58.4263 59.3646 58.4263 59.8193C58.4263 60.5212 58.1971 61.078 57.7388 61.4897C57.2804 61.9015 56.6842 62.1074 55.9502 62.1074C55.2161 62.1074 54.6182 61.9087 54.1562 61.5112C53.6979 61.1138 53.4688 60.5892 53.4688 59.9375H54.4678C54.4678 60.3493 54.6021 60.6787 54.8706 60.9258C55.1392 61.1729 55.499 61.2964 55.9502 61.2964C56.43 61.2964 56.797 61.1711 57.0513 60.9204C57.3055 60.6698 57.4326 60.3099 57.4326 59.8408C57.4326 59.3861 57.293 59.0369 57.0137 58.7935C56.7344 58.55 56.3315 58.4246 55.8052 58.4175H55.0586V57.6064ZM66.209 62C66.1517 61.8854 66.1051 61.6813 66.0693 61.3877C65.6074 61.8675 65.056 62.1074 64.415 62.1074C63.8421 62.1074 63.3713 61.9463 63.0024 61.624C62.6372 61.2982 62.4546 60.8864 62.4546 60.3887C62.4546 59.7835 62.6838 59.3145 63.1421 58.9814C63.604 58.6449 64.2521 58.4766 65.0864 58.4766H66.0532V58.02C66.0532 57.6727 65.9494 57.397 65.7417 57.1929C65.534 56.9852 65.2279 56.8813 64.8232 56.8813C64.4688 56.8813 64.1715 56.9709 63.9316 57.1499C63.6917 57.3289 63.5718 57.5456 63.5718 57.7998H62.5728C62.5728 57.5098 62.6748 57.2305 62.8789 56.9619C63.0866 56.6898 63.3659 56.4749 63.7168 56.3174C64.0713 56.1598 64.4598 56.0811 64.8823 56.0811C65.5519 56.0811 66.0765 56.2493 66.4561 56.5859C66.8356 56.9189 67.0326 57.3791 67.0469 57.9663V60.6411C67.0469 61.1746 67.1149 61.599 67.251 61.9141V62H66.209ZM64.5601 61.2427C64.8716 61.2427 65.167 61.1621 65.4463 61.001C65.7256 60.8398 65.9279 60.6304 66.0532 60.3726V59.1802H65.2744C64.057 59.1802 63.4482 59.5365 63.4482 60.249C63.4482 60.5605 63.5521 60.804 63.7598 60.9795C63.9674 61.1549 64.2342 61.2427 64.5601 61.2427ZM70.436 60.6519L71.8755 56.1885H72.8906L70.8066 62H70.0493L67.9438 56.1885H68.959L70.436 60.6519ZM80.3726 54.1743V55.0176H80.1899C79.4165 55.0319 78.8006 55.2611 78.3423 55.7051C77.884 56.1491 77.619 56.7739 77.5474 57.5796C77.9591 57.1069 78.5213 56.8706 79.2339 56.8706C79.9142 56.8706 80.4567 57.1105 80.8613 57.5903C81.2695 58.0701 81.4736 58.6896 81.4736 59.4487C81.4736 60.2544 81.2534 60.8989 80.813 61.3823C80.3761 61.8657 79.7889 62.1074 79.0513 62.1074C78.3029 62.1074 77.696 61.821 77.2305 61.248C76.765 60.6715 76.5322 59.9303 76.5322 59.0244V58.6431C76.5322 57.2036 76.8384 56.1043 77.4507 55.3452C78.0666 54.5825 78.9814 54.1922 80.1953 54.1743H80.3726ZM79.0674 57.6978C78.7272 57.6978 78.4139 57.7998 78.1274 58.0039C77.841 58.208 77.6423 58.464 77.5312 58.772V59.1372C77.5312 59.7817 77.6763 60.3009 77.9663 60.6948C78.2563 61.0887 78.618 61.2856 79.0513 61.2856C79.4989 61.2856 79.8498 61.1209 80.104 60.7915C80.3618 60.4621 80.4907 60.0306 80.4907 59.4971C80.4907 58.96 80.36 58.5267 80.0986 58.1973C79.8408 57.8643 79.4971 57.6978 79.0674 57.6978Z"/></svg>