<svg xmlns="http://www.w3.org/2000/svg" width="410" height="90" fill="none" viewBox="0 0 410 90"><rect width="375" height="4.387" x="18" y="40" fill="#E5F8F2"/><path fill="#00C281" d="M18 40H202C203.105 40 204 40.8954 204 42V42.3871C204 43.4917 203.105 44.3871 202 44.3871H18V40Z"/><path fill="#000" d="M332.308 58.5142C331.423 58.2599 330.779 57.9484 330.374 57.5796C329.973 57.2072 329.772 56.7489 329.772 56.2046C329.772 55.5887 330.018 55.0802 330.508 54.6792C331.002 54.2746 331.643 54.0723 332.431 54.0723C332.968 54.0723 333.446 54.1761 333.865 54.3838C334.288 54.5915 334.614 54.8779 334.843 55.2432C335.076 55.6084 335.192 56.0076 335.192 56.4409H334.155C334.155 55.9683 334.005 55.5977 333.704 55.3291C333.403 55.057 332.979 54.9209 332.431 54.9209C331.923 54.9209 331.525 55.0337 331.239 55.2593C330.956 55.4813 330.814 55.791 330.814 56.1885C330.814 56.5072 330.949 56.7775 331.217 56.9995C331.489 57.2179 331.95 57.4185 332.598 57.6011C333.249 57.7837 333.758 57.986 334.123 58.208C334.492 58.4264 334.764 58.6825 334.939 58.9761C335.118 59.2697 335.208 59.6152 335.208 60.0127C335.208 60.6465 334.961 61.1549 334.467 61.5381C333.973 61.9176 333.312 62.1074 332.485 62.1074C331.948 62.1074 331.446 62.0054 330.981 61.8013C330.515 61.5936 330.156 61.3107 329.901 60.9526C329.651 60.5946 329.525 60.1882 329.525 59.7334H330.562C330.562 60.2061 330.736 60.5802 331.083 60.856C331.434 61.1281 331.901 61.2642 332.485 61.2642C333.029 61.2642 333.446 61.1532 333.736 60.9312C334.026 60.7091 334.171 60.4066 334.171 60.0234C334.171 59.6403 334.037 59.3449 333.769 59.1372C333.5 58.9259 333.013 58.7183 332.308 58.5142ZM337.727 54.7812V56.1885H338.812V56.9565H337.727V60.5605C337.727 60.7933 337.775 60.9688 337.872 61.0869C337.969 61.2015 338.133 61.2588 338.366 61.2588C338.481 61.2588 338.638 61.2373 338.839 61.1943V62C338.577 62.0716 338.323 62.1074 338.076 62.1074C337.632 62.1074 337.297 61.9731 337.072 61.7046C336.846 61.436 336.733 61.0547 336.733 60.5605V56.9565H335.675V56.1885H336.733V54.7812H337.727ZM342.389 62.1074C341.601 62.1074 340.96 61.8496 340.466 61.334C339.972 60.8148 339.725 60.1219 339.725 59.2554V59.0728C339.725 58.4963 339.834 57.9824 340.053 57.5312C340.275 57.0765 340.583 56.722 340.977 56.4678C341.374 56.21 341.804 56.0811 342.266 56.0811C343.021 56.0811 343.608 56.3299 344.027 56.8276C344.446 57.3254 344.656 58.0379 344.656 58.9653V59.3789H340.719C340.733 59.9518 340.9 60.4155 341.218 60.77C341.541 61.1209 341.949 61.2964 342.443 61.2964C342.794 61.2964 343.091 61.2248 343.334 61.0815C343.578 60.9383 343.791 60.7485 343.974 60.5122L344.581 60.9849C344.094 61.7332 343.363 62.1074 342.389 62.1074ZM342.266 56.8975C341.865 56.8975 341.528 57.0443 341.256 57.3379C340.984 57.6279 340.815 58.0361 340.751 58.5625H343.662V58.4873C343.633 57.9824 343.497 57.5921 343.254 57.3164C343.01 57.0371 342.681 56.8975 342.266 56.8975ZM345.574 59.0459C345.574 58.14 345.784 57.4202 346.203 56.8867C346.622 56.3496 347.177 56.0811 347.868 56.0811C348.577 56.0811 349.13 56.3317 349.527 56.833L349.576 56.1885H350.483V61.8604C350.483 62.6123 350.26 63.2049 349.812 63.6382C349.368 64.0715 348.77 64.2881 348.018 64.2881C347.599 64.2881 347.189 64.1986 346.788 64.0195C346.387 63.8405 346.081 63.5952 345.87 63.2837L346.385 62.6875C346.811 63.2139 347.332 63.4771 347.948 63.4771C348.432 63.4771 348.808 63.341 349.076 63.0688C349.348 62.7967 349.484 62.4136 349.484 61.9194V61.4199C349.087 61.8783 348.544 62.1074 347.857 62.1074C347.177 62.1074 346.625 61.8335 346.203 61.2856C345.784 60.7378 345.574 59.9912 345.574 59.0459ZM346.573 59.1587C346.573 59.814 346.708 60.3296 346.976 60.7056C347.245 61.078 347.621 61.2642 348.104 61.2642C348.731 61.2642 349.191 60.9795 349.484 60.4102V57.7568C349.18 57.2018 348.723 56.9243 348.115 56.9243C347.631 56.9243 347.254 57.1123 346.981 57.4883C346.709 57.8643 346.573 58.4211 346.573 59.1587ZM357.879 62H356.88V55.3774L354.877 56.1133V55.2109L357.724 54.1421H357.879V62ZM367.209 62C367.152 61.8854 367.105 61.6813 367.069 61.3877C366.607 61.8675 366.056 62.1074 365.415 62.1074C364.842 62.1074 364.371 61.9463 364.002 61.624C363.637 61.2982 363.455 60.8864 363.455 60.3887C363.455 59.7835 363.684 59.3145 364.142 58.9814C364.604 58.6449 365.252 58.4766 366.086 58.4766H367.053V58.02C367.053 57.6727 366.949 57.397 366.742 57.1929C366.534 56.9852 366.228 56.8813 365.823 56.8813C365.469 56.8813 365.172 56.9709 364.932 57.1499C364.692 57.3289 364.572 57.5456 364.572 57.7998H363.573C363.573 57.5098 363.675 57.2305 363.879 56.9619C364.087 56.6898 364.366 56.4749 364.717 56.3174C365.071 56.1598 365.46 56.0811 365.882 56.0811C366.552 56.0811 367.076 56.2493 367.456 56.5859C367.836 56.9189 368.033 57.3791 368.047 57.9663V60.6411C368.047 61.1746 368.115 61.599 368.251 61.9141V62H367.209ZM365.56 61.2427C365.872 61.2427 366.167 61.1621 366.446 61.001C366.726 60.8398 366.928 60.6304 367.053 60.3726V59.1802H366.274C365.057 59.1802 364.448 59.5365 364.448 60.249C364.448 60.5605 364.552 60.804 364.76 60.9795C364.967 61.1549 365.234 61.2427 365.56 61.2427ZM371.436 60.6519L372.875 56.1885H373.891L371.807 62H371.049L368.944 56.1885H369.959L371.436 60.6519ZM382.597 62H377.473V61.2856L380.18 58.2778C380.581 57.8231 380.857 57.4543 381.007 57.1714C381.161 56.8849 381.238 56.5895 381.238 56.2852C381.238 55.877 381.115 55.5422 380.868 55.2808C380.621 55.0194 380.291 54.8887 379.879 54.8887C379.385 54.8887 379 55.0301 378.725 55.313C378.452 55.5923 378.316 55.9826 378.316 56.4839H377.323C377.323 55.7642 377.554 55.1823 378.016 54.7383C378.481 54.2943 379.102 54.0723 379.879 54.0723C380.606 54.0723 381.181 54.2638 381.604 54.647C382.026 55.0265 382.237 55.5332 382.237 56.167C382.237 56.9368 381.747 57.8535 380.766 58.917L378.671 61.189H382.597V62Z"/></svg>