<svg width="950" height="90" viewBox="0 0 950 90" fill="none" xmlns="http://www.w3.org/2000/svg">
<path d="M64 34H560" stroke="#00C281" stroke-width="2" stroke-linecap="round"/>
<path d="M557 34H904" stroke="#B2ECD9" stroke-width="2" stroke-linecap="round" stroke-dasharray="8 8"/>
<path fill-rule="evenodd" clip-rule="evenodd" d="M59 40C62.3137 40 65 37.3137 65 34C65 30.6863 62.3137 28 59 28C55.6863 28 53 30.6863 53 34C53 37.3137 55.6863 40 59 40Z" fill="#00C281"/>
<path fill-rule="evenodd" clip-rule="evenodd" d="M225 40C228.314 40 231 37.3137 231 34C231 30.6863 228.314 28 225 28C221.686 28 219 30.6863 219 34C219 37.3137 221.686 40 225 40Z" fill="#00C281"/>
<path fill-rule="evenodd" clip-rule="evenodd" d="M391 40C394.314 40 397 37.3137 397 34C397 30.6863 394.314 28 391 28C387.686 28 385 30.6863 385 34C385 37.3137 387.686 40 391 40Z" fill="#00C281"/>
<path d="M565 34C565 37.3137 562.314 40 559 40C555.686 40 553 37.3137 553 34C553 30.6863 555.686 28 559 28C562.314 28 565 30.6863 565 34Z" fill="white" stroke="#00C281" stroke-width="4"/>
<path d="M904 34C904 37.866 900.866 41 897 41C893.134 41 890 37.866 890 34C890 30.134 893.134 27 897 27C900.866 27 904 30.134 904 34Z" fill="white" stroke="#CCF3E6" stroke-width="2"/>
<path d="M736 34C736 37.866 732.866 41 729 41C725.134 41 722 37.866 722 34C722 30.134 725.134 27 729 27C732.866 27 736 30.134 736 34Z" fill="white" stroke="#CCF3E6" stroke-width="2"/>
<path d="M43.73 55.728H39.7246V59.0034H44.3774V60H38.5058V50.7578H44.314V51.7607H39.7246V54.7314H43.73V55.728ZM47.0559 53.1318L47.094 53.9951C47.6188 53.335 48.3043 53.0049 49.1507 53.0049C50.6022 53.0049 51.3343 53.8237 51.347 55.4614V60H50.1726V55.4551C50.1684 54.96 50.0541 54.5939 49.8299 54.3569C49.6098 54.12 49.2649 54.0015 48.7952 54.0015C48.4143 54.0015 48.08 54.103 47.7923 54.3062C47.5045 54.5093 47.2802 54.7759 47.1194 55.106V60H45.9451V53.1318H47.0559ZM58.0877 60H56.9134V50.25H58.0877V60ZM64.4479 60C64.3802 59.8646 64.3252 59.6234 64.2829 59.2764C63.737 59.8434 63.0853 60.127 62.3278 60.127C61.6507 60.127 61.0942 59.9365 60.6583 59.5557C60.2267 59.1706 60.0109 58.6839 60.0109 58.0957C60.0109 57.3805 60.2817 56.8262 60.8234 56.4326C61.3693 56.0348 62.1352 55.8359 63.1212 55.8359H64.2638V55.2964C64.2638 54.8859 64.1411 54.5601 63.8956 54.3188C63.6502 54.0734 63.2884 53.9507 62.8102 53.9507C62.3913 53.9507 62.04 54.0565 61.7565 54.2681C61.473 54.4797 61.3312 54.7357 61.3312 55.0361H60.1505C60.1505 54.6934 60.2711 54.3633 60.5123 54.0459C60.7578 53.7243 61.0879 53.4704 61.5026 53.2842C61.9215 53.098 62.3807 53.0049 62.88 53.0049C63.6714 53.0049 64.2913 53.2038 64.7399 53.6016C65.1885 53.9951 65.4212 54.5389 65.4381 55.2329V58.394C65.4381 59.0246 65.5185 59.526 65.6793 59.8984V60H64.4479ZM62.4992 59.105C62.8673 59.105 63.2164 59.0098 63.5465 58.8193C63.8766 58.6289 64.1157 58.3813 64.2638 58.0767V56.6675H63.3434C61.9046 56.6675 61.1852 57.0885 61.1852 57.9307C61.1852 58.2988 61.3079 58.5866 61.5534 58.7939C61.7988 59.0013 62.1141 59.105 62.4992 59.105ZM64.3717 50.9927C64.3717 51.3608 64.2405 51.6698 63.9782 51.9194C63.7158 52.1649 63.3921 52.2876 63.007 52.2876C62.6177 52.2876 62.2918 52.1628 62.0294 51.9131C61.7713 51.6634 61.6422 51.3566 61.6422 50.9927C61.6422 50.6287 61.7713 50.3177 62.0294 50.0596C62.2918 49.8014 62.6177 49.6724 63.007 49.6724C63.3963 49.6724 63.72 49.8014 63.9782 50.0596C64.2405 50.3177 64.3717 50.6287 64.3717 50.9927ZM62.2706 50.9927C62.2706 51.1916 62.3405 51.363 62.4801 51.5068C62.624 51.6507 62.7996 51.7227 63.007 51.7227C63.2101 51.7227 63.3836 51.6528 63.5275 51.5132C63.6714 51.3735 63.7433 51.2 63.7433 50.9927C63.7433 50.7853 63.6714 50.6097 63.5275 50.4658C63.3878 50.3177 63.2143 50.2437 63.007 50.2437C62.7954 50.2437 62.6198 50.3177 62.4801 50.4658C62.3405 50.6139 62.2706 50.7896 62.2706 50.9927ZM68.6244 53.1318L68.6625 53.9951C69.1873 53.335 69.8728 53.0049 70.7192 53.0049C72.1707 53.0049 72.9028 53.8237 72.9155 55.4614V60H71.7411V55.4551C71.7369 54.96 71.6227 54.5939 71.3984 54.3569C71.1783 54.12 70.8334 54.0015 70.3637 54.0015C69.9828 54.0015 69.6485 54.103 69.3608 54.3062C69.073 54.5093 68.8487 54.7759 68.6879 55.106V60H67.5136V53.1318H68.6244ZM74.6418 56.5088C74.6418 55.4382 74.8894 54.5876 75.3845 53.957C75.8796 53.3223 76.5355 53.0049 77.3523 53.0049C78.1902 53.0049 78.844 53.3011 79.3137 53.8936L79.3708 53.1318H80.4436V59.835C80.4436 60.7236 80.1791 61.424 79.6501 61.936C79.1254 62.4481 78.4187 62.7041 77.53 62.7041C77.0349 62.7041 76.5503 62.5983 76.0764 62.3867C75.6024 62.1751 75.2406 61.8853 74.9909 61.5171L75.6003 60.8125C76.1039 61.4346 76.7196 61.7456 77.4475 61.7456C78.0188 61.7456 78.4631 61.5848 78.7805 61.2632C79.1021 60.9416 79.2629 60.4888 79.2629 59.9048V59.3145C78.7932 59.8561 78.1521 60.127 77.3396 60.127C76.5355 60.127 75.8838 59.8032 75.3845 59.1558C74.8894 58.5083 74.6418 57.626 74.6418 56.5088ZM75.8225 56.6421C75.8225 57.4165 75.9812 58.0259 76.2986 58.4702C76.6159 58.9103 77.0603 59.1304 77.6316 59.1304C78.3721 59.1304 78.9159 58.7939 79.2629 58.1211V54.9854C78.9032 54.3294 78.3637 54.0015 77.6443 54.0015C77.073 54.0015 76.6265 54.2236 76.3049 54.668C75.9833 55.1123 75.8225 55.7703 75.8225 56.6421ZM22.4215 71.8198L21.6852 72.5879V75H20.5109V65.25H21.6852V71.147L22.3136 70.3916L24.4528 68.1318H25.881L23.2086 71.001L26.192 75H24.8146L22.4215 71.8198ZM30.6479 69.1855C30.4701 69.1559 30.2776 69.1411 30.0702 69.1411C29.3 69.1411 28.7774 69.4691 28.5024 70.125V75H27.328V68.1318H28.4706L28.4897 68.9253C28.8748 68.3117 29.4207 68.0049 30.1274 68.0049C30.3559 68.0049 30.5294 68.0345 30.6479 68.0938V69.1855ZM35.9543 75C35.8866 74.8646 35.8316 74.6234 35.7893 74.2764C35.2434 74.8434 34.5917 75.127 33.8342 75.127C33.1571 75.127 32.6006 74.9365 32.1647 74.5557C31.7331 74.1706 31.5173 73.6839 31.5173 73.0957C31.5173 72.3805 31.7881 71.8262 32.3298 71.4326C32.8757 71.0348 33.6416 70.8359 34.6276 70.8359H35.7702V70.2964C35.7702 69.8859 35.6475 69.5601 35.4021 69.3188C35.1566 69.0734 34.7948 68.9507 34.3166 68.9507C33.8977 68.9507 33.5464 69.0565 33.2629 69.2681C32.9794 69.4797 32.8376 69.7357 32.8376 70.0361H31.6569C31.6569 69.6934 31.7775 69.3633 32.0188 69.0459C32.2642 68.7243 32.5943 68.4704 33.009 68.2842C33.4279 68.098 33.8871 68.0049 34.3864 68.0049C35.1778 68.0049 35.7977 68.2038 36.2463 68.6016C36.6949 68.9951 36.9276 69.5389 36.9445 70.2329V73.394C36.9445 74.0246 37.0249 74.526 37.1857 74.8984V75H35.9543ZM34.0056 74.105C34.3737 74.105 34.7229 74.0098 35.0529 73.8193C35.383 73.6289 35.6221 73.3813 35.7702 73.0767V71.6675H34.8498C33.411 71.6675 32.6916 72.0885 32.6916 72.9307C32.6916 73.2988 32.8143 73.5866 33.0598 73.7939C33.3052 74.0013 33.6205 74.105 34.0056 74.105ZM35.8781 65.9927C35.8781 66.3608 35.7469 66.6698 35.4846 66.9194C35.2222 67.1649 34.8985 67.2876 34.5134 67.2876C34.1241 67.2876 33.7982 67.1628 33.5358 66.9131C33.2777 66.6634 33.1486 66.3566 33.1486 65.9927C33.1486 65.6287 33.2777 65.3177 33.5358 65.0596C33.7982 64.8014 34.1241 64.6724 34.5134 64.6724C34.9027 64.6724 35.2264 64.8014 35.4846 65.0596C35.7469 65.3177 35.8781 65.6287 35.8781 65.9927ZM33.7771 65.9927C33.7771 66.1916 33.8469 66.363 33.9865 66.5068C34.1304 66.6507 34.306 66.7227 34.5134 66.7227C34.7165 66.7227 34.89 66.6528 35.0339 66.5132C35.1778 66.3735 35.2497 66.2 35.2497 65.9927C35.2497 65.7853 35.1778 65.6097 35.0339 65.4658C34.8942 65.3177 34.7207 65.2437 34.5134 65.2437C34.3018 65.2437 34.1262 65.3177 33.9865 65.4658C33.8469 65.6139 33.7771 65.7896 33.7771 65.9927ZM40.1308 68.1318L40.1689 68.9951C40.6937 68.335 41.3792 68.0049 42.2256 68.0049C43.6771 68.0049 44.4092 68.8237 44.4219 70.4614V75H43.2475V70.4551C43.2433 69.96 43.1291 69.5939 42.9048 69.3569C42.6847 69.12 42.3398 69.0015 41.8701 69.0015C41.4892 69.0015 41.1549 69.103 40.8672 69.3062C40.5794 69.5093 40.3551 69.7759 40.1943 70.106V75H39.02V68.1318H40.1308ZM46.1482 71.5088C46.1482 70.4382 46.3958 69.5876 46.8909 68.957C47.386 68.3223 48.0419 68.0049 48.8587 68.0049C49.6966 68.0049 50.3504 68.3011 50.8201 68.8936L50.8772 68.1318H51.95V74.835C51.95 75.7236 51.6855 76.424 51.1565 76.936C50.6318 77.4481 49.9251 77.7041 49.0364 77.7041C48.5413 77.7041 48.0568 77.5983 47.5828 77.3867C47.1088 77.1751 46.747 76.8853 46.4973 76.5171L47.1067 75.8125C47.6103 76.4346 48.226 76.7456 48.9539 76.7456C49.5252 76.7456 49.9695 76.5848 50.2869 76.2632C50.6085 75.9416 50.7693 75.4888 50.7693 74.9048V74.3145C50.2996 74.8561 49.6585 75.127 48.846 75.127C48.0419 75.127 47.3902 74.8032 46.8909 74.1558C46.3958 73.5083 46.1482 72.626 46.1482 71.5088ZM47.3289 71.6421C47.3289 72.4165 47.4876 73.0259 47.805 73.4702C48.1223 73.9103 48.5667 74.1304 49.138 74.1304C49.8785 74.1304 50.4223 73.7939 50.7693 73.1211V69.9854C50.4096 69.3294 49.8701 69.0015 49.1507 69.0015C48.5794 69.0015 48.1329 69.2236 47.8113 69.668C47.4897 70.1123 47.3289 70.7703 47.3289 71.6421ZM55.2379 75H54.0635V65.25H55.2379V75ZM58.6336 75H57.4593V68.1318H58.6336V75ZM57.3641 66.3101C57.3641 66.1196 57.4212 65.9588 57.5355 65.8276C57.654 65.6965 57.8275 65.6309 58.056 65.6309C58.2845 65.6309 58.458 65.6965 58.5765 65.8276C58.695 65.9588 58.7543 66.1196 58.7543 66.3101C58.7543 66.5005 58.695 66.6592 58.5765 66.7861C58.458 66.9131 58.2845 66.9766 58.056 66.9766C57.8275 66.9766 57.654 66.9131 57.5355 66.7861C57.4212 66.6592 57.3641 66.5005 57.3641 66.3101ZM60.4743 71.5088C60.4743 70.4382 60.7218 69.5876 61.2169 68.957C61.7121 68.3223 62.368 68.0049 63.1847 68.0049C64.0226 68.0049 64.6764 68.3011 65.1461 68.8936L65.2033 68.1318H66.276V74.835C66.276 75.7236 66.0115 76.424 65.4826 76.936C64.9578 77.4481 64.2511 77.7041 63.3624 77.7041C62.8673 77.7041 62.3828 77.5983 61.9088 77.3867C61.4349 77.1751 61.0731 76.8853 60.8234 76.5171L61.4328 75.8125C61.9363 76.4346 62.5521 76.7456 63.2799 76.7456C63.8512 76.7456 64.2956 76.5848 64.6129 76.2632C64.9345 75.9416 65.0954 75.4888 65.0954 74.9048V74.3145C64.6256 74.8561 63.9845 75.127 63.172 75.127C62.368 75.127 61.7163 74.8032 61.2169 74.1558C60.7218 73.5083 60.4743 72.626 60.4743 71.5088ZM61.6549 71.6421C61.6549 72.4165 61.8136 73.0259 62.131 73.4702C62.4484 73.9103 62.8927 74.1304 63.464 74.1304C64.2046 74.1304 64.7484 73.7939 65.0954 73.1211V69.9854C64.7357 69.3294 64.1961 69.0015 63.4767 69.0015C62.9054 69.0015 62.459 69.2236 62.1373 69.668C61.8157 70.1123 61.6549 70.7703 61.6549 71.6421ZM73.0232 75H71.8489V65.25H73.0232V75ZM79.3833 75C79.3156 74.8646 79.2606 74.6234 79.2183 74.2764C78.6724 74.8434 78.0207 75.127 77.2632 75.127C76.5861 75.127 76.0296 74.9365 75.5938 74.5557C75.1621 74.1706 74.9463 73.6839 74.9463 73.0957C74.9463 72.3805 75.2171 71.8262 75.7588 71.4326C76.3047 71.0348 77.0706 70.8359 78.0567 70.8359H79.1992V70.2964C79.1992 69.8859 79.0765 69.5601 78.8311 69.3188C78.5856 69.0734 78.2238 68.9507 77.7456 68.9507C77.3267 68.9507 76.9754 69.0565 76.6919 69.2681C76.4084 69.4797 76.2666 69.7357 76.2666 70.0361H75.0859C75.0859 69.6934 75.2066 69.3633 75.4478 69.0459C75.6932 68.7243 76.0233 68.4704 76.438 68.2842C76.8569 68.098 77.3161 68.0049 77.8154 68.0049C78.6068 68.0049 79.2267 68.2038 79.6753 68.6016C80.1239 68.9951 80.3566 69.5389 80.3735 70.2329V73.394C80.3735 74.0246 80.454 74.526 80.6148 74.8984V75H79.3833ZM77.4346 74.105C77.8027 74.105 78.1519 74.0098 78.4819 73.8193C78.812 73.6289 79.0511 73.3813 79.1992 73.0767V71.6675H78.2788C76.84 71.6675 76.1206 72.0885 76.1206 72.9307C76.1206 73.2988 76.2433 73.5866 76.4888 73.7939C76.7342 74.0013 77.0495 74.105 77.4346 74.105ZM88.2635 71.6421C88.2635 72.6916 88.0223 73.5358 87.5398 74.1748C87.0574 74.8096 86.41 75.127 85.5975 75.127C84.7299 75.127 84.0592 74.8201 83.5853 74.2065L83.5281 75H82.449V65.25H83.6233V68.8872C84.0973 68.299 84.7511 68.0049 85.5848 68.0049C86.4184 68.0049 87.0722 68.3201 87.5462 68.9507C88.0244 69.5812 88.2635 70.4445 88.2635 71.5405V71.6421ZM87.0892 71.5088C87.0892 70.709 86.9347 70.0911 86.6258 69.6553C86.3169 69.2194 85.8725 69.0015 85.2928 69.0015C84.5184 69.0015 83.9619 69.3612 83.6233 70.0806V73.0513C83.983 73.7707 84.5437 74.1304 85.3055 74.1304C85.8683 74.1304 86.3063 73.9124 86.6194 73.4766C86.9326 73.0407 87.0892 72.3848 87.0892 71.5088ZM92.8336 75.127C91.9026 75.127 91.1451 74.8223 90.5611 74.2129C89.9771 73.5993 89.6851 72.7804 89.6851 71.7563V71.5405C89.6851 70.8592 89.8142 70.252 90.0723 69.7188C90.3347 69.1813 90.6987 68.7624 91.1641 68.4619C91.6339 68.1572 92.1417 68.0049 92.6876 68.0049C93.5805 68.0049 94.2745 68.299 94.7696 68.8872C95.2647 69.4754 95.5123 70.3175 95.5123 71.4136V71.9023H90.8595C90.8764 72.5794 91.0732 73.1274 91.4498 73.5464C91.8307 73.9611 92.3131 74.1685 92.8971 74.1685C93.3118 74.1685 93.663 74.0838 93.9508 73.9146C94.2385 73.7453 94.4903 73.521 94.7061 73.2417L95.4234 73.8003C94.8479 74.6847 93.9846 75.127 92.8336 75.127ZM92.6876 68.9697C92.2136 68.9697 91.8158 69.1432 91.4942 69.4902C91.1726 69.833 90.9737 70.3154 90.8975 70.9375H94.338V70.8486C94.3041 70.252 94.1433 69.7907 93.8556 69.4648C93.5678 69.1348 93.1785 68.9697 92.6876 68.9697ZM98.3876 75H97.2133V65.25H98.3876V75Z" fill="#222222"/>
<path d="M205.402 60V50.7578H208.424C209.427 50.7578 210.18 50.9652 210.683 51.3799C211.191 51.7946 211.445 52.4082 211.445 53.2207C211.445 53.6523 211.322 54.0353 211.077 54.3696C210.831 54.6997 210.497 54.9557 210.074 55.1377C210.573 55.2773 210.967 55.5439 211.255 55.9375C211.547 56.3268 211.693 56.7923 211.693 57.334C211.693 58.1634 211.424 58.8151 210.887 59.2891C210.349 59.763 209.589 60 208.608 60H205.402ZM206.621 55.6772V59.0034H208.633C209.2 59.0034 209.647 58.8574 209.972 58.5654C210.303 58.2692 210.468 57.863 210.468 57.3467C210.468 56.2337 209.862 55.6772 208.652 55.6772H206.621ZM206.621 54.6997H208.462C208.995 54.6997 209.42 54.5664 209.738 54.2998C210.059 54.0332 210.22 53.6714 210.22 53.2144C210.22 52.7065 210.072 52.3384 209.776 52.1099C209.479 51.8771 209.029 51.7607 208.424 51.7607H206.621V54.6997ZM216.402 60.127C215.471 60.127 214.714 59.8223 214.13 59.2129C213.546 58.5993 213.254 57.7804 213.254 56.7563V56.5405C213.254 55.8592 213.383 55.252 213.641 54.7188C213.904 54.1813 214.267 53.7624 214.733 53.4619C215.203 53.1572 215.711 53.0049 216.256 53.0049C217.149 53.0049 217.843 53.299 218.338 53.8872C218.834 54.4754 219.081 55.3175 219.081 56.4136V56.9023H214.428C214.445 57.5794 214.642 58.1274 215.019 58.5464C215.399 58.9611 215.882 59.1685 216.466 59.1685C216.881 59.1685 217.232 59.0838 217.52 58.9146C217.807 58.7453 218.059 58.521 218.275 58.2417L218.992 58.8003C218.417 59.6847 217.553 60.127 216.402 60.127ZM216.256 53.9697C215.782 53.9697 215.385 54.1432 215.063 54.4902C214.741 54.833 214.543 55.3154 214.466 55.9375H217.907V55.8486C217.873 55.252 217.712 54.7907 217.424 54.4648C217.137 54.1348 216.747 53.9697 216.256 53.9697ZM221.956 60H220.782V50.25H221.956V60ZM223.765 56.5024C223.765 55.8296 223.896 55.2244 224.159 54.687C224.425 54.1496 224.794 53.7349 225.263 53.4429C225.737 53.1509 226.277 53.0049 226.882 53.0049C227.817 53.0049 228.573 53.3286 229.148 53.9761C229.728 54.6235 230.018 55.4847 230.018 56.5596V56.6421C230.018 57.3107 229.889 57.9116 229.631 58.4448C229.377 58.9738 229.011 59.3864 228.532 59.6826C228.058 59.9788 227.513 60.127 226.895 60.127C225.964 60.127 225.208 59.8032 224.629 59.1558C224.053 58.5083 223.765 57.6514 223.765 56.585V56.5024ZM224.946 56.6421C224.946 57.4038 225.122 58.0153 225.473 58.4766C225.828 58.9378 226.302 59.1685 226.895 59.1685C227.491 59.1685 227.965 58.9357 228.317 58.4702C228.668 58.0005 228.843 57.3446 228.843 56.5024C228.843 55.7492 228.664 55.1398 228.304 54.6743C227.948 54.2046 227.474 53.9697 226.882 53.9697C226.302 53.9697 225.835 54.2004 225.479 54.6616C225.124 55.1229 224.946 55.783 224.946 56.6421ZM237.527 56.6421C237.527 57.6873 237.288 58.5295 236.81 59.1685C236.331 59.8075 235.684 60.127 234.867 60.127C234.033 60.127 233.378 59.8625 232.899 59.3335V62.6406H231.725V53.1318H232.798L232.855 53.8936C233.333 53.3011 233.997 53.0049 234.848 53.0049C235.673 53.0049 236.325 53.3159 236.803 53.938C237.286 54.5601 237.527 55.4255 237.527 56.5342V56.6421ZM236.352 56.5088C236.352 55.7344 236.187 55.1229 235.857 54.6743C235.527 54.2257 235.074 54.0015 234.499 54.0015C233.788 54.0015 233.255 54.3167 232.899 54.9473V58.229C233.251 58.8553 233.788 59.1685 234.512 59.1685C235.074 59.1685 235.521 58.9463 235.851 58.502C236.185 58.0534 236.352 57.389 236.352 56.5088ZM245.061 56.6421C245.061 57.6873 244.822 58.5295 244.344 59.1685C243.866 59.8075 243.218 60.127 242.402 60.127C241.568 60.127 240.912 59.8625 240.434 59.3335V62.6406H239.259V53.1318H240.332L240.389 53.8936C240.868 53.3011 241.532 53.0049 242.383 53.0049C243.208 53.0049 243.859 53.3159 244.338 53.938C244.82 54.5601 245.061 55.4255 245.061 56.5342V56.6421ZM243.887 56.5088C243.887 55.7344 243.722 55.1229 243.392 54.6743C243.062 54.2257 242.609 54.0015 242.033 54.0015C241.322 54.0015 240.789 54.3167 240.434 54.9473V58.229C240.785 58.8553 241.322 59.1685 242.046 59.1685C242.609 59.1685 243.055 58.9463 243.385 58.502C243.72 58.0534 243.887 57.389 243.887 56.5088Z" fill="#222222"/>
<path d="M533.645 55.9185H529.767V60H528.548V50.7578H534.274V51.7607H529.767V54.9219H533.645V55.9185ZM535.333 56.5024C535.333 55.8296 535.465 55.2244 535.727 54.687C535.994 54.1496 536.362 53.7349 536.832 53.4429C537.305 53.1509 537.845 53.0049 538.45 53.0049C539.385 53.0049 540.141 53.3286 540.716 53.9761C541.296 54.6235 541.586 55.4847 541.586 56.5596V56.6421C541.586 57.3107 541.457 57.9116 541.199 58.4448C540.945 58.9738 540.579 59.3864 540.101 59.6826C539.627 59.9788 539.081 60.127 538.463 60.127C537.532 60.127 536.777 59.8032 536.197 59.1558C535.621 58.5083 535.333 57.6514 535.333 56.585V56.5024ZM536.514 56.6421C536.514 57.4038 536.69 58.0153 537.041 58.4766C537.396 58.9378 537.87 59.1685 538.463 59.1685C539.06 59.1685 539.534 58.9357 539.885 58.4702C540.236 58.0005 540.412 57.3446 540.412 56.5024C540.412 55.7492 540.232 55.1398 539.872 54.6743C539.517 54.2046 539.043 53.9697 538.45 53.9697C537.87 53.9697 537.403 54.2004 537.047 54.6616C536.692 55.1229 536.514 55.783 536.514 56.6421ZM536.362 51.2974C536.362 51.1069 536.419 50.9482 536.533 50.8213C536.652 50.6901 536.825 50.6245 537.054 50.6245C537.282 50.6245 537.456 50.6901 537.574 50.8213C537.693 50.9482 537.752 51.1069 537.752 51.2974C537.752 51.4878 537.693 51.6465 537.574 51.7734C537.456 51.9004 537.282 51.9639 537.054 51.9639C536.825 51.9639 536.652 51.9004 536.533 51.7734C536.419 51.6465 536.362 51.4878 536.362 51.2974ZM539.091 51.3101C539.091 51.1196 539.148 50.9588 539.263 50.8276C539.381 50.6965 539.555 50.6309 539.783 50.6309C540.012 50.6309 540.185 50.6965 540.304 50.8276C540.422 50.9588 540.481 51.1196 540.481 51.3101C540.481 51.5005 540.422 51.6592 540.304 51.7861C540.185 51.9131 540.012 51.9766 539.783 51.9766C539.555 51.9766 539.381 51.9131 539.263 51.7861C539.148 51.6592 539.091 51.5005 539.091 51.3101ZM546.613 54.1855C546.435 54.1559 546.243 54.1411 546.035 54.1411C545.265 54.1411 544.743 54.4691 544.468 55.125V60H543.293V53.1318H544.436L544.455 53.9253C544.84 53.3117 545.386 53.0049 546.093 53.0049C546.321 53.0049 546.495 53.0345 546.613 53.0938V54.1855ZM547.521 56.5088C547.521 55.4551 547.77 54.6087 548.27 53.9697C548.769 53.3265 549.423 53.0049 550.231 53.0049C551.035 53.0049 551.672 53.2799 552.142 53.8301V50.25H553.316V60H552.237L552.18 59.2637C551.71 59.8392 551.056 60.127 550.218 60.127C549.423 60.127 548.773 59.8011 548.27 59.1494C547.77 58.4977 547.521 57.6471 547.521 56.5977V56.5088ZM548.695 56.6421C548.695 57.4207 548.856 58.0301 549.177 58.4702C549.499 58.9103 549.943 59.1304 550.51 59.1304C551.255 59.1304 551.799 58.7961 552.142 58.1274V54.9727C551.79 54.3252 551.251 54.0015 550.523 54.0015C549.947 54.0015 549.499 54.2236 549.177 54.668C548.856 55.1123 548.695 55.7703 548.695 56.6421ZM558.229 60.127C557.298 60.127 556.54 59.8223 555.956 59.2129C555.372 58.5993 555.08 57.7804 555.08 56.7563V56.5405C555.08 55.8592 555.209 55.252 555.468 54.7188C555.73 54.1813 556.094 53.7624 556.559 53.4619C557.029 53.1572 557.537 53.0049 558.083 53.0049C558.976 53.0049 559.67 53.299 560.165 53.8872C560.66 54.4754 560.908 55.3175 560.908 56.4136V56.9023H556.255C556.272 57.5794 556.468 58.1274 556.845 58.5464C557.226 58.9611 557.708 59.1685 558.292 59.1685C558.707 59.1685 559.058 59.0838 559.346 58.9146C559.634 58.7453 559.886 58.521 560.101 58.2417L560.819 58.8003C560.243 59.6847 559.38 60.127 558.229 60.127ZM558.083 53.9697C557.609 53.9697 557.211 54.1432 556.89 54.4902C556.568 54.833 556.369 55.3154 556.293 55.9375H559.733V55.8486C559.699 55.252 559.539 54.7907 559.251 54.4648C558.963 54.1348 558.574 53.9697 558.083 53.9697ZM563.783 60H562.609V50.25H563.783V60ZM567.014 53.1318L567.052 53.9951C567.576 53.335 568.262 53.0049 569.108 53.0049C570.56 53.0049 571.292 53.8237 571.305 55.4614V60H570.13V55.4551C570.126 54.96 570.012 54.5939 569.788 54.3569C569.567 54.12 569.223 54.0015 568.753 54.0015C568.372 54.0015 568.038 54.103 567.75 54.3062C567.462 54.5093 567.238 54.7759 567.077 55.106V60H565.903V53.1318H567.014ZM574.586 60H573.412V53.1318H574.586V60ZM573.317 51.3101C573.317 51.1196 573.374 50.9588 573.488 50.8276C573.606 50.6965 573.78 50.6309 574.009 50.6309C574.237 50.6309 574.411 50.6965 574.529 50.8276C574.648 50.9588 574.707 51.1196 574.707 51.3101C574.707 51.5005 574.648 51.6592 574.529 51.7861C574.411 51.9131 574.237 51.9766 574.009 51.9766C573.78 51.9766 573.606 51.9131 573.488 51.7861C573.374 51.6592 573.317 51.5005 573.317 51.3101ZM577.817 53.1318L577.855 53.9951C578.38 53.335 579.065 53.0049 579.912 53.0049C581.363 53.0049 582.095 53.8237 582.108 55.4614V60H580.934V55.4551C580.929 54.96 580.815 54.5939 580.591 54.3569C580.371 54.12 580.026 54.0015 579.556 54.0015C579.175 54.0015 578.841 54.103 578.553 54.3062C578.265 54.5093 578.041 54.7759 577.88 55.106V60H576.706V53.1318H577.817ZM583.834 56.5088C583.834 55.4382 584.082 54.5876 584.577 53.957C585.072 53.3223 585.728 53.0049 586.545 53.0049C587.383 53.0049 588.036 53.3011 588.506 53.8936L588.563 53.1318H589.636V59.835C589.636 60.7236 589.372 61.424 588.843 61.936C588.318 62.4481 587.611 62.7041 586.722 62.7041C586.227 62.7041 585.743 62.5983 585.269 62.3867C584.795 62.1751 584.433 61.8853 584.183 61.5171L584.793 60.8125C585.296 61.4346 585.912 61.7456 586.64 61.7456C587.211 61.7456 587.656 61.5848 587.973 61.2632C588.295 60.9416 588.455 60.4888 588.455 59.9048V59.3145C587.986 59.8561 587.345 60.127 586.532 60.127C585.728 60.127 585.076 59.8032 584.577 59.1558C584.082 58.5083 583.834 57.626 583.834 56.5088ZM585.015 56.6421C585.015 57.4165 585.174 58.0259 585.491 58.4702C585.808 58.9103 586.253 59.1304 586.824 59.1304C587.565 59.1304 588.108 58.7939 588.455 58.1211V54.9854C588.096 54.3294 587.556 54.0015 586.837 54.0015C586.265 54.0015 585.819 54.2236 585.497 54.668C585.176 55.1123 585.015 55.7703 585.015 56.6421Z" fill="#222222"/>
<path d="M881.865 55.8804C880.819 55.5799 880.058 55.2118 879.579 54.7759C879.105 54.3358 878.868 53.7941 878.868 53.1509C878.868 52.423 879.158 51.8221 879.738 51.3481C880.322 50.87 881.08 50.6309 882.011 50.6309C882.645 50.6309 883.21 50.7536 883.705 50.999C884.205 51.2445 884.59 51.583 884.861 52.0146C885.136 52.4463 885.273 52.9181 885.273 53.4302H884.048C884.048 52.8716 883.87 52.4336 883.515 52.1162C883.159 51.7946 882.658 51.6338 882.011 51.6338C881.41 51.6338 880.94 51.7671 880.601 52.0337C880.267 52.2961 880.1 52.6621 880.1 53.1318C880.1 53.5085 880.259 53.828 880.576 54.0903C880.898 54.3485 881.441 54.5854 882.207 54.8013C882.977 55.0171 883.578 55.2562 884.01 55.5186C884.446 55.7767 884.768 56.0793 884.975 56.4263C885.186 56.7733 885.292 57.1816 885.292 57.6514C885.292 58.4004 885 59.0013 884.416 59.4541C883.832 59.9027 883.052 60.127 882.074 60.127C881.439 60.127 880.847 60.0063 880.297 59.7651C879.747 59.5197 879.321 59.1854 879.021 58.7622C878.725 58.339 878.576 57.8587 878.576 57.3213H879.802C879.802 57.8799 880.007 58.3221 880.417 58.6479C880.832 58.9696 881.384 59.1304 882.074 59.1304C882.717 59.1304 883.21 58.9992 883.553 58.7368C883.896 58.4744 884.067 58.1169 884.067 57.6641C884.067 57.2113 883.908 56.8621 883.591 56.6167C883.274 56.367 882.698 56.1216 881.865 55.8804ZM888.504 51.4688V53.1318H889.786V54.0396H888.504V58.2988C888.504 58.5739 888.561 58.7812 888.675 58.9209C888.79 59.0563 888.984 59.124 889.259 59.124C889.395 59.124 889.581 59.0986 889.818 59.0479V60C889.509 60.0846 889.209 60.127 888.917 60.127C888.392 60.127 887.996 59.9683 887.73 59.6509C887.463 59.3335 887.33 58.8828 887.33 58.2988V54.0396H886.079V53.1318H887.33V51.4688H888.504ZM894.248 60.127C893.317 60.127 892.56 59.8223 891.976 59.2129C891.392 58.5993 891.1 57.7804 891.1 56.7563V56.5405C891.1 55.8592 891.229 55.252 891.487 54.7188C891.75 54.1813 892.113 53.7624 892.579 53.4619C893.049 53.1572 893.557 53.0049 894.102 53.0049C894.995 53.0049 895.689 53.299 896.184 53.8872C896.68 54.4754 896.927 55.3175 896.927 56.4136V56.9023H892.274C892.291 57.5794 892.488 58.1274 892.865 58.5464C893.245 58.9611 893.728 59.1685 894.312 59.1685C894.727 59.1685 895.078 59.0838 895.366 58.9146C895.653 58.7453 895.905 58.521 896.121 58.2417L896.838 58.8003C896.263 59.6847 895.399 60.127 894.248 60.127ZM894.102 53.9697C893.628 53.9697 893.231 54.1432 892.909 54.4902C892.587 54.833 892.389 55.3154 892.312 55.9375H895.753V55.8486C895.719 55.252 895.558 54.7907 895.27 54.4648C894.983 54.1348 894.593 53.9697 894.102 53.9697ZM904.328 56.6421C904.328 57.6873 904.089 58.5295 903.611 59.1685C903.133 59.8075 902.485 60.127 901.669 60.127C900.835 60.127 900.179 59.8625 899.701 59.3335V62.6406H898.527V53.1318H899.599L899.656 53.8936C900.135 53.3011 900.799 53.0049 901.65 53.0049C902.475 53.0049 903.126 53.3159 903.605 53.938C904.087 54.5601 904.328 55.4255 904.328 56.5342V56.6421ZM903.154 56.5088C903.154 55.7344 902.989 55.1229 902.659 54.6743C902.329 54.2257 901.876 54.0015 901.3 54.0015C900.589 54.0015 900.056 54.3167 899.701 54.9473V58.229C900.052 58.8553 900.589 59.1685 901.313 59.1685C901.876 59.1685 902.322 58.9463 902.652 58.502C902.987 58.0534 903.154 57.389 903.154 56.5088ZM914.008 50.7515V51.748H913.792C912.878 51.765 912.15 52.0358 911.609 52.5605C911.067 53.0853 910.754 53.8237 910.669 54.7759C911.156 54.2173 911.82 53.938 912.662 53.938C913.466 53.938 914.107 54.2215 914.586 54.7886C915.068 55.3556 915.309 56.0877 915.309 56.9849C915.309 57.937 915.049 58.6987 914.529 59.27C914.012 59.8413 913.318 60.127 912.447 60.127C911.562 60.127 910.845 59.7884 910.295 59.1113C909.745 58.43 909.469 57.554 909.469 56.4834V56.0327C909.469 54.3315 909.831 53.0324 910.555 52.1353C911.283 51.2339 912.364 50.7726 913.799 50.7515H914.008ZM912.466 54.9155C912.064 54.9155 911.693 55.0361 911.355 55.2773C911.016 55.5186 910.781 55.8211 910.65 56.1851V56.6167C910.65 57.3784 910.822 57.992 911.164 58.4575C911.507 58.923 911.934 59.1558 912.447 59.1558C912.975 59.1558 913.39 58.9611 913.691 58.5718C913.995 58.1825 914.148 57.6725 914.148 57.042C914.148 56.4072 913.993 55.8952 913.684 55.5059C913.38 55.1123 912.973 54.9155 912.466 54.9155Z" fill="#6A6A6A"/>
<path d="M713.865 55.8804C712.819 55.5799 712.058 55.2118 711.579 54.7759C711.105 54.3358 710.868 53.7941 710.868 53.1509C710.868 52.423 711.158 51.8221 711.738 51.3481C712.322 50.87 713.08 50.6309 714.011 50.6309C714.645 50.6309 715.21 50.7536 715.705 50.999C716.205 51.2445 716.59 51.583 716.861 52.0146C717.136 52.4463 717.273 52.9181 717.273 53.4302H716.048C716.048 52.8716 715.87 52.4336 715.515 52.1162C715.159 51.7946 714.658 51.6338 714.011 51.6338C713.41 51.6338 712.94 51.7671 712.601 52.0337C712.267 52.2961 712.1 52.6621 712.1 53.1318C712.1 53.5085 712.259 53.828 712.576 54.0903C712.898 54.3485 713.441 54.5854 714.207 54.8013C714.977 55.0171 715.578 55.2562 716.01 55.5186C716.446 55.7767 716.768 56.0793 716.975 56.4263C717.186 56.7733 717.292 57.1816 717.292 57.6514C717.292 58.4004 717 59.0013 716.416 59.4541C715.832 59.9027 715.052 60.127 714.074 60.127C713.439 60.127 712.847 60.0063 712.297 59.7651C711.747 59.5197 711.321 59.1854 711.021 58.7622C710.725 58.339 710.576 57.8587 710.576 57.3213H711.802C711.802 57.8799 712.007 58.3221 712.417 58.6479C712.832 58.9696 713.384 59.1304 714.074 59.1304C714.717 59.1304 715.21 58.9992 715.553 58.7368C715.896 58.4744 716.067 58.1169 716.067 57.6641C716.067 57.2113 715.908 56.8621 715.591 56.6167C715.274 56.367 714.698 56.1216 713.865 55.8804ZM720.504 51.4688V53.1318H721.786V54.0396H720.504V58.2988C720.504 58.5739 720.561 58.7812 720.675 58.9209C720.79 59.0563 720.984 59.124 721.259 59.124C721.395 59.124 721.581 59.0986 721.818 59.0479V60C721.509 60.0846 721.209 60.127 720.917 60.127C720.392 60.127 719.996 59.9683 719.73 59.6509C719.463 59.3335 719.33 58.8828 719.33 58.2988V54.0396H718.079V53.1318H719.33V51.4688H720.504ZM726.248 60.127C725.317 60.127 724.56 59.8223 723.976 59.2129C723.392 58.5993 723.1 57.7804 723.1 56.7563V56.5405C723.1 55.8592 723.229 55.252 723.487 54.7188C723.75 54.1813 724.113 53.7624 724.579 53.4619C725.049 53.1572 725.557 53.0049 726.102 53.0049C726.995 53.0049 727.689 53.299 728.184 53.8872C728.68 54.4754 728.927 55.3175 728.927 56.4136V56.9023H724.274C724.291 57.5794 724.488 58.1274 724.865 58.5464C725.245 58.9611 725.728 59.1685 726.312 59.1685C726.727 59.1685 727.078 59.0838 727.366 58.9146C727.653 58.7453 727.905 58.521 728.121 58.2417L728.838 58.8003C728.263 59.6847 727.399 60.127 726.248 60.127ZM726.102 53.9697C725.628 53.9697 725.231 54.1432 724.909 54.4902C724.587 54.833 724.389 55.3154 724.312 55.9375H727.753V55.8486C727.719 55.252 727.558 54.7907 727.27 54.4648C726.983 54.1348 726.593 53.9697 726.102 53.9697ZM736.328 56.6421C736.328 57.6873 736.089 58.5295 735.611 59.1685C735.133 59.8075 734.485 60.127 733.669 60.127C732.835 60.127 732.179 59.8625 731.701 59.3335V62.6406H730.527V53.1318H731.599L731.656 53.8936C732.135 53.3011 732.799 53.0049 733.65 53.0049C734.475 53.0049 735.126 53.3159 735.605 53.938C736.087 54.5601 736.328 55.4255 736.328 56.5342V56.6421ZM735.154 56.5088C735.154 55.7344 734.989 55.1229 734.659 54.6743C734.329 54.2257 733.876 54.0015 733.3 54.0015C732.589 54.0015 732.056 54.3167 731.701 54.9473V58.229C732.052 58.8553 732.589 59.1685 733.313 59.1685C733.876 59.1685 734.322 58.9463 734.652 58.502C734.987 58.0534 735.154 57.389 735.154 56.5088ZM741.939 55.3662L742.409 50.7578H747.144V51.8433H743.405L743.126 54.3633C743.579 54.0967 744.093 53.9634 744.669 53.9634C745.511 53.9634 746.179 54.2427 746.675 54.8013C747.17 55.3556 747.417 56.1068 747.417 57.0547C747.417 58.0068 747.159 58.758 746.643 59.3081C746.131 59.854 745.413 60.127 744.491 60.127C743.674 60.127 743.008 59.9006 742.491 59.4478C741.975 58.995 741.681 58.3687 741.609 57.5688H742.72C742.792 58.0978 742.98 58.4977 743.285 58.7686C743.59 59.0352 743.992 59.1685 744.491 59.1685C745.037 59.1685 745.464 58.9823 745.773 58.6099C746.086 58.2375 746.243 57.7233 746.243 57.0674C746.243 56.4495 746.074 55.9544 745.735 55.582C745.401 55.2054 744.954 55.0171 744.396 55.0171C743.884 55.0171 743.482 55.1292 743.19 55.3535L742.879 55.6074L741.939 55.3662Z" fill="#6A6A6A"/>
<path d="M347.301 55.728H343.295V59.0034H347.948V60H342.076V50.7578H347.885V51.7607H343.295V54.7314H347.301V55.728ZM350.627 53.1318L350.665 53.9951C351.189 53.335 351.875 53.0049 352.721 53.0049C354.173 53.0049 354.905 53.8237 354.918 55.4614V60H353.743V55.4551C353.739 54.96 353.625 54.5939 353.4 54.3569C353.18 54.12 352.835 54.0015 352.366 54.0015C351.985 54.0015 351.651 54.103 351.363 54.3062C351.075 54.5093 350.851 54.7759 350.69 55.106V60H349.516V53.1318H350.627ZM361.976 51.4688V53.1318H363.258V54.0396H361.976V58.2988C361.976 58.5739 362.033 58.7812 362.147 58.9209C362.261 59.0563 362.456 59.124 362.731 59.124C362.866 59.124 363.053 59.0986 363.29 59.0479V60C362.981 60.0846 362.68 60.127 362.388 60.127C361.864 60.127 361.468 59.9683 361.201 59.6509C360.935 59.3335 360.801 58.8828 360.801 58.2988V54.0396H359.551V53.1318H360.801V51.4688H361.976ZM366.146 60H364.972V53.1318H366.146V60ZM364.876 51.3101C364.876 51.1196 364.934 50.9588 365.048 50.8276C365.166 50.6965 365.34 50.6309 365.568 50.6309C365.797 50.6309 365.97 50.6965 366.089 50.8276C366.207 50.9588 366.267 51.1196 366.267 51.3101C366.267 51.5005 366.207 51.6592 366.089 51.7861C365.97 51.9131 365.797 51.9766 365.568 51.9766C365.34 51.9766 365.166 51.9131 365.048 51.7861C364.934 51.6592 364.876 51.5005 364.876 51.3101ZM369.542 60H368.367V50.25H369.542V60ZM372.937 60H371.763V50.25H372.937V60ZM379.094 60V54.0396H378.009V53.1318H379.094V52.4272C379.094 51.6909 379.291 51.1217 379.685 50.7197C380.078 50.3177 380.635 50.1167 381.354 50.1167C381.625 50.1167 381.894 50.1527 382.16 50.2246L382.097 51.1768C381.898 51.1387 381.686 51.1196 381.462 51.1196C381.081 51.1196 380.787 51.2318 380.58 51.4561C380.372 51.6761 380.269 51.9935 380.269 52.4082V53.1318H381.735V54.0396H380.269V60H379.094ZM382.96 56.5024C382.96 55.8296 383.091 55.2244 383.353 54.687C383.62 54.1496 383.988 53.7349 384.458 53.4429C384.932 53.1509 385.471 53.0049 386.077 53.0049C387.012 53.0049 387.767 53.3286 388.343 53.9761C388.922 54.6235 389.212 55.4847 389.212 56.5596V56.6421C389.212 57.3107 389.083 57.9116 388.825 58.4448C388.571 58.9738 388.205 59.3864 387.727 59.6826C387.253 59.9788 386.707 60.127 386.089 60.127C385.158 60.127 384.403 59.8032 383.823 59.1558C383.248 58.5083 382.96 57.6514 382.96 56.585V56.5024ZM384.14 56.6421C384.14 57.4038 384.316 58.0153 384.667 58.4766C385.023 58.9378 385.497 59.1685 386.089 59.1685C386.686 59.1685 387.16 58.9357 387.511 58.4702C387.862 58.0005 388.038 57.3446 388.038 56.5024C388.038 55.7492 387.858 55.1398 387.498 54.6743C387.143 54.2046 386.669 53.9697 386.077 53.9697C385.497 53.9697 385.029 54.2004 384.674 54.6616C384.318 55.1229 384.14 55.783 384.14 56.6421ZM383.988 51.2974C383.988 51.1069 384.045 50.9482 384.16 50.8213C384.278 50.6901 384.452 50.6245 384.68 50.6245C384.909 50.6245 385.082 50.6901 385.201 50.8213C385.319 50.9482 385.378 51.1069 385.378 51.2974C385.378 51.4878 385.319 51.6465 385.201 51.7734C385.082 51.9004 384.909 51.9639 384.68 51.9639C384.452 51.9639 384.278 51.9004 384.16 51.7734C384.045 51.6465 383.988 51.4878 383.988 51.2974ZM386.718 51.3101C386.718 51.1196 386.775 50.9588 386.889 50.8276C387.008 50.6965 387.181 50.6309 387.41 50.6309C387.638 50.6309 387.812 50.6965 387.93 50.8276C388.049 50.9588 388.108 51.1196 388.108 51.3101C388.108 51.5005 388.049 51.6592 387.93 51.7861C387.812 51.9131 387.638 51.9766 387.41 51.9766C387.181 51.9766 387.008 51.9131 386.889 51.7861C386.775 51.6592 386.718 51.5005 386.718 51.3101ZM394.239 54.1855C394.062 54.1559 393.869 54.1411 393.662 54.1411C392.892 54.1411 392.369 54.4691 392.094 55.125V60H390.92V53.1318H392.062L392.081 53.9253C392.466 53.3117 393.012 53.0049 393.719 53.0049C393.947 53.0049 394.121 53.0345 394.239 53.0938V54.1855ZM397.476 56.8198L396.74 57.5879V60H395.566V50.25H396.74V56.147L397.369 55.3916L399.508 53.1318H400.936L398.264 56.001L401.247 60H399.87L397.476 56.8198ZM403.659 60H402.485V50.25H403.659V60ZM410.019 60C409.951 59.8646 409.896 59.6234 409.854 59.2764C409.308 59.8434 408.656 60.127 407.899 60.127C407.222 60.127 406.665 59.9365 406.229 59.5557C405.798 59.1706 405.582 58.6839 405.582 58.0957C405.582 57.3805 405.853 56.8262 406.395 56.4326C406.94 56.0348 407.706 55.8359 408.692 55.8359H409.835V55.2964C409.835 54.8859 409.712 54.5601 409.467 54.3188C409.221 54.0734 408.86 53.9507 408.381 53.9507C407.962 53.9507 407.611 54.0565 407.328 54.2681C407.044 54.4797 406.902 54.7357 406.902 55.0361H405.722C405.722 54.6934 405.842 54.3633 406.084 54.0459C406.329 53.7243 406.659 53.4704 407.074 53.2842C407.493 53.098 407.952 53.0049 408.451 53.0049C409.243 53.0049 409.862 53.2038 410.311 53.6016C410.76 53.9951 410.992 54.5389 411.009 55.2329V58.394C411.009 59.0246 411.09 59.526 411.25 59.8984V60H410.019ZM408.07 59.105C408.438 59.105 408.788 59.0098 409.118 58.8193C409.448 58.6289 409.687 58.3813 409.835 58.0767V56.6675H408.915C407.476 56.6675 406.756 57.0885 406.756 57.9307C406.756 58.2988 406.879 58.5866 407.125 58.7939C407.37 59.0013 407.685 59.105 408.07 59.105ZM416.405 54.1855C416.227 54.1559 416.034 54.1411 415.827 54.1411C415.057 54.1411 414.534 54.4691 414.259 55.125V60H413.085V53.1318H414.227L414.246 53.9253C414.631 53.3117 415.177 53.0049 415.884 53.0049C416.113 53.0049 416.286 53.0345 416.405 53.0938V54.1855ZM421.711 60C421.643 59.8646 421.588 59.6234 421.546 59.2764C421 59.8434 420.348 60.127 419.591 60.127C418.914 60.127 418.357 59.9365 417.921 59.5557C417.49 59.1706 417.274 58.6839 417.274 58.0957C417.274 57.3805 417.545 56.8262 418.087 56.4326C418.632 56.0348 419.398 55.8359 420.384 55.8359H421.527V55.2964C421.527 54.8859 421.404 54.5601 421.159 54.3188C420.913 54.0734 420.552 53.9507 420.073 53.9507C419.654 53.9507 419.303 54.0565 419.02 54.2681C418.736 54.4797 418.594 54.7357 418.594 55.0361H417.414C417.414 54.6934 417.534 54.3633 417.775 54.0459C418.021 53.7243 418.351 53.4704 418.766 53.2842C419.185 53.098 419.644 53.0049 420.143 53.0049C420.934 53.0049 421.554 53.2038 422.003 53.6016C422.452 53.9951 422.684 54.5389 422.701 55.2329V58.394C422.701 59.0246 422.782 59.526 422.942 59.8984V60H421.711ZM419.762 59.105C420.13 59.105 420.48 59.0098 420.81 58.8193C421.14 58.6289 421.379 58.3813 421.527 58.0767V56.6675H420.607C419.168 56.6675 418.448 57.0885 418.448 57.9307C418.448 58.2988 418.571 58.5866 418.816 58.7939C419.062 59.0013 419.377 59.105 419.762 59.105ZM425.888 53.1318L425.926 53.9951C426.45 53.335 427.136 53.0049 427.982 53.0049C429.434 53.0049 430.166 53.8237 430.179 55.4614V60H429.004V55.4551C429 54.96 428.886 54.5939 428.661 54.3569C428.441 54.12 428.097 54.0015 427.627 54.0015C427.246 54.0015 426.912 54.103 426.624 54.3062C426.336 54.5093 426.112 54.7759 425.951 55.106V60H424.777V53.1318H425.888ZM431.899 56.5088C431.899 55.4551 432.148 54.6087 432.648 53.9697C433.147 53.3265 433.801 53.0049 434.609 53.0049C435.413 53.0049 436.05 53.2799 436.52 53.8301V50.25H437.694V60H436.615L436.558 59.2637C436.088 59.8392 435.434 60.127 434.596 60.127C433.801 60.127 433.151 59.8011 432.648 59.1494C432.148 58.4977 431.899 57.6471 431.899 56.5977V56.5088ZM433.073 56.6421C433.073 57.4207 433.234 58.0301 433.555 58.4702C433.877 58.9103 434.321 59.1304 434.888 59.1304C435.633 59.1304 436.177 58.7961 436.52 58.1274V54.9727C436.168 54.3252 435.629 54.0015 434.901 54.0015C434.326 54.0015 433.877 54.2236 433.555 54.668C433.234 55.1123 433.073 55.7703 433.073 56.6421ZM442.607 60.127C441.676 60.127 440.918 59.8223 440.334 59.2129C439.75 58.5993 439.458 57.7804 439.458 56.7563V56.5405C439.458 55.8592 439.588 55.252 439.846 54.7188C440.108 54.1813 440.472 53.7624 440.937 53.4619C441.407 53.1572 441.915 53.0049 442.461 53.0049C443.354 53.0049 444.048 53.299 444.543 53.8872C445.038 54.4754 445.286 55.3175 445.286 56.4136V56.9023H440.633C440.65 57.5794 440.846 58.1274 441.223 58.5464C441.604 58.9611 442.086 59.1685 442.67 59.1685C443.085 59.1685 443.436 59.0838 443.724 58.9146C444.012 58.7453 444.264 58.521 444.479 58.2417L445.197 58.8003C444.621 59.6847 443.758 60.127 442.607 60.127ZM442.461 53.9697C441.987 53.9697 441.589 54.1432 441.268 54.4902C440.946 54.833 440.747 55.3154 440.671 55.9375H444.111V55.8486C444.077 55.252 443.917 54.7907 443.629 54.4648C443.341 54.1348 442.952 53.9697 442.461 53.9697ZM366.733 75H365.559V65.25H366.733V75ZM373.093 75C373.025 74.8646 372.97 74.6234 372.928 74.2764C372.382 74.8434 371.73 75.127 370.973 75.127C370.296 75.127 369.739 74.9365 369.304 74.5557C368.872 74.1706 368.656 73.6839 368.656 73.0957C368.656 72.3805 368.927 71.8262 369.469 71.4326C370.014 71.0348 370.78 70.8359 371.766 70.8359H372.909V70.2964C372.909 69.8859 372.786 69.5601 372.541 69.3188C372.295 69.0734 371.934 68.9507 371.455 68.9507C371.036 68.9507 370.685 69.0565 370.402 69.2681C370.118 69.4797 369.976 69.7357 369.976 70.0361H368.796C368.796 69.6934 368.916 69.3633 369.158 69.0459C369.403 68.7243 369.733 68.4704 370.148 68.2842C370.567 68.098 371.026 68.0049 371.525 68.0049C372.317 68.0049 372.937 68.2038 373.385 68.6016C373.834 68.9951 374.066 69.5389 374.083 70.2329V73.394C374.083 74.0246 374.164 74.526 374.325 74.8984V75H373.093ZM371.144 74.105C371.513 74.105 371.862 74.0098 372.192 73.8193C372.522 73.6289 372.761 73.3813 372.909 73.0767V71.6675H371.989C370.55 71.6675 369.83 72.0885 369.83 72.9307C369.83 73.2988 369.953 73.5866 370.199 73.7939C370.444 74.0013 370.759 74.105 371.144 74.105ZM373.017 65.9927C373.017 66.3608 372.886 66.6698 372.623 66.9194C372.361 67.1649 372.037 67.2876 371.652 67.2876C371.263 67.2876 370.937 67.1628 370.675 66.9131C370.417 66.6634 370.287 66.3566 370.287 65.9927C370.287 65.6287 370.417 65.3177 370.675 65.0596C370.937 64.8014 371.263 64.6724 371.652 64.6724C372.042 64.6724 372.365 64.8014 372.623 65.0596C372.886 65.3177 373.017 65.6287 373.017 65.9927ZM370.916 65.9927C370.916 66.1916 370.986 66.363 371.125 66.5068C371.269 66.6507 371.445 66.7227 371.652 66.7227C371.855 66.7227 372.029 66.6528 372.173 66.5132C372.317 66.3735 372.389 66.2 372.389 65.9927C372.389 65.7853 372.317 65.6097 372.173 65.4658C372.033 65.3177 371.86 65.2437 371.652 65.2437C371.441 65.2437 371.265 65.3177 371.125 65.4658C370.986 65.6139 370.916 65.7896 370.916 65.9927ZM377.27 68.1318L377.308 68.9951C377.832 68.335 378.518 68.0049 379.364 68.0049C380.816 68.0049 381.548 68.8237 381.561 70.4614V75H380.386V70.4551C380.382 69.96 380.268 69.5939 380.044 69.3569C379.824 69.12 379.479 69.0015 379.009 69.0015C378.628 69.0015 378.294 69.103 378.006 69.3062C377.718 69.5093 377.494 69.7759 377.333 70.106V75H376.159V68.1318H377.27ZM383.287 71.5088C383.287 70.4382 383.535 69.5876 384.03 68.957C384.525 68.3223 385.181 68.0049 385.997 68.0049C386.835 68.0049 387.489 68.3011 387.959 68.8936L388.016 68.1318H389.089V74.835C389.089 75.7236 388.824 76.424 388.295 76.936C387.771 77.4481 387.064 77.7041 386.175 77.7041C385.68 77.7041 385.196 77.5983 384.722 77.3867C384.248 77.1751 383.886 76.8853 383.636 76.5171L384.246 75.8125C384.749 76.4346 385.365 76.7456 386.093 76.7456C386.664 76.7456 387.108 76.5848 387.426 76.2632C387.747 75.9416 387.908 75.4888 387.908 74.9048V74.3145C387.438 74.8561 386.797 75.127 385.985 75.127C385.181 75.127 384.529 74.8032 384.03 74.1558C383.535 73.5083 383.287 72.626 383.287 71.5088ZM384.468 71.6421C384.468 72.4165 384.626 73.0259 384.944 73.4702C385.261 73.9103 385.705 74.1304 386.277 74.1304C387.017 74.1304 387.561 73.7939 387.908 73.1211V69.9854C387.548 69.3294 387.009 69.0015 386.289 69.0015C385.718 69.0015 385.272 69.2236 384.95 69.668C384.629 70.1123 384.468 70.7703 384.468 71.6421ZM395.836 75H394.662V65.25H395.836V75ZM402.196 75C402.128 74.8646 402.073 74.6234 402.031 74.2764C401.485 74.8434 400.833 75.127 400.076 75.127C399.399 75.127 398.842 74.9365 398.407 74.5557C397.975 74.1706 397.759 73.6839 397.759 73.0957C397.759 72.3805 398.03 71.8262 398.572 71.4326C399.117 71.0348 399.883 70.8359 400.869 70.8359H402.012V70.2964C402.012 69.8859 401.889 69.5601 401.644 69.3188C401.398 69.0734 401.037 68.9507 400.558 68.9507C400.139 68.9507 399.788 69.0565 399.505 69.2681C399.221 69.4797 399.079 69.7357 399.079 70.0361H397.899C397.899 69.6934 398.019 69.3633 398.261 69.0459C398.506 68.7243 398.836 68.4704 399.251 68.2842C399.67 68.098 400.129 68.0049 400.628 68.0049C401.42 68.0049 402.04 68.2038 402.488 68.6016C402.937 68.9951 403.169 69.5389 403.186 70.2329V73.394C403.186 74.0246 403.267 74.526 403.428 74.8984V75H402.196ZM400.247 74.105C400.616 74.105 400.965 74.0098 401.295 73.8193C401.625 73.6289 401.864 73.3813 402.012 73.0767V71.6675H401.092C399.653 71.6675 398.933 72.0885 398.933 72.9307C398.933 73.2988 399.056 73.5866 399.302 73.7939C399.547 74.0013 399.862 74.105 400.247 74.105ZM411.076 71.6421C411.076 72.6916 410.835 73.5358 410.353 74.1748C409.87 74.8096 409.223 75.127 408.41 75.127C407.543 75.127 406.872 74.8201 406.398 74.2065L406.341 75H405.262V65.25H406.436V68.8872C406.91 68.299 407.564 68.0049 408.398 68.0049C409.231 68.0049 409.885 68.3201 410.359 68.9507C410.837 69.5812 411.076 70.4445 411.076 71.5405V71.6421ZM409.902 71.5088C409.902 70.709 409.747 70.0911 409.439 69.6553C409.13 69.2194 408.685 69.0015 408.106 69.0015C407.331 69.0015 406.775 69.3612 406.436 70.0806V73.0513C406.796 73.7707 407.357 74.1304 408.118 74.1304C408.681 74.1304 409.119 73.9124 409.432 73.4766C409.745 73.0407 409.902 72.3848 409.902 71.5088ZM415.646 75.127C414.715 75.127 413.958 74.8223 413.374 74.2129C412.79 73.5993 412.498 72.7804 412.498 71.7563V71.5405C412.498 70.8592 412.627 70.252 412.885 69.7188C413.147 69.1813 413.511 68.7624 413.977 68.4619C414.447 68.1572 414.954 68.0049 415.5 68.0049C416.393 68.0049 417.087 68.299 417.582 68.8872C418.078 69.4754 418.325 70.3175 418.325 71.4136V71.9023H413.672C413.689 72.5794 413.886 73.1274 414.263 73.5464C414.643 73.9611 415.126 74.1685 415.71 74.1685C416.125 74.1685 416.476 74.0838 416.764 73.9146C417.051 73.7453 417.303 73.521 417.519 73.2417L418.236 73.8003C417.661 74.6847 416.797 75.127 415.646 75.127ZM415.5 68.9697C415.026 68.9697 414.629 69.1432 414.307 69.4902C413.985 69.833 413.786 70.3154 413.71 70.9375H417.151V70.8486C417.117 70.252 416.956 69.7907 416.668 69.4648C416.381 69.1348 415.991 68.9697 415.5 68.9697ZM421.2 75H420.026V65.25H421.2V75Z" fill="#222222"/>
</svg>
