<svg width="950" height="90" viewBox="0 0 950 90" fill="none" xmlns="http://www.w3.org/2000/svg">
<path d="M64 34H623" stroke="#00C281" stroke-width="2" stroke-linecap="round"/>
<path d="M621 34H904" stroke="#B2ECD9" stroke-width="2" stroke-linecap="round" stroke-dasharray="8 8"/>
<path fill-rule="evenodd" clip-rule="evenodd" d="M59 40C62.3137 40 65 37.3137 65 34C65 30.6863 62.3137 28 59 28C55.6863 28 53 30.6863 53 34C53 37.3137 55.6863 40 59 40Z" fill="#00C281"/>
<path fill-rule="evenodd" clip-rule="evenodd" d="M338.333 40C341.647 40 344.333 37.3137 344.333 34C344.333 30.6863 341.647 28 338.333 28C335.02 28 332.333 30.6863 332.333 34C332.333 37.3137 335.02 40 338.333 40Z" fill="#00C281"/>
<path d="M624.667 34C624.667 37.3137 621.98 40 618.667 40C615.353 40 612.667 37.3137 612.667 34C612.667 30.6863 615.353 28 618.667 28C621.98 28 624.667 30.6863 624.667 34Z" fill="white" stroke="#00C281" stroke-width="4"/>
<path d="M904 34C904 37.866 900.866 41 897 41C893.134 41 890 37.866 890 34C890 30.134 893.134 27 897 27C900.866 27 904 30.134 904 34Z" fill="white" stroke="#CCF3E6" stroke-width="2"/>
<path d="M39.4021 60V50.7578H42.4236C43.4265 50.7578 44.1798 50.9652 44.6834 51.3799C45.1912 51.7946 45.4451 52.4082 45.4451 53.2207C45.4451 53.6523 45.3224 54.0353 45.0769 54.3696C44.8315 54.6997 44.4972 54.9557 44.074 55.1377C44.5734 55.2773 44.9669 55.5439 45.2547 55.9375C45.5467 56.3268 45.6927 56.7923 45.6927 57.334C45.6927 58.1634 45.4239 58.8151 44.8865 59.2891C44.3491 59.763 43.5895 60 42.6077 60H39.4021ZM40.6209 55.6772V59.0034H42.6331C43.2001 59.0034 43.6466 58.8574 43.9724 58.5654C44.3025 58.2692 44.4676 57.863 44.4676 57.3467C44.4676 56.2337 43.8624 55.6772 42.6521 55.6772H40.6209ZM40.6209 54.6997H42.4617C42.9949 54.6997 43.4202 54.5664 43.7376 54.2998C44.0592 54.0332 44.22 53.6714 44.22 53.2144C44.22 52.7065 44.0719 52.3384 43.7757 52.1099C43.4794 51.8771 43.0288 51.7607 42.4236 51.7607H40.6209V54.6997ZM50.4024 60.127C49.4714 60.127 48.7139 59.8223 48.1299 59.2129C47.546 58.5993 47.254 57.7804 47.254 56.7563V56.5405C47.254 55.8592 47.383 55.252 47.6412 54.7188C47.9035 54.1813 48.2675 53.7624 48.733 53.4619C49.2027 53.1572 49.7105 53.0049 50.2564 53.0049C51.1493 53.0049 51.8433 53.299 52.3384 53.8872C52.8336 54.4754 53.0811 55.3175 53.0811 56.4136V56.9023H48.4283C48.4452 57.5794 48.642 58.1274 49.0186 58.5464C49.3995 58.9611 49.8819 59.1685 50.4659 59.1685C50.8806 59.1685 51.2318 59.0838 51.5196 58.9146C51.8074 58.7453 52.0591 58.521 52.275 58.2417L52.9923 58.8003C52.4167 59.6847 51.5535 60.127 50.4024 60.127ZM50.2564 53.9697C49.7825 53.9697 49.3847 54.1432 49.0631 54.4902C48.7414 54.833 48.5425 55.3154 48.4664 55.9375H51.9068V55.8486C51.8729 55.252 51.7121 54.7907 51.4244 54.4648C51.1366 54.1348 50.7473 53.9697 50.2564 53.9697ZM55.9564 60H54.7821V50.25H55.9564V60ZM57.7653 56.5024C57.7653 55.8296 57.8965 55.2244 58.1588 54.687C58.4254 54.1496 58.7936 53.7349 59.2633 53.4429C59.7373 53.1509 60.2768 53.0049 60.882 53.0049C61.8172 53.0049 62.5726 53.3286 63.1481 53.9761C63.7278 54.6235 64.0177 55.4847 64.0177 56.5596V56.6421C64.0177 57.3107 63.8887 57.9116 63.6305 58.4448C63.3766 58.9738 63.0106 59.3864 62.5324 59.6826C62.0584 59.9788 61.5125 60.127 60.8947 60.127C59.9637 60.127 59.2083 59.8032 58.6286 59.1558C58.053 58.5083 57.7653 57.6514 57.7653 56.585V56.5024ZM58.9459 56.6421C58.9459 57.4038 59.1216 58.0153 59.4728 58.4766C59.8283 58.9378 60.3022 59.1685 60.8947 59.1685C61.4914 59.1685 61.9653 58.9357 62.3165 58.4702C62.6678 58.0005 62.8434 57.3446 62.8434 56.5024C62.8434 55.7492 62.6636 55.1398 62.3039 54.6743C61.9484 54.2046 61.4744 53.9697 60.882 53.9697C60.3022 53.9697 59.8346 54.2004 59.4791 54.6616C59.1237 55.1229 58.9459 55.783 58.9459 56.6421ZM71.5268 56.6421C71.5268 57.6873 71.2877 58.5295 70.8095 59.1685C70.3313 59.8075 69.6839 60.127 68.8671 60.127C68.0335 60.127 67.3775 59.8625 66.8993 59.3335V62.6406H65.725V53.1318H66.7978L66.8549 53.8936C67.3331 53.3011 67.9975 53.0049 68.8481 53.0049C69.6733 53.0049 70.325 53.3159 70.8032 53.938C71.2856 54.5601 71.5268 55.4255 71.5268 56.5342V56.6421ZM70.3525 56.5088C70.3525 55.7344 70.1874 55.1229 69.8574 54.6743C69.5273 54.2257 69.0745 54.0015 68.499 54.0015C67.788 54.0015 67.2548 54.3167 66.8993 54.9473V58.229C67.2506 58.8553 67.788 59.1685 68.5117 59.1685C69.0745 59.1685 69.5209 58.9463 69.851 58.502C70.1853 58.0534 70.3525 57.389 70.3525 56.5088ZM79.0612 56.6421C79.0612 57.6873 78.8222 58.5295 78.344 59.1685C77.8658 59.8075 77.2183 60.127 76.4016 60.127C75.5679 60.127 74.912 59.8625 74.4338 59.3335V62.6406H73.2595V53.1318H74.3322L74.3894 53.8936C74.8676 53.3011 75.532 53.0049 76.3825 53.0049C77.2077 53.0049 77.8594 53.3159 78.3376 53.938C78.82 54.5601 79.0612 55.4255 79.0612 56.5342V56.6421ZM77.8869 56.5088C77.8869 55.7344 77.7219 55.1229 77.3918 54.6743C77.0617 54.2257 76.6089 54.0015 76.0334 54.0015C75.3225 54.0015 74.7893 54.3167 74.4338 54.9473V58.229C74.785 58.8553 75.3225 59.1685 76.0461 59.1685C76.6089 59.1685 77.0554 58.9463 77.3855 58.502C77.7198 58.0534 77.8869 57.389 77.8869 56.5088Z" fill="#222222"/>
<path d="M312.645 55.9185H308.767V60H307.548V50.7578H313.274V51.7607H308.767V54.9219H312.645V55.9185ZM314.333 56.5024C314.333 55.8296 314.465 55.2244 314.727 54.687C314.994 54.1496 315.362 53.7349 315.832 53.4429C316.305 53.1509 316.845 53.0049 317.45 53.0049C318.385 53.0049 319.141 53.3286 319.716 53.9761C320.296 54.6235 320.586 55.4847 320.586 56.5596V56.6421C320.586 57.3107 320.457 57.9116 320.199 58.4448C319.945 58.9738 319.579 59.3864 319.101 59.6826C318.627 59.9788 318.081 60.127 317.463 60.127C316.532 60.127 315.777 59.8032 315.197 59.1558C314.621 58.5083 314.333 57.6514 314.333 56.585V56.5024ZM315.514 56.6421C315.514 57.4038 315.69 58.0153 316.041 58.4766C316.396 58.9378 316.87 59.1685 317.463 59.1685C318.06 59.1685 318.534 58.9357 318.885 58.4702C319.236 58.0005 319.412 57.3446 319.412 56.5024C319.412 55.7492 319.232 55.1398 318.872 54.6743C318.517 54.2046 318.043 53.9697 317.45 53.9697C316.87 53.9697 316.403 54.2004 316.047 54.6616C315.692 55.1229 315.514 55.783 315.514 56.6421ZM315.362 51.2974C315.362 51.1069 315.419 50.9482 315.533 50.8213C315.652 50.6901 315.825 50.6245 316.054 50.6245C316.282 50.6245 316.456 50.6901 316.574 50.8213C316.693 50.9482 316.752 51.1069 316.752 51.2974C316.752 51.4878 316.693 51.6465 316.574 51.7734C316.456 51.9004 316.282 51.9639 316.054 51.9639C315.825 51.9639 315.652 51.9004 315.533 51.7734C315.419 51.6465 315.362 51.4878 315.362 51.2974ZM318.091 51.3101C318.091 51.1196 318.148 50.9588 318.263 50.8276C318.381 50.6965 318.555 50.6309 318.783 50.6309C319.012 50.6309 319.185 50.6965 319.304 50.8276C319.422 50.9588 319.481 51.1196 319.481 51.3101C319.481 51.5005 319.422 51.6592 319.304 51.7861C319.185 51.9131 319.012 51.9766 318.783 51.9766C318.555 51.9766 318.381 51.9131 318.263 51.7861C318.148 51.6592 318.091 51.5005 318.091 51.3101ZM325.613 54.1855C325.435 54.1559 325.243 54.1411 325.035 54.1411C324.265 54.1411 323.743 54.4691 323.468 55.125V60H322.293V53.1318H323.436L323.455 53.9253C323.84 53.3117 324.386 53.0049 325.093 53.0049C325.321 53.0049 325.495 53.0345 325.613 53.0938V54.1855ZM326.521 56.5088C326.521 55.4551 326.77 54.6087 327.27 53.9697C327.769 53.3265 328.423 53.0049 329.231 53.0049C330.035 53.0049 330.672 53.2799 331.142 53.8301V50.25H332.316V60H331.237L331.18 59.2637C330.71 59.8392 330.056 60.127 329.218 60.127C328.423 60.127 327.773 59.8011 327.27 59.1494C326.77 58.4977 326.521 57.6471 326.521 56.5977V56.5088ZM327.695 56.6421C327.695 57.4207 327.856 58.0301 328.177 58.4702C328.499 58.9103 328.943 59.1304 329.51 59.1304C330.255 59.1304 330.799 58.7961 331.142 58.1274V54.9727C330.79 54.3252 330.251 54.0015 329.523 54.0015C328.947 54.0015 328.499 54.2236 328.177 54.668C327.856 55.1123 327.695 55.7703 327.695 56.6421ZM337.229 60.127C336.298 60.127 335.54 59.8223 334.956 59.2129C334.372 58.5993 334.08 57.7804 334.08 56.7563V56.5405C334.08 55.8592 334.209 55.252 334.468 54.7188C334.73 54.1813 335.094 53.7624 335.559 53.4619C336.029 53.1572 336.537 53.0049 337.083 53.0049C337.976 53.0049 338.67 53.299 339.165 53.8872C339.66 54.4754 339.908 55.3175 339.908 56.4136V56.9023H335.255C335.272 57.5794 335.468 58.1274 335.845 58.5464C336.226 58.9611 336.708 59.1685 337.292 59.1685C337.707 59.1685 338.058 59.0838 338.346 58.9146C338.634 58.7453 338.886 58.521 339.101 58.2417L339.819 58.8003C339.243 59.6847 338.38 60.127 337.229 60.127ZM337.083 53.9697C336.609 53.9697 336.211 54.1432 335.89 54.4902C335.568 54.833 335.369 55.3154 335.293 55.9375H338.733V55.8486C338.699 55.252 338.539 54.7907 338.251 54.4648C337.963 54.1348 337.574 53.9697 337.083 53.9697ZM342.783 60H341.609V50.25H342.783V60ZM346.014 53.1318L346.052 53.9951C346.576 53.335 347.262 53.0049 348.108 53.0049C349.56 53.0049 350.292 53.8237 350.305 55.4614V60H349.13V55.4551C349.126 54.96 349.012 54.5939 348.788 54.3569C348.567 54.12 348.223 54.0015 347.753 54.0015C347.372 54.0015 347.038 54.103 346.75 54.3062C346.462 54.5093 346.238 54.7759 346.077 55.106V60H344.903V53.1318H346.014ZM353.586 60H352.412V53.1318H353.586V60ZM352.317 51.3101C352.317 51.1196 352.374 50.9588 352.488 50.8276C352.606 50.6965 352.78 50.6309 353.009 50.6309C353.237 50.6309 353.411 50.6965 353.529 50.8276C353.648 50.9588 353.707 51.1196 353.707 51.3101C353.707 51.5005 353.648 51.6592 353.529 51.7861C353.411 51.9131 353.237 51.9766 353.009 51.9766C352.78 51.9766 352.606 51.9131 352.488 51.7861C352.374 51.6592 352.317 51.5005 352.317 51.3101ZM356.817 53.1318L356.855 53.9951C357.38 53.335 358.065 53.0049 358.912 53.0049C360.363 53.0049 361.095 53.8237 361.108 55.4614V60H359.934V55.4551C359.929 54.96 359.815 54.5939 359.591 54.3569C359.371 54.12 359.026 54.0015 358.556 54.0015C358.175 54.0015 357.841 54.103 357.553 54.3062C357.265 54.5093 357.041 54.7759 356.88 55.106V60H355.706V53.1318H356.817ZM362.834 56.5088C362.834 55.4382 363.082 54.5876 363.577 53.957C364.072 53.3223 364.728 53.0049 365.545 53.0049C366.383 53.0049 367.036 53.3011 367.506 53.8936L367.563 53.1318H368.636V59.835C368.636 60.7236 368.372 61.424 367.843 61.936C367.318 62.4481 366.611 62.7041 365.722 62.7041C365.227 62.7041 364.743 62.5983 364.269 62.3867C363.795 62.1751 363.433 61.8853 363.183 61.5171L363.793 60.8125C364.296 61.4346 364.912 61.7456 365.64 61.7456C366.211 61.7456 366.656 61.5848 366.973 61.2632C367.295 60.9416 367.455 60.4888 367.455 59.9048V59.3145C366.986 59.8561 366.345 60.127 365.532 60.127C364.728 60.127 364.076 59.8032 363.577 59.1558C363.082 58.5083 362.834 57.626 362.834 56.5088ZM364.015 56.6421C364.015 57.4165 364.174 58.0259 364.491 58.4702C364.808 58.9103 365.253 59.1304 365.824 59.1304C366.565 59.1304 367.108 58.7939 367.455 58.1211V54.9854C367.096 54.3294 366.556 54.0015 365.837 54.0015C365.265 54.0015 364.819 54.2236 364.497 54.668C364.176 55.1123 364.015 55.7703 364.015 56.6421Z" fill="#222222"/>
<path d="M570.901 55.8804C569.856 55.5799 569.095 55.2118 568.616 54.7759C568.142 54.3358 567.905 53.7941 567.905 53.1509C567.905 52.423 568.195 51.8221 568.775 51.3481C569.359 50.87 570.116 50.6309 571.047 50.6309C571.682 50.6309 572.247 50.7536 572.742 50.999C573.242 51.2445 573.627 51.583 573.898 52.0146C574.173 52.4463 574.31 52.9181 574.31 53.4302H573.085C573.085 52.8716 572.907 52.4336 572.552 52.1162C572.196 51.7946 571.695 51.6338 571.047 51.6338C570.447 51.6338 569.977 51.7671 569.638 52.0337C569.304 52.2961 569.137 52.6621 569.137 53.1318C569.137 53.5085 569.296 53.828 569.613 54.0903C569.935 54.3485 570.478 54.5854 571.244 54.8013C572.014 55.0171 572.615 55.2562 573.047 55.5186C573.483 55.7767 573.804 56.0793 574.012 56.4263C574.223 56.7733 574.329 57.1816 574.329 57.6514C574.329 58.4004 574.037 59.0013 573.453 59.4541C572.869 59.9027 572.089 60.127 571.111 60.127C570.476 60.127 569.884 60.0063 569.334 59.7651C568.783 59.5197 568.358 59.1854 568.058 58.7622C567.762 58.339 567.613 57.8587 567.613 57.3213H568.839C568.839 57.8799 569.044 58.3221 569.454 58.6479C569.869 58.9696 570.421 59.1304 571.111 59.1304C571.754 59.1304 572.247 58.9992 572.59 58.7368C572.933 58.4744 573.104 58.1169 573.104 57.6641C573.104 57.2113 572.945 56.8621 572.628 56.6167C572.311 56.367 571.735 56.1216 570.901 55.8804ZM580.188 60C580.12 59.8646 580.065 59.6234 580.023 59.2764C579.477 59.8434 578.825 60.127 578.068 60.127C577.391 60.127 576.834 59.9365 576.398 59.5557C575.967 59.1706 575.751 58.6839 575.751 58.0957C575.751 57.3805 576.022 56.8262 576.563 56.4326C577.109 56.0348 577.875 55.8359 578.861 55.8359H580.004V55.2964C580.004 54.8859 579.881 54.5601 579.636 54.3188C579.39 54.0734 579.028 53.9507 578.55 53.9507C578.131 53.9507 577.78 54.0565 577.496 54.2681C577.213 54.4797 577.071 54.7357 577.071 55.0361H575.891C575.891 54.6934 576.011 54.3633 576.252 54.0459C576.498 53.7243 576.828 53.4704 577.243 53.2842C577.662 53.098 578.121 53.0049 578.62 53.0049C579.411 53.0049 580.031 53.2038 580.48 53.6016C580.928 53.9951 581.161 54.5389 581.178 55.2329V58.394C581.178 59.0246 581.259 59.526 581.419 59.8984V60H580.188ZM578.239 59.105C578.607 59.105 578.956 59.0098 579.287 58.8193C579.617 58.6289 579.856 58.3813 580.004 58.0767V56.6675H579.083C577.645 56.6675 576.925 57.0885 576.925 57.9307C576.925 58.2988 577.048 58.5866 577.293 58.7939C577.539 59.0013 577.854 59.105 578.239 59.105ZM584.358 53.1318L584.39 53.8936C584.893 53.3011 585.573 53.0049 586.427 53.0049C587.388 53.0049 588.042 53.373 588.389 54.1094C588.617 53.7793 588.914 53.5127 589.278 53.3096C589.646 53.1064 590.079 53.0049 590.579 53.0049C592.085 53.0049 592.851 53.8026 592.877 55.3979V60H591.702V55.4678C591.702 54.9769 591.59 54.6108 591.366 54.3696C591.142 54.1242 590.765 54.0015 590.236 54.0015C589.8 54.0015 589.438 54.1326 589.151 54.395C588.863 54.6532 588.696 55.0023 588.649 55.4424V60H587.468V55.4995C587.468 54.5008 586.98 54.0015 586.002 54.0015C585.232 54.0015 584.705 54.3294 584.422 54.9854V60H583.247V53.1318H584.358ZM595.993 53.1318L596.025 53.8936C596.528 53.3011 597.208 53.0049 598.062 53.0049C599.023 53.0049 599.677 53.373 600.024 54.1094C600.252 53.7793 600.549 53.5127 600.913 53.3096C601.281 53.1064 601.715 53.0049 602.214 53.0049C603.72 53.0049 604.486 53.8026 604.512 55.3979V60H603.337V55.4678C603.337 54.9769 603.225 54.6108 603.001 54.3696C602.777 54.1242 602.4 54.0015 601.871 54.0015C601.435 54.0015 601.073 54.1326 600.786 54.395C600.498 54.6532 600.331 55.0023 600.284 55.4424V60H599.104V55.4995C599.104 54.5008 598.615 54.0015 597.637 54.0015C596.867 54.0015 596.34 54.3294 596.057 54.9854V60H594.882V53.1318H595.993ZM610.764 60C610.696 59.8646 610.641 59.6234 610.599 59.2764C610.053 59.8434 609.401 60.127 608.644 60.127C607.967 60.127 607.41 59.9365 606.974 59.5557C606.543 59.1706 606.327 58.6839 606.327 58.0957C606.327 57.3805 606.598 56.8262 607.139 56.4326C607.685 56.0348 608.451 55.8359 609.437 55.8359H610.58V55.2964C610.58 54.8859 610.457 54.5601 610.212 54.3188C609.966 54.0734 609.604 53.9507 609.126 53.9507C608.707 53.9507 608.356 54.0565 608.073 54.2681C607.789 54.4797 607.647 54.7357 607.647 55.0361H606.467C606.467 54.6934 606.587 54.3633 606.828 54.0459C607.074 53.7243 607.404 53.4704 607.819 53.2842C608.238 53.098 608.697 53.0049 609.196 53.0049C609.987 53.0049 610.607 53.2038 611.056 53.6016C611.505 53.9951 611.737 54.5389 611.754 55.2329V58.394C611.754 59.0246 611.835 59.526 611.995 59.8984V60H610.764ZM608.815 59.105C609.183 59.105 609.532 59.0098 609.863 58.8193C610.193 58.6289 610.432 58.3813 610.58 58.0767V56.6675H609.659C608.221 56.6675 607.501 57.0885 607.501 57.9307C607.501 58.2988 607.624 58.5866 607.869 58.7939C608.115 59.0013 608.43 59.105 608.815 59.105ZM614.94 53.1318L614.979 53.9951C615.503 53.335 616.189 53.0049 617.035 53.0049C618.487 53.0049 619.219 53.8237 619.232 55.4614V60H618.057V55.4551C618.053 54.96 617.939 54.5939 617.714 54.3569C617.494 54.12 617.149 54.0015 616.68 54.0015C616.299 54.0015 615.965 54.103 615.677 54.3062C615.389 54.5093 615.165 54.7759 615.004 55.106V60H613.83V53.1318H614.94ZM621.815 60V54.0396H620.729V53.1318H621.815V52.4272C621.815 51.6909 622.012 51.1217 622.405 50.7197C622.799 50.3177 623.355 50.1167 624.075 50.1167C624.345 50.1167 624.614 50.1527 624.881 50.2246L624.817 51.1768C624.618 51.1387 624.407 51.1196 624.182 51.1196C623.802 51.1196 623.508 51.2318 623.3 51.4561C623.093 51.6761 622.989 51.9935 622.989 52.4082V53.1318H624.455V54.0396H622.989V60H621.815ZM630.232 60C630.164 59.8646 630.109 59.6234 630.067 59.2764C629.521 59.8434 628.869 60.127 628.111 60.127C627.434 60.127 626.878 59.9365 626.442 59.5557C626.01 59.1706 625.795 58.6839 625.795 58.0957C625.795 57.3805 626.065 56.8262 626.607 56.4326C627.153 56.0348 627.919 55.8359 628.905 55.8359H630.048V55.2964C630.048 54.8859 629.925 54.5601 629.679 54.3188C629.434 54.0734 629.072 53.9507 628.594 53.9507C628.175 53.9507 627.824 54.0565 627.54 54.2681C627.257 54.4797 627.115 54.7357 627.115 55.0361H625.934C625.934 54.6934 626.055 54.3633 626.296 54.0459C626.541 53.7243 626.872 53.4704 627.286 53.2842C627.705 53.098 628.164 53.0049 628.664 53.0049C629.455 53.0049 630.075 53.2038 630.524 53.6016C630.972 53.9951 631.205 54.5389 631.222 55.2329V58.394C631.222 59.0246 631.302 59.526 631.463 59.8984V60H630.232ZM628.283 59.105C628.651 59.105 629 59.0098 629.33 58.8193C629.66 58.6289 629.899 58.3813 630.048 58.0767V56.6675H629.127C627.688 56.6675 626.969 57.0885 626.969 57.9307C626.969 58.2988 627.092 58.5866 627.337 58.7939C627.582 59.0013 627.898 59.105 628.283 59.105ZM634.891 51.4688V53.1318H636.173V54.0396H634.891V58.2988C634.891 58.5739 634.948 58.7812 635.062 58.9209C635.176 59.0563 635.371 59.124 635.646 59.124C635.781 59.124 635.968 59.0986 636.205 59.0479V60C635.896 60.0846 635.595 60.127 635.303 60.127C634.778 60.127 634.383 59.9683 634.116 59.6509C633.85 59.3335 633.716 58.8828 633.716 58.2988V54.0396H632.466V53.1318H633.716V51.4688H634.891ZM639.378 51.4688V53.1318H640.66V54.0396H639.378V58.2988C639.378 58.5739 639.435 58.7812 639.55 58.9209C639.664 59.0563 639.858 59.124 640.134 59.124C640.269 59.124 640.455 59.0986 640.692 59.0479V60C640.383 60.0846 640.083 60.127 639.791 60.127C639.266 60.127 638.87 59.9683 638.604 59.6509C638.337 59.3335 638.204 58.8828 638.204 58.2988V54.0396H636.953V53.1318H638.204V51.4688H639.378ZM643.383 53.1318L643.421 53.9951C643.946 53.335 644.632 53.0049 645.478 53.0049C646.93 53.0049 647.662 53.8237 647.674 55.4614V60H646.5V55.4551C646.496 54.96 646.382 54.5939 646.157 54.3569C645.937 54.12 645.592 54.0015 645.123 54.0015C644.742 54.0015 644.407 54.103 644.12 54.3062C643.832 54.5093 643.608 54.7759 643.447 55.106V60H642.272V53.1318H643.383ZM650.956 60H649.782V53.1318H650.956V60ZM649.686 51.3101C649.686 51.1196 649.743 50.9588 649.858 50.8276C649.976 50.6965 650.15 50.6309 650.378 50.6309C650.607 50.6309 650.78 50.6965 650.899 50.8276C651.017 50.9588 651.076 51.1196 651.076 51.3101C651.076 51.5005 651.017 51.6592 650.899 51.7861C650.78 51.9131 650.607 51.9766 650.378 51.9766C650.15 51.9766 649.976 51.9131 649.858 51.7861C649.743 51.6592 649.686 51.5005 649.686 51.3101ZM654.187 53.1318L654.225 53.9951C654.749 53.335 655.435 53.0049 656.281 53.0049C657.733 53.0049 658.465 53.8237 658.478 55.4614V60H657.303V55.4551C657.299 54.96 657.185 54.5939 656.961 54.3569C656.74 54.12 656.396 54.0015 655.926 54.0015C655.545 54.0015 655.211 54.103 654.923 54.3062C654.635 54.5093 654.411 54.7759 654.25 55.106V60H653.076V53.1318H654.187ZM660.204 56.5088C660.204 55.4382 660.452 54.5876 660.947 53.957C661.442 53.3223 662.098 53.0049 662.914 53.0049C663.752 53.0049 664.406 53.3011 664.876 53.8936L664.933 53.1318H666.006V59.835C666.006 60.7236 665.741 61.424 665.212 61.936C664.688 62.4481 663.981 62.7041 663.092 62.7041C662.597 62.7041 662.113 62.5983 661.639 62.3867C661.165 62.1751 660.803 61.8853 660.553 61.5171L661.162 60.8125C661.666 61.4346 662.282 61.7456 663.01 61.7456C663.581 61.7456 664.025 61.5848 664.343 61.2632C664.664 60.9416 664.825 60.4888 664.825 59.9048V59.3145C664.355 59.8561 663.714 60.127 662.902 60.127C662.098 60.127 661.446 59.8032 660.947 59.1558C660.452 58.5083 660.204 57.626 660.204 56.5088ZM661.385 56.6421C661.385 57.4165 661.543 58.0259 661.861 58.4702C662.178 58.9103 662.622 59.1304 663.194 59.1304C663.934 59.1304 664.478 58.7939 664.825 58.1211V54.9854C664.465 54.3294 663.926 54.0015 663.206 54.0015C662.635 54.0015 662.189 54.2236 661.867 54.668C661.545 55.1123 661.385 55.7703 661.385 56.6421Z" fill="#222222"/>
<path d="M883.48 55.7026L882.35 56.877V60H881.131V50.7578H882.35V55.3281L886.457 50.7578H887.929L884.292 54.8394L888.215 60H886.755L883.48 55.7026ZM890.608 60H889.434V50.25H890.608V60ZM896.968 60C896.9 59.8646 896.845 59.6234 896.803 59.2764C896.257 59.8434 895.605 60.127 894.848 60.127C894.171 60.127 893.614 59.9365 893.179 59.5557C892.747 59.1706 892.531 58.6839 892.531 58.0957C892.531 57.3805 892.802 56.8262 893.344 56.4326C893.89 56.0348 894.655 55.8359 895.641 55.8359H896.784V55.2964C896.784 54.8859 896.661 54.5601 896.416 54.3188C896.17 54.0734 895.809 53.9507 895.33 53.9507C894.911 53.9507 894.56 54.0565 894.277 54.2681C893.993 54.4797 893.851 54.7357 893.851 55.0361H892.671C892.671 54.6934 892.791 54.3633 893.033 54.0459C893.278 53.7243 893.608 53.4704 894.023 53.2842C894.442 53.098 894.901 53.0049 895.4 53.0049C896.192 53.0049 896.812 53.2038 897.26 53.6016C897.709 53.9951 897.941 54.5389 897.958 55.2329V58.394C897.958 59.0246 898.039 59.526 898.2 59.8984V60H896.968ZM895.019 59.105C895.388 59.105 895.737 59.0098 896.067 58.8193C896.397 58.6289 896.636 58.3813 896.784 58.0767V56.6675H895.864C894.425 56.6675 893.705 57.0885 893.705 57.9307C893.705 58.2988 893.828 58.5866 894.074 58.7939C894.319 59.0013 894.634 59.105 895.019 59.105ZM903.354 54.1855C903.176 54.1559 902.983 54.1411 902.776 54.1411C902.006 54.1411 901.483 54.4691 901.208 55.125V60H900.034V53.1318H901.176L901.195 53.9253C901.581 53.3117 902.126 53.0049 902.833 53.0049C903.062 53.0049 903.235 53.0345 903.354 53.0938V54.1855ZM906.584 51.4688V53.1318H907.867V54.0396H906.584V58.2988C906.584 58.5739 906.642 58.7812 906.756 58.9209C906.87 59.0563 907.065 59.124 907.34 59.124C907.475 59.124 907.661 59.0986 907.898 59.0479V60C907.589 60.0846 907.289 60.127 906.997 60.127C906.472 60.127 906.077 59.9683 905.81 59.6509C905.543 59.3335 905.41 58.8828 905.41 58.2988V54.0396H904.16V53.1318H905.41V51.4688H906.584ZM910.793 57.3911H909.733L909.65 50.7578H910.882L910.793 57.3911ZM909.606 59.4097C909.606 59.2192 909.663 59.0605 909.777 58.9336C909.896 58.8024 910.069 58.7368 910.298 58.7368C910.526 58.7368 910.7 58.8024 910.818 58.9336C910.937 59.0605 910.996 59.2192 910.996 59.4097C910.996 59.6001 910.937 59.7588 910.818 59.8857C910.7 60.0085 910.526 60.0698 910.298 60.0698C910.069 60.0698 909.896 60.0085 909.777 59.8857C909.663 59.7588 909.606 59.6001 909.606 59.4097Z" fill="#6A6A6A"/>
</svg>
